<?xml version="1.0" encoding="utf-8"?>
<!-- Generator: Adobe Illustrator 24.0.2, SVG Export Plug-In . SVG Version: 6.00 Build 0)  -->
<svg version="1.1" id="Layer_1" xmlns="http://www.w3.org/2000/svg" xmlns:xlink="http://www.w3.org/1999/xlink" x="0px" y="0px"
	 viewBox="0 0 72 72" style="enable-background:new 0 0 72 72;" xml:space="preserve">
<style type="text/css">
	.st0{fill:#34A8D6;}
	.st1{fill:#FFFFFF;}
</style>
<circle class="st0" cx="36" cy="36" r="36"/>
<path class="st1" d="M32.29,38.08h3.65c3.34,0,5.37,1.64,5.37,4.35c0,2.5-2.17,4.25-5.27,4.25c-3.26,0-5.31-1.64-5.5-4.14h-5.93
	c0.29,5.46,4.66,9.13,11.34,9.13c6.83,0,11.65-3.53,11.65-8.84c0-4.1-2.85-6.77-7.26-7.14v-0.12c3.63-0.66,6.11-3.28,6.11-6.91
	c0-4.74-4.2-7.9-10.36-7.9c-6.42,0-10.68,3.57-10.91,9.04h5.7c0.16-2.58,2.07-4.29,4.94-4.29c3.08,0,4.78,1.58,4.78,3.98
	c0,2.44-1.91,4.12-4.74,4.12h-3.59V38.08z"/>
</svg>
