<?xml version="1.0" encoding="UTF-8"?>
<svg xmlns="http://www.w3.org/2000/svg" width="34" height="21" viewBox="0 0 34 21" fill="none">
  <g clip-path="url(#clip0_1708_1056)">
    <path fill-rule="evenodd" clip-rule="evenodd" d="M9.58194 7.38428C9.58194 7.80268 9.62713 8.14193 9.70628 8.39071C9.79675 8.63949 9.90987 8.91091 10.0682 9.20487C10.1247 9.29534 10.1473 9.38582 10.1473 9.46497C10.1473 9.57809 10.0795 9.6911 9.93252 9.80422L9.22005 10.2791C9.11825 10.347 9.01656 10.3809 8.92608 10.3809C8.81297 10.3809 8.69995 10.3244 8.58683 10.2226C8.42853 10.053 8.29287 9.87205 8.17975 9.6911C8.06663 9.49883 7.95362 9.28402 7.82918 9.02392C6.94708 10.0643 5.83896 10.5844 4.5046 10.5844C3.55477 10.5844 2.79712 10.313 2.24306 9.77026C1.68899 9.22741 1.40625 8.50372 1.40625 7.59909C1.40625 6.63784 1.7455 5.85764 2.43533 5.26962C3.12515 4.68159 4.04111 4.38762 5.20574 4.38762C5.59018 4.38762 5.98604 4.42149 6.40444 4.4781C6.82285 4.53461 7.25257 4.62508 7.70484 4.72687V3.90139C7.70484 3.04194 7.52389 2.44269 7.17332 2.09212C6.81142 1.74154 6.20085 1.57192 5.33008 1.57192C4.93432 1.57192 4.52724 1.6171 4.10884 1.7189C3.69043 1.8207 3.28335 1.94503 2.88759 2.10334C2.70665 2.18249 2.57099 2.22768 2.49183 2.25032C2.41268 2.27296 2.35617 2.28418 2.31089 2.28418C2.15258 2.28418 2.07343 2.17107 2.07343 1.93361V1.37955C2.07343 1.1986 2.09607 1.06294 2.15258 0.983788C2.20909 0.904636 2.31089 0.825484 2.46919 0.746333C2.86495 0.542741 3.33996 0.373115 3.89403 0.237456C4.44819 0.0904738 5.03612 0.022644 5.65811 0.022644C7.0038 0.022644 7.98758 0.327929 8.6208 0.938602C9.24279 1.54927 9.5594 2.47645 9.5594 3.72034V7.38417H9.58204L9.58194 7.38428ZM4.99083 9.10307C5.36405 9.10307 5.74848 9.03524 6.15556 8.89958C6.56265 8.76392 6.92454 8.51515 7.22983 8.1759C7.41077 7.96108 7.54643 7.72353 7.61437 7.45221C7.6822 7.18079 7.72738 6.85286 7.72738 6.46842V5.99351C7.39945 5.91436 7.04888 5.84653 6.68709 5.80124C6.32519 5.75605 5.97472 5.73341 5.62415 5.73341C4.86649 5.73341 4.31243 5.88039 3.93921 6.18578C3.56599 6.49106 3.38515 6.92079 3.38515 7.48617C3.38515 8.01769 3.52081 8.41345 3.80355 8.68477C4.07497 8.96752 4.47073 9.10318 4.99093 9.10318L4.99083 9.10307ZM14.0712 10.3243C13.8676 10.3243 13.7319 10.2905 13.6414 10.2112C13.551 10.1434 13.4718 9.98507 13.404 9.77015L10.7466 1.02908C10.6787 0.802942 10.6448 0.655961 10.6448 0.576809C10.6448 0.395861 10.7353 0.294065 10.9162 0.294065H12.0244C12.2392 0.294065 12.3863 0.328031 12.4655 0.407183C12.556 0.475013 12.6238 0.633317 12.6916 0.84823L14.5914 8.3341L16.3554 0.84823C16.412 0.622097 16.4798 0.475013 16.5703 0.407183C16.6607 0.339353 16.819 0.294065 17.0226 0.294065H17.9273C18.1421 0.294065 18.2892 0.328031 18.3796 0.407183C18.4701 0.475013 18.5493 0.633317 18.5944 0.84823L20.3811 8.42457L22.3374 0.84823C22.4053 0.622097 22.4844 0.475013 22.5636 0.407183C22.654 0.339353 22.801 0.294065 23.0046 0.294065H24.0562C24.2372 0.294065 24.339 0.384539 24.339 0.576809C24.339 0.633317 24.3276 0.689927 24.3163 0.757757C24.305 0.825586 24.2824 0.91606 24.2372 1.0405L21.5119 9.78158C21.4441 10.0077 21.365 10.1547 21.2745 10.2226C21.184 10.2905 21.037 10.3357 20.8448 10.3357H19.8723C19.6574 10.3357 19.5104 10.3018 19.4199 10.2226C19.3295 10.1435 19.2503 9.99649 19.2051 9.77026L17.4523 2.47656L15.7109 9.75893C15.6544 9.98507 15.5865 10.132 15.496 10.2112C15.4055 10.2904 15.2472 10.3243 15.0437 10.3243H14.0713H14.0712ZM28.6019 10.6296C28.0139 10.6296 27.4259 10.5618 26.8605 10.4261C26.2951 10.2905 25.8541 10.1434 25.5601 9.97374C25.3792 9.87195 25.2548 9.75893 25.2095 9.65714C25.1643 9.55534 25.1417 9.44233 25.1417 9.34053V8.76382C25.1417 8.52637 25.2322 8.41325 25.4018 8.41325C25.4696 8.41325 25.5375 8.42457 25.6053 8.44722C25.6731 8.46986 25.7749 8.51505 25.888 8.56033C26.2725 8.72996 26.6909 8.86562 27.1319 8.95609C27.5843 9.04657 28.0252 9.09175 28.4776 9.09175C29.19 9.09175 29.7441 8.96731 30.1286 8.71854C30.513 8.46976 30.7166 8.10786 30.7166 7.64427C30.7166 7.32767 30.6148 7.06757 30.4113 6.85275C30.2077 6.63784 29.8233 6.44567 29.2692 6.26473L27.6296 5.75585C26.8041 5.49575 26.1934 5.11131 25.8203 4.60244C25.4472 4.10488 25.2549 3.55082 25.2549 2.96279C25.2549 2.48788 25.3567 2.06947 25.5602 1.70758C25.7637 1.34568 26.0351 1.02908 26.3744 0.780298C26.7136 0.520199 27.0981 0.328031 27.5504 0.19227C28.0028 0.0565079 28.4777 0 28.9753 0C29.224 0 29.4841 0.011322 29.7329 0.0451859C29.993 0.0791518 30.2305 0.124338 30.4679 0.169524C30.6941 0.226032 30.909 0.282641 31.1125 0.350471C31.316 0.418301 31.4744 0.486131 31.5874 0.554063C31.7457 0.644537 31.8588 0.735011 31.9266 0.836704C31.9945 0.927178 32.0284 1.05162 32.0284 1.20992V1.74144C32.0284 1.9789 31.938 2.10334 31.7683 2.10334C31.6779 2.10334 31.5309 2.05805 31.3386 1.96758C30.6941 1.67361 29.9703 1.52653 29.1674 1.52653C28.5229 1.52653 28.014 1.62832 27.6634 1.84314C27.3129 2.05795 27.1319 2.38588 27.1319 2.84957C27.1319 3.16618 27.245 3.4376 27.4712 3.65241C27.6973 3.86722 28.1157 4.08213 28.7151 4.2743L30.3208 4.78318C31.135 5.04328 31.723 5.40517 32.0736 5.86876C32.4242 6.33235 32.5938 6.86387 32.5938 7.4519C32.5938 7.93813 32.492 8.37918 32.2998 8.76362C32.0963 9.14816 31.8249 9.48731 31.4744 9.75873C31.1238 10.0414 30.7054 10.245 30.2192 10.3919C29.7103 10.5502 29.1789 10.6294 28.602 10.6294L28.6019 10.6296Z" fill="#144059"></path>
    <path fill-rule="evenodd" clip-rule="evenodd" d="M30.7388 16.1255C27.0185 18.8734 21.6132 20.3321 16.9657 20.3321C10.4522 20.3321 4.58343 17.9235 0.150622 13.9205C-0.199951 13.6039 0.116758 13.1742 0.535162 13.4229C5.32976 16.2047 11.2439 17.8896 17.3615 17.8896C21.4889 17.8896 26.0234 17.0302 30.1961 15.2661C30.818 14.9833 31.3495 15.6731 30.7388 16.1255Z" fill="#144059"></path>
    <path fill-rule="evenodd" clip-rule="evenodd" d="M32.2874 14.3615C31.8124 13.7509 29.1437 14.0675 27.9338 14.2146C27.5719 14.2597 27.5154 13.9431 27.8433 13.7057C29.9692 12.213 33.4634 12.6427 33.8705 13.1403C34.2776 13.6492 33.7574 17.1434 31.7673 18.8169C31.462 19.077 31.1679 18.9413 31.3037 18.6021C31.756 17.4825 32.7624 14.9609 32.2875 14.3615H32.2874Z" fill="#144059"></path>
  </g>
  <defs>
    <clipPath id="clip0_1708_1056">
      <rect width="34" height="20.3318" fill="white"></rect>
    </clipPath>
  </defs>
</svg>
