<?xml version="1.0" encoding="UTF-8"?>
<svg xmlns="http://www.w3.org/2000/svg" width="20" height="20" viewBox="0 0 20 20" fill="none">
  <g clip-path="url(#clip0_2022_388)">
    <path d="M9.91477 0.00585938C4.85025 0.00585938 5.16647 2.21096 5.16647 2.21096L5.17209 4.49551H10.0051V5.18139H3.25251C3.25251 5.18139 0.0117188 4.81237 0.0117188 9.94296C0.0117188 15.0737 2.84036 14.8917 2.84036 14.8917H4.52848V12.5109C4.52848 12.5109 4.43747 9.67088 7.31197 9.67088H12.1054C12.1054 9.67088 14.7985 9.71457 14.7985 7.05762V2.66453C14.7985 2.66453 15.2076 0.00585938 9.91477 0.00585938ZM7.24987 1.54217C7.36407 1.54207 7.47718 1.56458 7.58271 1.60841C7.68824 1.65224 7.78413 1.71654 7.86489 1.79762C7.94564 1.8787 8.00968 1.97498 8.05334 2.08093C8.097 2.18689 8.11942 2.30045 8.11932 2.41511C8.11942 2.52978 8.097 2.64334 8.05334 2.7493C8.00968 2.85525 7.94564 2.95153 7.86489 3.03261C7.78413 3.11369 7.68824 3.17798 7.58271 3.22182C7.47718 3.26565 7.36407 3.28816 7.24987 3.28806C7.13566 3.28816 7.02255 3.26565 6.91702 3.22182C6.81149 3.17798 6.7156 3.11369 6.63484 3.03261C6.55409 2.95153 6.49005 2.85525 6.44639 2.7493C6.40273 2.64334 6.38031 2.52978 6.38042 2.41511C6.38031 2.30045 6.40273 2.18689 6.44639 2.08093C6.49005 1.97498 6.55409 1.8787 6.63484 1.79762C6.7156 1.71654 6.81149 1.65224 6.91702 1.60841C7.02255 1.56458 7.13566 1.54207 7.24987 1.54217Z" fill="#144059"></path>
    <path d="M10.0591 19.9316C15.1237 19.9316 14.8074 17.7265 14.8074 17.7265L14.8018 15.442H9.96875V14.7562H16.7213C16.7213 14.7562 19.9621 15.1252 19.9621 9.99443C19.9621 4.86376 17.1335 5.04572 17.1335 5.04572H15.4453V7.4265C15.4453 7.4265 15.5364 10.2665 12.6619 10.2665H7.8684C7.8684 10.2665 5.1753 10.2228 5.1753 12.8798V17.273C5.1753 17.273 4.76635 19.9316 10.0591 19.9316H10.0591ZM12.724 18.3954C12.6098 18.3955 12.4967 18.373 12.3912 18.3292C12.2857 18.2854 12.1898 18.2211 12.109 18.14C12.0283 18.0589 11.9642 17.9626 11.9206 17.8567C11.8769 17.7507 11.8545 17.6372 11.8546 17.5225C11.8545 17.4078 11.8769 17.2943 11.9205 17.1883C11.9642 17.0823 12.0282 16.986 12.109 16.905C12.1897 16.8239 12.2856 16.7596 12.3912 16.7157C12.4967 16.6719 12.6098 16.6494 12.724 16.6495C12.8382 16.6494 12.9514 16.6719 13.0569 16.7157C13.1624 16.7596 13.2583 16.8239 13.3391 16.9049C13.4198 16.986 13.4839 17.0823 13.5275 17.1882C13.5712 17.2942 13.5936 17.4078 13.5935 17.5224C13.5936 17.6371 13.5712 17.7507 13.5275 17.8566C13.4839 17.9626 13.4198 18.0588 13.3391 18.1399C13.2583 18.221 13.1624 18.2853 13.0569 18.3291C12.9514 18.373 12.8382 18.3955 12.724 18.3954Z" fill="#144059"></path>
  </g>
  <defs>
    <clipPath id="clip0_2022_388">
      <rect width="20" height="20" fill="white"></rect>
    </clipPath>
  </defs>
</svg>
