<?xml version="1.0" encoding="UTF-8"?>
<svg xmlns="http://www.w3.org/2000/svg" width="32" height="32" viewBox="0 0 32 32" fill="none">
  <path d="M14.8041 13.9171C14.3962 14.1526 14.0673 14.5037 13.859 14.9261C13.6507 15.3485 13.5724 15.8232 13.6338 16.2901C13.6953 16.7571 13.8939 17.1953 14.2044 17.5494C14.515 17.9035 14.9235 18.1575 15.3785 18.2794C15.8334 18.4013 16.3142 18.3855 16.7602 18.2341C17.2062 18.0827 17.5972 17.8025 17.8839 17.4288C18.1706 17.0552 18.3401 16.6049 18.3709 16.1349C18.4016 15.665 18.2924 15.1964 18.0569 14.7886C17.7411 14.2417 17.221 13.8427 16.611 13.6792C16.001 13.5158 15.351 13.6013 14.8041 13.9171ZM25.477 16.5007C25.3207 16.322 25.1557 16.1428 24.9822 15.9632C25.1034 15.8358 25.2207 15.7084 25.3342 15.5812C27.4753 13.1755 28.3789 10.7629 27.5416 9.3125C26.7387 7.92184 24.3504 7.50741 21.3604 8.08878C21.0659 8.1464 20.773 8.2114 20.4817 8.28377C20.4259 8.09156 20.3666 7.90045 20.3038 7.71044C19.2894 4.65373 17.6509 2.66545 15.9762 2.6665C14.3703 2.66724 12.8182 4.52929 11.8281 7.40984C11.7307 7.69401 11.6406 7.98054 11.5578 8.26945C11.363 8.22167 11.1675 8.17754 10.9711 8.13705C7.81643 7.48934 5.27553 7.91593 4.43984 9.36718C3.63851 10.7589 4.47655 13.0336 6.47785 15.33C6.67633 15.5572 6.88043 15.7793 7.09015 15.9963C6.84292 16.251 6.60881 16.5055 6.39061 16.7586C4.43781 19.0226 3.64769 21.2602 4.44773 22.6458C5.27399 24.0771 7.77912 24.545 10.8283 23.945C11.0754 23.896 11.3211 23.8409 11.5655 23.7797C11.655 24.0921 11.7532 24.4019 11.8601 24.709C12.8459 27.5317 14.3892 29.3338 15.9894 29.3333C17.642 29.3323 19.2987 27.3961 20.3024 24.4549C20.3817 24.2225 20.4567 23.9811 20.5278 23.7326C20.8435 23.8111 21.1612 23.8808 21.481 23.9417C24.4188 24.4975 26.751 24.0603 27.5496 22.6737C28.3742 21.2413 27.524 18.8389 25.477 16.5007ZM5.42703 9.93562C5.94151 9.04229 8.01801 8.69377 10.7418 9.25296C10.9159 9.28875 11.0929 9.32875 11.273 9.37296C11.007 10.5493 10.8194 11.742 10.7113 12.9432C9.72849 13.6346 8.79147 14.3889 7.90611 15.2013C7.71104 14.9996 7.52118 14.793 7.33653 14.5815C5.62177 12.6139 4.94411 10.7743 5.42703 9.93562ZM10.6092 17.5731C9.92849 17.0576 9.29584 16.5295 8.72163 15.9984C9.29544 15.4706 9.92849 14.9443 10.6079 14.4302C10.5834 14.9539 10.5713 15.478 10.5716 16.0025C10.5719 16.5262 10.5845 17.0497 10.6092 17.5731ZM10.6084 22.8272C9.45278 23.0842 8.2597 23.1263 7.08881 22.9514C6.76784 22.9264 6.45539 22.8359 6.17079 22.6854C5.88619 22.5348 5.63548 22.3276 5.43415 22.0763C4.94872 21.2354 5.58316 19.439 7.25324 17.5027C7.4632 17.26 7.68005 17.0237 7.90379 16.7937C8.78929 17.6104 9.72783 18.3676 10.7133 19.0605C10.8229 20.277 11.0127 21.485 11.2816 22.6765C11.0585 22.7323 10.8341 22.7825 10.6084 22.8272ZM20.0766 12.1081C19.6294 11.8263 19.1767 11.5536 18.7185 11.2899C18.2675 11.0303 17.8112 10.7805 17.3494 10.5405C18.1401 10.208 18.9173 9.92408 19.6676 9.6927C19.8445 10.4904 19.981 11.2966 20.0766 12.1081ZM12.9054 7.78012C13.7537 5.31193 15.0089 3.80608 15.9768 3.80566C17.0076 3.80517 18.3468 5.43001 19.2226 8.06917C19.2795 8.24122 19.3332 8.41423 19.3839 8.58821C18.2334 8.94506 17.1077 9.37764 16.0144 9.88314C14.9255 9.3717 13.8034 8.93429 12.6557 8.57389C12.7324 8.3073 12.8157 8.0427 12.9054 7.78012ZM12.3716 9.6785C13.1543 9.9249 13.924 10.2106 14.6778 10.5345C13.7438 11.0165 12.8338 11.5416 11.948 12.1097C12.055 11.259 12.1974 10.444 12.3716 9.6785ZM11.95 19.8927C12.3917 20.1755 12.8399 20.4479 13.2945 20.7097C13.7583 20.9767 14.2283 21.2325 14.7044 21.4771C13.9447 21.8123 13.1684 22.1082 12.3784 22.3637C12.2023 21.5876 12.0583 20.7582 11.95 19.8927ZM19.2242 24.0868C18.8695 25.2163 18.3099 26.2708 17.5734 27.1978C17.3914 27.4633 17.1568 27.6887 16.8843 27.86C16.6118 28.0314 16.307 28.145 15.9888 28.1938C15.0179 28.1944 13.7786 26.7472 12.9356 24.3332C12.8363 24.0478 12.745 23.7598 12.6616 23.4692C13.8148 23.0972 14.9414 22.6474 16.0338 22.123C17.1362 22.6317 18.2708 23.0676 19.4303 23.4277C19.367 23.649 19.2983 23.8687 19.2242 24.0868ZM19.7072 22.3211C18.9483 22.0865 18.1598 21.7978 17.3577 21.4605C17.8098 21.2225 18.2653 20.9712 18.724 20.7065C19.1947 20.4347 19.6534 20.1561 20.1001 19.8707C20.0111 20.6937 19.88 21.5116 19.7072 22.3211ZM20.3023 15.9976C20.3033 16.8073 20.278 17.6164 20.2264 18.4248C19.5695 18.8694 18.876 19.3035 18.1544 19.7201C17.4358 20.1349 16.7239 20.5162 16.0254 20.8613C15.2905 20.509 14.5697 20.1295 13.8631 19.7226C13.1605 19.3181 12.4739 18.8875 11.8035 18.4306C11.7422 17.6224 11.7114 16.8127 11.7109 16.0016C11.7103 15.1911 11.7407 14.3816 11.8017 13.5728C12.4584 13.1243 13.1469 12.6905 13.8587 12.2795C14.5738 11.8666 15.2947 11.487 16.0116 11.1429C16.7375 11.4957 17.4503 11.8738 18.15 12.2771C18.8522 12.6807 19.5406 13.1067 20.2154 13.5553C20.2733 14.3682 20.3022 15.1822 20.3023 15.9976ZM21.5779 9.20712C24.1397 8.70882 26.0712 9.04403 26.5551 9.88208C27.0706 10.7749 26.3318 12.7467 24.4833 14.8239C24.3812 14.9385 24.2752 15.0536 24.1654 15.1692C23.2647 14.355 22.3096 13.6031 21.3068 12.9187C21.2056 11.7307 21.025 10.5507 20.7662 9.3868C21.042 9.31893 21.3126 9.25904 21.5779 9.20712ZM21.4047 14.3867C22.0812 14.8806 22.7315 15.4092 23.3532 15.9705C22.7343 16.541 22.086 17.0788 21.4109 17.5816C21.4316 17.0537 21.4418 16.5255 21.4414 15.997C21.4412 15.4601 21.429 14.9234 21.4047 14.3867ZM26.5622 22.1051C26.0776 22.9466 24.205 23.2975 21.6926 22.8222C21.4047 22.7678 21.1092 22.7031 20.8063 22.6281C21.0588 21.4492 21.2314 20.2546 21.3229 19.0524C22.324 18.3561 23.2761 17.5916 24.1723 16.7646C24.3291 16.9275 24.4783 17.0897 24.6198 17.2511C25.4212 18.1225 26.0554 19.1339 26.4906 20.2349C26.6298 20.5251 26.7079 20.8409 26.7202 21.1625C26.7325 21.4842 26.6788 21.805 26.5622 22.1051Z" fill="#144059"></path>
</svg>
