<?xml version="1.0" encoding="UTF-8"?>
<svg xmlns="http://www.w3.org/2000/svg" width="32" height="32" viewBox="0 0 32 32" fill="none">
  <path d="M7.11325 27.4209H18.1852C18.1852 27.4209 15.7293 21.8429 16.3533 16.7229C16.9773 11.6029 21.0153 9.27188 23.3043 9.02188C25.5933 8.77188 26.8422 10.1879 26.8422 10.1879L27.3422 9.43888C27.3422 9.43888 24.0543 6.10888 19.8913 6.48388C15.7283 6.85888 12.8563 9.60588 11.0673 12.9359C9.27725 16.2659 8.23625 18.5969 7.52925 22.0939C6.82225 25.5909 7.11325 27.4209 7.11325 27.4209ZM4.90725 21.8429L7.07125 22.0099L6.69625 24.1739L4.65625 23.9239L4.90725 21.8429ZM8.32025 17.2639L8.90325 15.6409L6.98825 14.8919L6.36425 16.6399L8.32025 17.2639ZM11.0262 11.6859L12.1502 10.3539L10.6932 9.39688L9.52825 10.6869L11.0262 11.6859ZM13.9812 6.52488L14.9802 7.73188L16.3542 6.94088L15.3552 5.81688L13.9812 6.52488ZM18.8512 5.15088L19.1012 6.35788L20.8083 6.31588L20.6413 5.23388L18.8512 5.15088ZM24.6372 6.44088L24.5952 7.18988L25.7612 7.81388L26.0112 7.43888L24.6383 6.43988L24.6372 6.44088ZM24.3872 9.64688V10.2709L25.5112 10.3959V9.89588L24.3872 9.64588V9.64688ZM20.8083 10.1879L21.3493 11.1869L22.1402 10.5629L21.9743 9.89688L20.8092 10.1889L20.8083 10.1879ZM19.1012 11.4779L19.9333 12.7269L19.4342 13.6009L18.2272 12.2689L19.1012 11.4779ZM17.4363 14.9329L16.8953 16.0149L18.3102 17.2219L18.6432 15.8479L17.4363 14.9329ZM16.8533 18.7209L16.7703 20.1779L18.5182 20.9269L18.4352 19.5529L16.8533 18.7199V18.7209ZM17.3533 23.8819L17.7703 25.3809L19.9762 25.5059L19.1852 23.8829L17.3533 23.8819Z" fill="#144059"></path>
</svg>
