<svg width="90" height="86" viewBox="0 0 90 86" fill="none" xmlns="http://www.w3.org/2000/svg">
<path d="M6.66894 0.18425C3.66397 0.887169 1.01045 3.857 0.289954 7.28373C-0.0966514 9.11132 -0.0966514 59.5633 0.289954 61.3734C1.04559 64.9407 3.71668 67.8578 6.84467 68.508C8.00449 68.754 18.7943 68.7716 19.4269 68.5256C20.4989 68.1214 20.8152 66.5574 19.9893 65.7314L19.5324 65.2746L13.417 65.1867C7.54759 65.0988 7.284 65.0812 6.59865 64.7122C5.61457 64.185 4.50747 62.9022 4.033 61.6897L3.62882 60.7056V43.8355V26.9655L41.8149 26.9127L79.9834 26.8776V35.8398V44.802H79.3332C78.5248 44.802 77.2596 45.3644 76.627 45.9619L76.1525 46.4187L74.9575 45.8916C74.2898 45.6104 73.5693 45.3116 73.3584 45.2589C73.0596 45.1711 72.9542 44.9602 72.8663 44.2221C72.6555 42.6757 71.8998 41.5686 70.5994 40.9008C69.7559 40.4615 66.6807 40.2682 65.1342 40.5669C63.2188 40.9184 61.9535 42.2715 61.7602 44.1518L61.6724 45.0832L60.1084 45.751L58.5444 46.4187L57.9996 45.9443C57.0507 45.1711 56.418 44.925 55.2934 44.925C54.5729 44.925 54.0281 45.0305 53.5361 45.2941C52.5871 45.7861 49.67 48.7735 49.3186 49.5819C48.7738 50.9174 49.1604 52.8505 50.1972 53.94L50.6365 54.3969L49.9512 55.9609L49.2658 57.5424L48.3345 57.6303C47.2449 57.7533 46.5245 58.0872 45.8743 58.8077C44.9429 59.8094 44.7672 60.3541 44.6969 62.8495L44.6266 65.1867H39.179H33.7313L33.2217 65.6963C32.3606 66.5574 32.6067 67.9456 33.7138 68.508C33.9774 68.6486 36.4551 68.7013 41.7095 68.7013H49.3186L49.9863 70.2829L50.6717 71.882L50.1445 72.4619C49.0374 73.7272 48.7738 75.5547 49.5119 76.9957C49.9688 77.8919 52.7629 80.5982 53.6415 81.0024C54.731 81.4944 55.9787 81.4593 57.0858 80.9145C57.5779 80.6685 58.105 80.317 58.2632 80.1413C58.5444 79.825 58.6147 79.8426 60.1084 80.4576L61.6724 81.0902L61.8657 82.2325C62.1117 83.7086 62.7443 84.6048 63.9744 85.255C64.8531 85.7119 65.0288 85.7471 67.1903 85.7471C68.4555 85.7471 69.7911 85.6592 70.1601 85.5538C71.6362 85.0969 72.7258 83.6735 72.9015 81.9513C72.9542 81.4241 73.0948 81.0024 73.2002 81.0024C73.3057 81.0024 74.0262 80.7212 74.7994 80.3873L76.1876 79.7723L76.7324 80.2994C77.8395 81.3714 79.7374 81.6701 81.1256 81.0024C82.0394 80.563 84.9917 77.5756 85.3432 76.7321C85.9055 75.3614 85.5716 73.5339 84.5524 72.4795L84.0252 71.9347L84.6402 70.5464C84.9741 69.7732 85.2553 69.0352 85.2553 68.9122C85.2553 68.7891 85.5013 68.7013 85.8879 68.7013C87.0302 68.7013 87.944 68.3147 88.7699 67.4712C89.8067 66.4344 90 65.749 90 62.9373C90 60.7759 89.9649 60.6001 89.508 59.7215C88.8402 58.4387 87.8912 57.7885 86.4854 57.6479L85.3959 57.5424L84.9917 56.4705C84.7633 55.873 84.4645 55.1525 84.3064 54.8538C84.0603 54.3793 84.0603 54.309 84.3064 54.0981C84.4645 53.9751 84.816 53.4655 85.0971 52.9735C86.0285 51.3568 85.7473 49.5995 84.2888 47.9827L83.6913 47.3325L83.6386 27.5629L83.5859 7.81092L83.1114 6.3875C82.2855 3.99758 80.5633 1.80096 78.7884 0.887169C76.9433 -0.0617752 78.7884 -0.00905609 41.6743 0.0085144C22.4846 0.0260925 7.0204 0.0963821 6.66894 0.18425ZM76.5215 3.78671C77.5935 4.15574 78.7357 5.26284 79.3859 6.59838L79.8955 7.63519L79.9483 15.4903L80.001 23.363H41.7622H3.52338L3.5761 15.666C3.62882 8.16238 3.64639 7.96908 4.033 7.00256C4.6832 5.38585 5.9836 4.10302 7.40701 3.6637C7.65303 3.59341 23.1173 3.52311 41.7798 3.52311C72.4094 3.50554 75.7835 3.54069 76.5215 3.78671ZM69.2639 45.3644C69.2639 46.2254 69.3693 46.8405 69.5802 47.2623C69.8438 47.8246 70.0371 47.93 71.5484 48.4221C72.4622 48.7208 73.868 49.3007 74.6588 49.6873C75.4671 50.0915 76.2931 50.4254 76.5215 50.4254C77.0136 50.4254 77.5408 50.0739 78.6303 49.0371L79.4562 48.2463L80.7742 49.5467C81.4947 50.2672 82.0922 50.935 82.0922 51.0404C82.0922 51.1459 81.7056 51.6203 81.2135 52.0948C80.739 52.5693 80.247 53.2195 80.1416 53.5358C79.9658 54.0806 80.0185 54.2739 80.8269 55.9257C81.3189 56.9098 81.8813 58.2805 82.0746 58.9659C82.6018 60.7407 82.9532 61.0219 84.8687 61.1449L86.3975 61.2328L86.4503 62.9725C86.4854 64.0972 86.4327 64.7825 86.2921 64.9407C86.1515 65.1164 85.677 65.1867 84.7281 65.1867C82.9005 65.1867 82.6369 65.3976 82.0043 67.4185C81.7407 68.2795 81.1784 69.6502 80.739 70.4937C80.0185 71.882 79.9658 72.0577 80.1416 72.6025C80.247 72.9364 80.739 73.5866 81.2135 74.061C81.7056 74.5355 82.0922 75.01 82.0922 75.1154C82.0922 75.3439 79.5968 77.8392 79.3508 77.8392C79.2629 77.8392 78.7533 77.3999 78.2261 76.8727C76.9257 75.5547 76.6094 75.5196 74.7467 76.4861C73.9032 76.9254 72.5325 77.4878 71.689 77.7338C69.6681 78.3488 69.4396 78.63 69.4396 80.4752C69.4396 81.4241 69.3693 81.8986 69.1936 82.0392C69.0354 82.1798 68.3501 82.2325 67.2254 82.1973L65.4857 82.1446L65.3978 80.6158C65.2748 78.7003 64.9937 78.3488 63.2188 77.8217C62.5334 77.6108 61.1803 77.0484 60.2138 76.574C58.6147 75.7656 58.4214 75.7129 57.8415 75.8886C57.5076 75.9941 56.8398 76.4685 56.3477 76.9606C55.8733 77.4351 55.3988 77.8392 55.2934 77.8392C55.1879 77.8392 54.5377 77.2593 53.8172 76.5388C52.3938 75.1154 52.3587 74.9221 53.4306 74.1665C54.0633 73.7096 54.6783 72.7431 54.6783 72.2159C54.6783 71.9874 54.3269 71.1264 53.9051 70.3004C53.4834 69.4745 52.9562 68.1917 52.7453 67.4712C52.1654 65.5557 51.8666 65.2921 49.9688 65.1867L48.4399 65.0988L48.3872 63.1131L48.3345 61.1449H49.6173C50.4784 61.1449 51.0934 61.0395 51.5152 60.8286C52.0775 60.565 52.183 60.3717 52.7453 58.6847C53.0967 57.6655 53.6767 56.2948 54.0281 55.627C54.3796 54.9592 54.6783 54.2563 54.6783 54.0806C54.6783 53.5534 54.239 52.8505 53.3779 52.007C52.9386 51.5852 52.5696 51.1459 52.5696 51.058C52.5696 50.7593 54.9068 48.4924 55.2055 48.4924C55.3637 48.4924 55.803 48.8087 56.172 49.2129C56.9804 50.0388 57.6482 50.4254 58.2632 50.4254C58.4917 50.4254 59.3703 50.0739 60.1787 49.6522C61.0046 49.2129 62.2523 48.6857 62.9728 48.4924C63.8514 48.2288 64.4137 47.9476 64.7476 47.5961C65.187 47.1217 65.2221 46.9635 65.2221 45.7158C65.2221 44.9602 65.2748 44.2748 65.3451 44.2221C65.3978 44.1518 66.3116 44.0991 67.366 44.0991H69.2639V45.3644Z" fill="black"/>
<path d="M14.9636 7.81053C13.8741 8.10927 12.3979 9.05821 11.8532 9.79627C10.8691 11.1318 10.6582 11.782 10.6582 13.5217C10.6582 14.91 10.7285 15.3318 11.0624 15.9995C11.7126 17.3175 12.5912 18.1962 13.8565 18.8288C14.8933 19.3384 15.2096 19.4087 16.4573 19.4087C17.6347 19.4087 18.0389 19.3208 18.9175 18.9166C20.2706 18.284 21.5007 16.9836 21.9928 15.6656C22.52 14.295 22.4321 12.2213 21.817 10.9737C20.5869 8.44316 17.6171 7.09004 14.9636 7.81053ZM17.9861 11.7117C19.0581 12.6782 19.0932 14.2774 18.074 15.2263C17.2656 15.9644 16.4221 16.1225 15.5435 15.7008C13.9092 14.8924 13.6105 12.9067 14.946 11.6942C15.6665 11.0264 17.2481 11.044 17.9861 11.7117Z" fill="#23BAB1"/>
<path d="M30.4094 7.77561C27.3693 8.63669 25.5066 11.5187 26.0513 14.5236C26.4204 16.527 27.6153 18.0558 29.5308 18.952C30.9191 19.6022 32.8872 19.6022 34.3106 18.9345C35.5759 18.3545 36.6654 17.2826 37.2629 15.9998C37.6495 15.1738 37.7198 14.7697 37.7198 13.522C37.7198 12.2391 37.6495 11.8877 37.2278 11.0266C35.9976 8.51368 32.9575 7.05512 30.4094 7.77561ZM33.4144 11.7471C34.4688 12.5203 34.5215 14.2073 33.5199 15.209C32.7466 15.9822 31.9031 16.1228 30.9191 15.6483C29.9701 15.1914 29.5484 14.5061 29.5484 13.4517C29.5484 12.7839 29.6538 12.5379 30.1283 12.0107C31.0245 11.0266 32.3249 10.9212 33.4144 11.7471Z" fill="#23BAB1"/>
<path d="M51.4626 7.74024C47.8601 8.58374 45.8216 12.5904 47.2802 15.9117C47.7722 17.0012 49.1078 18.3543 50.2676 18.9166L51.2517 19.4087H60.5654C69.879 19.4087 69.879 19.4087 70.7401 19.0045C72.0757 18.407 73.007 17.5284 73.6572 16.3158C75.0806 13.6272 74.2899 10.3938 71.7593 8.65403C70.2129 7.58208 69.756 7.54693 60.4775 7.56451C55.891 7.58208 51.8316 7.65237 51.4626 7.74024ZM69.7736 11.5711C70.8456 12.3444 71.1443 13.7326 70.4414 14.7694C69.633 15.9995 69.7385 15.982 60.8114 15.982C56.4006 15.982 52.5345 15.9292 52.2182 15.8765C51.4626 15.7184 50.5312 14.7694 50.3906 13.9786C50.2325 13.1879 50.7596 11.8875 51.3571 11.5711C52.2182 11.1142 52.9211 11.0791 60.9168 11.1142L69.1761 11.1494L69.7736 11.5711Z" fill="#23BAB1"/>
<path d="M64.6942 52.6398C61.742 53.413 58.983 55.6447 57.7002 58.351C56.7864 60.2313 56.5404 61.5493 56.6458 63.8337C56.7161 65.2571 56.8391 65.8722 57.2257 66.8563C58.5085 70.0721 60.7754 72.2512 64.0264 73.3934C65.6783 73.9909 68.5603 74.0612 70.2297 73.5516C73.8849 72.4621 76.7141 69.6328 77.8037 65.9776C78.2781 64.3785 78.243 61.7601 77.7334 60.0907C76.6087 56.4531 73.4807 53.4657 69.931 52.6222C68.5427 52.3059 65.9595 52.3059 64.6942 52.6398ZM70.3879 56.541C74.9217 58.6673 76.0112 64.4664 72.5845 68.0864C69.105 71.7767 63.1302 70.8629 60.8809 66.294C60.3361 65.1869 60.2307 64.7651 60.1604 63.535C60.0725 61.725 60.3888 60.53 61.3378 59.1066C62.1989 57.8062 63.5344 56.787 65.0281 56.2598C66.6975 55.6799 68.7712 55.7853 70.3879 56.541Z" fill="#23BAB1"/>
<path d="M27.8445 37.0697C27.6336 37.1576 27.3349 37.4212 27.1767 37.6496C26.8428 38.1592 23.381 52.4636 23.3458 53.4653C23.3282 54.0276 23.4161 54.2385 23.8906 54.6602C24.8922 55.5565 26.2981 55.1874 26.7198 53.887C27.124 52.6394 30.2696 39.2312 30.2871 38.7216C30.2871 37.9835 30.006 37.4739 29.3733 37.1576C28.811 36.8588 28.4244 36.8412 27.8445 37.0697Z" fill="#23BAB1"/>
<path d="M16.0891 38.5284C15.351 38.9501 10.3954 44.6965 10.1846 45.3643C9.83311 46.5417 10.1494 47.104 12.9611 50.2671C14.3669 51.8487 15.6849 53.2897 15.8782 53.4478C16.0891 53.6411 16.5284 53.7642 16.9677 53.7642C17.987 53.7642 18.6547 53.0788 18.6547 52.0596C18.6547 51.3918 18.5142 51.1809 16.3703 48.7559C15.1226 47.35 14.0858 46.1199 14.0858 46.0496C14.0858 45.9793 14.5427 45.417 15.105 44.7844C18.7778 40.6371 18.6547 40.7953 18.6547 40.0397C18.6547 38.7041 17.2313 37.8606 16.0891 38.5284Z" fill="#23BAB1"/>
<path d="M35.5579 38.7393C34.9429 39.2665 34.7671 39.9518 35.0835 40.6723C35.2065 40.9535 36.2784 42.2714 37.4382 43.5718C38.5981 44.8722 39.5646 45.9969 39.5646 46.0496C39.5646 46.1199 38.5629 47.2797 37.3504 48.6504C34.7144 51.6203 34.4333 52.288 35.4701 53.3073C35.804 53.6587 36.1027 53.7642 36.6475 53.7642C37.0341 53.7642 37.491 53.6587 37.6491 53.5357C38.4223 52.9558 43.2725 47.2797 43.4482 46.7701C43.8172 45.663 43.5361 45.1007 41.5327 42.8162C40.4959 41.6388 39.1428 40.1451 38.5102 39.4773C37.5085 38.4581 37.2801 38.2999 36.7177 38.2999C36.296 38.2999 35.9094 38.4405 35.5579 38.7393Z" fill="#23BAB1"/>
<path d="M25.6657 65.4501C24.6465 66.0124 24.5938 67.4534 25.5603 68.2793C26.0172 68.6659 26.2281 68.7187 26.808 68.6484C27.7921 68.5078 28.3193 67.8752 28.3193 66.8559C28.3193 66.2233 28.2314 66.03 27.7745 65.6434C27.177 65.1338 26.3862 65.0635 25.6657 65.4501Z" fill="black"/>
</svg>
