<?xml version="1.0" encoding="utf-8"?>
<!-- Generator: Adobe Illustrator 24.0.2, SVG Export Plug-In . SVG Version: 6.00 Build 0)  -->
<svg version="1.1" id="Layer_1" xmlns="http://www.w3.org/2000/svg" xmlns:xlink="http://www.w3.org/1999/xlink" x="0px" y="0px"
	 viewBox="0 0 83 80" style="enable-background:new 0 0 83 80;" xml:space="preserve">
<style type="text/css">
	.st0{fill:#2BA8D7;}
</style>
<path d="M6.15,0.17C3.38,0.82,0.93,3.56,0.27,6.72c-0.36,1.69-0.36,48.21,0,49.88c0.7,3.29,3.16,5.98,6.04,6.58
	c1.07,0.23,11.02,0.24,11.6,0.02c0.99-0.37,1.28-1.82,0.52-2.58l-0.42-0.42l-5.64-0.08c-5.41-0.08-5.66-0.1-6.29-0.44
	c-0.91-0.49-1.93-1.67-2.37-2.79l-0.37-0.91V40.42V24.87l35.22-0.05l35.2-0.03v8.27v8.27h-0.6c-0.75,0-1.91,0.52-2.5,1.07
	l-0.44,0.42l-1.1-0.49c-0.62-0.26-1.28-0.53-1.47-0.58c-0.28-0.08-0.37-0.28-0.45-0.96c-0.19-1.43-0.89-2.45-2.09-3.06
	c-0.78-0.41-3.61-0.58-5.04-0.31c-1.77,0.32-2.93,1.57-3.11,3.31l-0.08,0.86l-1.44,0.62l-1.44,0.62l-0.5-0.44
	c-0.88-0.71-1.46-0.94-2.5-0.94c-0.66,0-1.17,0.1-1.62,0.34c-0.88,0.45-3.57,3.21-3.89,3.95c-0.5,1.23-0.15,3.01,0.81,4.02
	l0.41,0.42l-0.63,1.44l-0.63,1.46l-0.86,0.08c-1,0.11-1.67,0.42-2.27,1.09c-0.86,0.92-1.02,1.43-1.09,3.73l-0.06,2.16h-5.02h-5.02
	l-0.47,0.47c-0.79,0.79-0.57,2.07,0.45,2.59c0.24,0.13,2.53,0.18,7.37,0.18h7.02l0.62,1.46l0.63,1.47l-0.49,0.53
	c-1.02,1.17-1.26,2.85-0.58,4.18c0.42,0.83,3,3.32,3.81,3.69c1,0.45,2.16,0.42,3.18-0.08c0.45-0.23,0.94-0.55,1.09-0.71
	c0.26-0.29,0.32-0.28,1.7,0.29l1.44,0.58l0.18,1.05c0.23,1.36,0.81,2.19,1.94,2.79c0.81,0.42,0.97,0.45,2.97,0.45
	c1.17,0,2.4-0.08,2.74-0.18c1.36-0.42,2.37-1.73,2.53-3.32c0.05-0.49,0.18-0.88,0.28-0.88c0.1,0,0.76-0.26,1.47-0.57l1.28-0.57
	l0.5,0.49c1.02,0.99,2.77,1.26,4.05,0.65c0.84-0.41,3.57-3.16,3.89-3.94c0.52-1.26,0.21-2.95-0.73-3.92l-0.49-0.5l0.57-1.28
	c0.31-0.71,0.57-1.39,0.57-1.51c0-0.11,0.23-0.19,0.58-0.19c1.05,0,1.9-0.36,2.66-1.13c0.96-0.96,1.13-1.59,1.13-4.18
	c0-1.99-0.03-2.16-0.45-2.97c-0.62-1.18-1.49-1.78-2.79-1.91l-1-0.1l-0.37-0.99c-0.21-0.55-0.49-1.22-0.63-1.49
	c-0.23-0.44-0.23-0.5,0-0.7c0.15-0.11,0.47-0.58,0.73-1.04c0.86-1.49,0.6-3.11-0.75-4.6l-0.55-0.6l-0.05-18.23L77.08,7.2l-0.44-1.31
	c-0.76-2.2-2.35-4.23-3.99-5.07c-1.7-0.88,0-0.83-34.23-0.81C20.74,0.02,6.47,0.09,6.15,0.17z M70.57,3.49
	c0.99,0.34,2.04,1.36,2.64,2.59l0.47,0.96l0.05,7.24l0.05,7.26H38.51H3.25l0.05-7.1c0.05-6.92,0.06-7.1,0.42-7.99
	c0.6-1.49,1.8-2.67,3.11-3.08c0.23-0.06,14.49-0.13,31.7-0.13C66.78,3.23,69.89,3.26,70.57,3.49z M63.88,41.83
	c0,0.79,0.1,1.36,0.29,1.75c0.24,0.52,0.42,0.62,1.82,1.07c0.84,0.28,2.14,0.81,2.87,1.17c0.75,0.37,1.51,0.68,1.72,0.68
	c0.45,0,0.94-0.32,1.94-1.28l0.76-0.73l1.22,1.2c0.66,0.66,1.22,1.28,1.22,1.38c0,0.1-0.36,0.53-0.81,0.97
	c-0.44,0.44-0.89,1.04-0.99,1.33c-0.16,0.5-0.11,0.68,0.63,2.2c0.45,0.91,0.97,2.17,1.15,2.8c0.49,1.64,0.81,1.9,2.58,2.01
	l1.41,0.08l0.05,1.6c0.03,1.04-0.02,1.67-0.15,1.81c-0.13,0.16-0.57,0.23-1.44,0.23c-1.69,0-1.93,0.19-2.51,2.06
	c-0.24,0.79-0.76,2.06-1.17,2.84c-0.66,1.28-0.71,1.44-0.55,1.94c0.1,0.31,0.55,0.91,0.99,1.35c0.45,0.44,0.81,0.88,0.81,0.97
	c0,0.21-2.3,2.51-2.53,2.51c-0.08,0-0.55-0.41-1.04-0.89c-1.2-1.22-1.49-1.25-3.21-0.36c-0.78,0.41-2.04,0.92-2.82,1.15
	c-1.86,0.57-2.07,0.83-2.07,2.53c0,0.88-0.06,1.31-0.23,1.44c-0.15,0.13-0.78,0.18-1.82,0.15l-1.6-0.05l-0.08-1.41
	c-0.11-1.77-0.37-2.09-2.01-2.58c-0.63-0.19-1.88-0.71-2.77-1.15c-1.47-0.75-1.65-0.79-2.19-0.63c-0.31,0.1-0.92,0.53-1.38,0.99
	c-0.44,0.44-0.88,0.81-0.97,0.81c-0.1,0-0.7-0.53-1.36-1.2c-1.31-1.31-1.35-1.49-0.36-2.19c0.58-0.42,1.15-1.31,1.15-1.8
	c0-0.21-0.32-1-0.71-1.77c-0.39-0.76-0.88-1.94-1.07-2.61c-0.53-1.77-0.81-2.01-2.56-2.11l-1.41-0.08l-0.05-1.83l-0.05-1.82h1.18
	c0.79,0,1.36-0.1,1.75-0.29c0.52-0.24,0.62-0.42,1.13-1.98c0.32-0.94,0.86-2.2,1.18-2.82c0.32-0.62,0.6-1.26,0.6-1.43
	c0-0.49-0.41-1.13-1.2-1.91c-0.41-0.39-0.75-0.79-0.75-0.88c0-0.28,2.16-2.37,2.43-2.37c0.15,0,0.55,0.29,0.89,0.66
	c0.75,0.76,1.36,1.12,1.93,1.12c0.21,0,1.02-0.32,1.77-0.71c0.76-0.41,1.91-0.89,2.58-1.07c0.81-0.24,1.33-0.5,1.64-0.83
	c0.41-0.44,0.44-0.58,0.44-1.73c0-0.7,0.05-1.33,0.11-1.38c0.05-0.06,0.89-0.11,1.86-0.11h1.75V41.83z"/>
<path class="st0" d="M13.8,7.2c-1,0.28-2.37,1.15-2.87,1.83c-0.91,1.23-1.1,1.83-1.1,3.44c0,1.28,0.06,1.67,0.37,2.28
	c0.6,1.22,1.41,2.03,2.58,2.61c0.96,0.47,1.25,0.53,2.4,0.53c1.09,0,1.46-0.08,2.27-0.45c1.25-0.58,2.38-1.78,2.84-3
	c0.49-1.26,0.41-3.18-0.16-4.33C18.99,7.79,16.25,6.54,13.8,7.2z M16.59,10.8c0.99,0.89,1.02,2.37,0.08,3.24
	c-0.75,0.68-1.52,0.83-2.33,0.44c-1.51-0.75-1.78-2.58-0.55-3.69C14.45,10.17,15.91,10.18,16.59,10.8z"/>
<path class="st0" d="M28.04,7.17c-2.8,0.79-4.52,3.45-4.02,6.22c0.34,1.85,1.44,3.26,3.21,4.08c1.28,0.6,3.1,0.6,4.41-0.02
	c1.17-0.53,2.17-1.52,2.72-2.71c0.36-0.76,0.42-1.13,0.42-2.29c0-1.18-0.06-1.51-0.45-2.3C33.2,7.85,30.39,6.5,28.04,7.17z
	 M30.81,10.83c0.97,0.71,1.02,2.27,0.1,3.19c-0.71,0.71-1.49,0.84-2.4,0.41c-0.88-0.42-1.26-1.05-1.26-2.03
	c0-0.62,0.1-0.84,0.53-1.33C28.61,10.17,29.81,10.07,30.81,10.83z"/>
<path class="st0" d="M47.46,7.14c-3.32,0.78-5.2,4.47-3.86,7.54c0.45,1,1.69,2.25,2.76,2.77l0.91,0.45h8.59c8.59,0,8.59,0,9.38-0.37
	c1.23-0.55,2.09-1.36,2.69-2.48c1.31-2.48,0.58-5.46-1.75-7.07c-1.43-0.99-1.85-1.02-10.4-1C51.54,6.99,47.8,7.06,47.46,7.14z
	 M64.35,10.67c0.99,0.71,1.26,1.99,0.62,2.95c-0.75,1.13-0.65,1.12-8.88,1.12c-4.07,0-7.63-0.05-7.92-0.1
	c-0.7-0.15-1.56-1.02-1.69-1.75c-0.15-0.73,0.34-1.93,0.89-2.22c0.79-0.42,1.44-0.45,8.82-0.42l7.62,0.03L64.35,10.67z"/>
<path class="st0" d="M59.66,48.54c-2.72,0.71-5.27,2.77-6.45,5.27c-0.84,1.73-1.07,2.95-0.97,5.06c0.06,1.31,0.18,1.88,0.53,2.79
	c1.18,2.97,3.27,4.98,6.27,6.03c1.52,0.55,4.18,0.62,5.72,0.15c3.37-1,5.98-3.61,6.98-6.98c0.44-1.47,0.41-3.89-0.06-5.43
	c-1.04-3.35-3.92-6.11-7.2-6.89C63.21,48.24,60.83,48.24,59.66,48.54z M64.91,52.14c4.18,1.96,5.19,7.31,2.03,10.65
	c-3.21,3.4-8.72,2.56-10.79-1.65c-0.5-1.02-0.6-1.41-0.66-2.54c-0.08-1.67,0.21-2.77,1.09-4.08c0.79-1.2,2.03-2.14,3.4-2.63
	C61.51,51.35,63.42,51.44,64.91,52.14z"/>
<path class="st0" d="M25.68,34.19c-0.19,0.08-0.47,0.32-0.62,0.53c-0.31,0.47-3.5,13.66-3.53,14.59c-0.02,0.52,0.06,0.71,0.5,1.1
	c0.92,0.83,2.22,0.49,2.61-0.71c0.37-1.15,3.27-13.52,3.29-13.99c0-0.68-0.26-1.15-0.84-1.44C26.57,33.99,26.21,33.97,25.68,34.19z"
	/>
<path class="st0" d="M14.84,35.53c-0.68,0.39-5.25,5.69-5.45,6.3c-0.32,1.09-0.03,1.6,2.56,4.52c1.3,1.46,2.51,2.79,2.69,2.93
	c0.19,0.18,0.6,0.29,1,0.29c0.94,0,1.56-0.63,1.56-1.57c0-0.62-0.13-0.81-2.11-3.05c-1.15-1.3-2.11-2.43-2.11-2.5
	c0-0.06,0.42-0.58,0.94-1.17c3.39-3.82,3.27-3.68,3.27-4.38C17.2,35.69,15.89,34.91,14.84,35.53z"/>
<path class="st0" d="M32.79,35.72c-0.57,0.49-0.73,1.12-0.44,1.78c0.11,0.26,1.1,1.47,2.17,2.67c1.07,1.2,1.96,2.24,1.96,2.29
	c0,0.06-0.92,1.13-2.04,2.4c-2.43,2.74-2.69,3.35-1.73,4.29c0.31,0.32,0.58,0.42,1.09,0.42c0.36,0,0.78-0.1,0.92-0.21
	c0.71-0.53,5.19-5.77,5.35-6.24c0.34-1.02,0.08-1.54-1.77-3.65c-0.96-1.09-2.2-2.46-2.79-3.08c-0.92-0.94-1.13-1.09-1.65-1.09
	C33.47,35.32,33.12,35.45,32.79,35.72z"/>
<path d="M23.67,60.36c-0.94,0.52-0.99,1.85-0.1,2.61c0.42,0.36,0.62,0.41,1.15,0.34c0.91-0.13,1.39-0.71,1.39-1.65
	c0-0.58-0.08-0.76-0.5-1.12C25.06,60.07,24.33,60,23.67,60.36z"/>
</svg>
