<svg width="76" height="77" viewBox="0 0 76 77" fill="none" xmlns="http://www.w3.org/2000/svg">
<path d="M27.3687 0.233005C26.4372 0.537159 24.8404 2.17198 24.5553 3.14147C24.4032 3.69275 24.3271 5.91687 24.3271 10.6313C24.3271 15.3456 24.4032 17.5698 24.5553 18.121C24.8594 19.1666 26.4372 20.7444 27.4827 21.0485C28.053 21.2196 30.9235 21.2766 38.0141 21.2766C45.1046 21.2766 47.9751 21.2196 48.5454 21.0485C49.5909 20.7444 51.1687 19.1666 51.4729 18.121C51.6059 17.6648 51.701 16.2201 51.701 14.7373V12.152H56.8906C62.8786 12.152 63.8861 12.3041 66.3384 13.5017C71.1668 15.8969 73.8281 21.4857 72.7066 26.8845C71.604 32.1501 67.1368 35.895 61.3008 36.4273L59.9701 36.5413L60.7876 35.6669C61.3578 35.0206 61.586 34.6214 61.586 34.2032C61.586 33.4047 60.8446 32.6824 60.0272 32.6824C59.4949 32.6824 59.1147 32.9865 57.0807 35.0206C53.9631 38.1381 53.9631 37.891 57.0997 40.9896C59.1147 43.0046 59.5329 43.3278 60.0462 43.3278C60.8446 43.3278 61.586 42.6054 61.586 41.807C61.586 41.3888 61.3769 40.9896 60.8256 40.4003L60.0652 39.5829L61.624 39.4308C67.9922 38.8795 73.1058 35.0966 75.1018 29.4888C77.478 22.7404 75.0257 15.4787 69.0567 11.5817C68.2963 11.0685 67.1748 10.4792 66.5665 10.2511C63.9622 9.26256 63.696 9.24355 57.5559 9.14851L51.701 9.07247V6.50617C51.701 3.44563 51.5109 2.72326 50.4273 1.50665C49.0396 -0.0521387 49.2867 -0.0141195 37.938 0.0048901C31.3037 0.0238997 27.8059 0.0999381 27.3687 0.233005ZM48.1842 3.50266L48.6594 3.95889V10.6313V17.3036L48.1842 17.7599L47.728 18.2351H38.0141H28.3002L27.8439 17.7599L27.3687 17.3036V10.6313V3.95889L27.8439 3.50266L28.3002 3.02742H38.0141H47.728L48.1842 3.50266Z" fill="white"/>
<path d="M30.8858 6.54393C29.9353 7.4754 30.6007 9.11023 31.9313 9.11023C32.7107 9.11023 33.4521 8.36886 33.4521 7.58946C33.4521 6.81007 32.7107 6.06869 31.9313 6.06869C31.5702 6.06869 31.171 6.23978 30.8858 6.54393Z" fill="white"/>
<path d="M36.9694 6.54393C36.6652 6.82908 36.4941 7.22828 36.4941 7.58946C36.4941 7.95064 36.6652 8.34985 36.9694 8.63499C37.4256 9.11023 37.4636 9.11023 41.0564 9.11023C44.6493 9.11023 44.6873 9.11023 45.1435 8.63499C45.4477 8.34985 45.6187 7.95064 45.6187 7.58946C45.6187 7.22828 45.4477 6.82908 45.1435 6.54393C44.6873 6.06869 44.6493 6.06869 41.0564 6.06869C37.4636 6.06869 37.4256 6.06869 36.9694 6.54393Z" fill="white"/>
<path d="M30.8854 12.6271C30.5812 12.9122 30.4102 13.3114 30.4102 13.6726C30.4102 14.0338 30.5812 14.433 30.8854 14.7181L31.3416 15.1934H38.014H44.6864L45.1426 14.7181C45.4467 14.433 45.6178 14.0338 45.6178 13.6726C45.6178 13.3114 45.4467 12.9122 45.1426 12.6271L44.6864 12.1518H38.014H31.3416L30.8854 12.6271Z" fill="white"/>
<path d="M14.9178 5.7836C14.1954 6.48695 14.2905 7.24734 15.2219 8.25485L16.0203 9.11028H8.47353H0.926718L0.470488 9.58552C-0.156829 10.1938 -0.156829 11.0683 0.470488 11.6766L0.926718 12.1518H8.47353H16.0203L15.2219 13.0072C14.6707 13.6156 14.4425 14.0148 14.4425 14.433C14.4425 15.2314 15.1839 15.9537 15.9823 15.9537C16.4956 15.9537 16.9138 15.6306 18.9288 13.6156C22.0654 10.517 22.0654 10.7641 18.9478 7.64654C16.9138 5.61251 16.5336 5.30836 16.0013 5.30836C15.5831 5.30836 15.2219 5.47945 14.9178 5.7836Z" fill="white"/>
<path d="M27.3693 27.6065C26.4378 27.9107 24.841 29.5455 24.5559 30.515C24.4228 30.9712 24.3277 32.416 24.3277 33.8797V36.446L18.4918 36.522C12.3327 36.6171 12.0666 36.6361 9.46224 37.6246C8.85393 37.8527 7.73237 38.442 6.97198 38.9553C1.00297 42.8522 -1.44927 50.1139 0.926931 56.8623C2.92294 62.4511 8.05553 66.253 14.4047 66.8043L15.9635 66.9564L15.2031 67.7738C14.6519 68.3631 14.4428 68.7623 14.4428 69.1805C14.4428 69.9789 15.1841 70.7013 15.9825 70.7013C16.4958 70.7013 16.914 70.3781 18.929 68.3631C22.0656 65.2645 22.0656 65.5117 18.948 62.3941C16.914 60.3601 16.5338 60.0559 16.0015 60.0559C15.1841 60.0559 14.4428 60.7783 14.4428 61.5767C14.4428 61.9949 14.6709 62.3941 15.2602 63.0404L16.0586 63.9149L14.6709 63.7818C8.81591 63.2115 4.4247 59.5237 3.32214 54.258C2.18156 48.8403 4.84291 43.2704 9.69036 40.8752C12.1426 39.6776 13.1501 39.5256 19.1571 39.5256H24.3277V42.1109C24.3277 43.5936 24.4228 45.0383 24.5559 45.4946C24.86 46.5401 26.4378 48.1179 27.4833 48.422C28.6049 48.7452 47.4244 48.7452 48.546 48.422C49.5915 48.1179 51.1693 46.5401 51.4734 45.4946C51.7966 44.411 51.7966 31.6176 51.4734 30.553C51.3594 30.1348 50.8842 29.3744 50.4279 28.8802C49.0402 27.3214 49.2873 27.3594 37.9386 27.3784C31.3043 27.3974 27.8065 27.4735 27.3693 27.6065ZM48.1848 30.8762L48.66 31.3324V38.0048V44.6772L48.1848 45.1334L47.7286 45.6086H38.0147H28.3008L27.8445 45.1334L27.3693 44.6772V38.0048V31.3324L27.8445 30.8762L28.3008 30.401H38.0147H47.7286L48.1848 30.8762Z" fill="white"/>
<path d="M30.8858 33.918C29.9353 34.8494 30.6007 36.4843 31.9313 36.4843C32.7107 36.4843 33.4521 35.7429 33.4521 34.9635C33.4521 34.1841 32.7107 33.4427 31.9313 33.4427C31.5702 33.4427 31.171 33.6138 30.8858 33.918Z" fill="white"/>
<path d="M36.9694 33.918C36.6652 34.2031 36.4941 34.6023 36.4941 34.9635C36.4941 35.3247 36.6652 35.7239 36.9694 36.009C37.4256 36.4843 37.4636 36.4843 41.0564 36.4843C44.6493 36.4843 44.6873 36.4843 45.1435 36.009C45.4477 35.7239 45.6187 35.3247 45.6187 34.9635C45.6187 34.6023 45.4477 34.2031 45.1435 33.918C44.6873 33.4427 44.6493 33.4427 41.0564 33.4427C37.4636 33.4427 37.4256 33.4427 36.9694 33.918Z" fill="white"/>
<path d="M30.8854 40.0011C30.5812 40.2862 30.4102 40.6854 30.4102 41.0466C30.4102 41.4078 30.5812 41.807 30.8854 42.0921L31.3416 42.5674H38.014H44.6864L45.1426 42.0921C45.4467 41.807 45.6178 41.4078 45.6178 41.0466C45.6178 40.6854 45.4467 40.2862 45.1426 40.0011L44.6864 39.5258H38.014H31.3416L30.8854 40.0011Z" fill="white"/>
<path d="M27.3687 54.9805C26.4372 55.2846 24.8404 56.9194 24.5553 57.8889C24.4032 58.4402 24.3271 60.6643 24.3271 65.3787C24.3271 70.0931 24.4032 72.3172 24.5553 72.8685C24.8594 73.914 26.4372 75.4918 27.4827 75.796C28.053 75.9671 30.9235 76.0241 38.0521 76.0241C49.2677 76.0241 49.0396 76.0621 50.4273 74.5033C50.8836 74.0091 51.3588 73.2487 51.4729 72.8305C51.796 71.7849 51.796 58.9725 51.4729 57.9269C51.3588 57.5087 50.8836 56.7484 50.4273 56.2541C49.0396 54.6953 49.2868 54.7333 37.938 54.7523C31.3037 54.7714 27.8059 54.8474 27.3687 54.9805ZM48.1842 58.2501L48.6594 58.7063V65.3787V72.0511L48.1842 72.5073L47.728 72.9826H38.0141H28.3002L27.8439 72.5073L27.3687 72.0511V65.3787V58.7063L27.8439 58.2501L28.3002 57.7749H38.0141H47.728L48.1842 58.2501Z" fill="white"/>
<path d="M39.5931 63.5158L36.4945 66.6144L34.9168 65.0366C33.5291 63.6489 33.2629 63.4778 32.6546 63.4778C32.1223 63.4778 31.8562 63.5918 31.5711 63.972C30.7537 64.9985 31.0768 65.6449 33.7191 68.1922C35.8482 70.2262 36.4185 70.5494 37.1219 70.0741C37.9203 69.5609 44.3075 63.2307 44.5736 62.6984C44.9538 61.976 44.9348 61.5198 44.4596 60.9305C44.1744 60.5503 43.9083 60.4362 43.376 60.4362C42.7107 60.4362 42.4636 60.6453 39.5931 63.5158Z" fill="white"/>
</svg>
