<?xml version="1.0" encoding="UTF-8"?>
<svg xmlns="http://www.w3.org/2000/svg" width="71" height="70" viewBox="0 0 71 70" fill="none">
  <path d="M12.6875 1.46626C11.9889 1.69438 10.7912 2.92055 10.5773 3.6477C10.449 4.10395 10.4062 8.66645 10.4062 22.9385V41.6448L10.7627 41.987C11.2189 42.4575 11.8748 42.4575 12.3311 41.987L12.6875 41.6448V27.1588V12.6872H35.5H58.3125V27.1588V41.6448L58.6689 41.987C59.1252 42.4575 59.7811 42.4575 60.2373 41.987L60.5938 41.6448V22.9385C60.5938 8.66645 60.551 4.10395 60.4227 3.6477C60.1945 2.86352 59.0111 1.68012 58.227 1.452C57.4285 1.22387 13.4432 1.22387 12.6875 1.46626ZM57.9561 3.9186C58.3125 4.26079 58.3125 4.26079 58.3125 7.34048V10.4059H35.5H12.6875V7.34048C12.6875 4.26079 12.6875 4.26079 13.0439 3.9186L13.3861 3.56215H35.5H57.6139L57.9561 3.9186Z" fill="black" stroke="black" stroke-width="0.6"></path>
  <path d="M15.3257 6.2002C14.6129 6.89883 15.1119 8.125 16.1099 8.125C16.6945 8.125 17.2506 7.56895 17.2506 6.98438C17.2506 6.3998 16.6945 5.84375 16.1099 5.84375C15.839 5.84375 15.5396 5.97207 15.3257 6.2002Z" fill="#23BAB1"></path>
  <path d="M19.8882 6.2002C19.1754 6.89883 19.6744 8.125 20.6724 8.125C21.257 8.125 21.8131 7.56895 21.8131 6.98438C21.8131 6.3998 21.257 5.84375 20.6724 5.84375C20.4015 5.84375 20.1021 5.97207 19.8882 6.2002Z" fill="#23BAB1"></path>
  <path d="M24.4507 6.2002C23.7379 6.89883 24.2369 8.125 25.2349 8.125C25.8195 8.125 26.3756 7.56895 26.3756 6.98438C26.3756 6.3998 25.8195 5.84375 25.2349 5.84375C24.964 5.84375 24.6646 5.97207 24.4507 6.2002Z" fill="#23BAB1"></path>
  <path d="M40.4189 6.2002C40.1908 6.41406 40.0625 6.71348 40.0625 6.98438C40.0625 7.25527 40.1908 7.55469 40.4189 7.76855L40.7611 8.125H48.0184C54.9334 8.125 55.3041 8.11074 55.6178 7.8541C56.0883 7.46914 56.0883 6.49961 55.6178 6.11465C55.3041 5.85801 54.9334 5.84375 48.0184 5.84375H40.7611L40.4189 6.2002Z" fill="#23BAB1"></path>
  <path d="M3.56295 8.31035C2.86432 8.53848 1.66666 9.76465 1.4528 10.4918C1.21041 11.3187 1.19616 52.809 1.4528 53.6217C1.68092 54.4059 2.49362 55.3041 3.33483 55.6891L4.06198 56.0312H35.5005H66.9389L67.6661 55.6891C68.5073 55.3041 69.32 54.4059 69.5481 53.6217C69.8047 52.809 69.7905 11.3187 69.5481 10.4918C69.32 9.70761 68.1366 8.52422 67.3524 8.29609C67.0245 8.19629 66.0407 8.125 65.171 8.125C63.6739 8.125 63.5598 8.13926 63.2319 8.48145C62.7614 8.93769 62.7614 9.59355 63.2319 10.0498C63.5598 10.392 63.6739 10.4062 65.1567 10.4062C66.6395 10.4062 66.7536 10.4205 67.0815 10.7627L67.438 11.1049V27.8721V44.625H35.5005H3.56295V27.8721V11.1049L3.9194 10.7627C4.24733 10.4205 4.36139 10.4062 5.8442 10.4062C7.32702 10.4062 7.44108 10.392 7.76901 10.0498C8.23952 9.59355 8.23952 8.93769 7.76901 8.48145C7.44108 8.13926 7.35553 8.125 5.7444 8.13926C4.81764 8.15351 3.83385 8.2248 3.56295 8.31035ZM67.438 49.9717C67.438 53.0514 67.438 53.0514 67.0815 53.3936L66.7393 53.75H35.5005H4.26159L3.9194 53.3936C3.56295 53.0514 3.56295 53.0514 3.56295 49.9717V46.9062H35.5005H67.438V49.9717Z" fill="black" stroke="black" stroke-width="0.6"></path>
  <path d="M32.6916 49.3584C32.5205 49.4439 32.3066 49.6863 32.2068 49.9144C31.9929 50.442 32.2638 51.1549 32.7486 51.3402C33.2191 51.5113 38.1523 51.5113 38.4945 51.3259C38.8509 51.1406 39.0791 50.3992 38.9222 49.9857C38.6513 49.2586 38.3519 49.1873 35.5716 49.2015C34.0888 49.2015 32.8769 49.2728 32.6916 49.3584Z" fill="#23BAB1"></path>
  <path d="M38.2232 17.4932C37.9951 17.6786 36.9971 20.5444 34.4307 28.2294C32.5059 33.9895 30.9375 38.8514 30.9375 39.0368C30.9375 39.8495 32.1209 40.3485 32.7768 39.8067C33.0049 39.6356 34.0029 36.7698 36.5693 29.0848C38.4941 23.3247 40.0625 18.4628 40.0625 18.2774C40.0625 17.4647 38.8791 16.9657 38.2232 17.4932Z" fill="#23BAB1"></path>
  <path d="M22.2831 24.8779C20.23 26.6031 18.5476 28.1002 18.4763 28.2998C18.3907 28.5279 18.3907 28.7846 18.4763 29.0127C18.5476 29.2123 20.2015 30.6951 22.2831 32.4346C25.4198 35.0295 26.0472 35.5 26.4321 35.5C27.0595 35.5 27.5157 35.001 27.5157 34.3309C27.5157 33.8318 27.4017 33.7178 24.4931 31.2939C22.8249 29.8967 21.4562 28.7133 21.4562 28.6562C21.4562 28.5992 22.7108 27.5156 24.2364 26.2467C25.762 24.9777 27.1308 23.8086 27.2733 23.6375C27.6298 23.224 27.587 22.5824 27.1593 22.1689C26.4464 21.4418 26.2753 21.5416 22.2831 24.8779Z" fill="#23BAB1"></path>
  <path d="M43.8414 22.1698C43.4564 22.5405 43.3709 23.1821 43.6703 23.5528C43.7558 23.6811 45.1246 24.8503 46.6929 26.162C48.2613 27.4595 49.5445 28.5858 49.5445 28.6571C49.5445 28.7284 48.2613 29.8548 46.6929 31.1522C45.1246 32.4639 43.7558 33.6331 43.6703 33.7614C43.3709 34.1321 43.4564 34.7737 43.8414 35.1444C44.54 35.8573 44.7111 35.7718 48.7603 32.4212C51.1271 30.4536 52.5101 29.1989 52.5529 28.9993C52.6099 28.8139 52.6099 28.5003 52.5529 28.3292C52.5101 28.1153 51.1129 26.8606 48.7603 24.9073C44.7111 21.5425 44.5543 21.4427 43.8414 22.1698Z" fill="#23BAB1"></path>
  <path d="M28.4994 58.4408C28.2998 58.5977 27.8863 59.1537 27.5727 59.6813C27.2732 60.2088 26.5461 61.1498 25.9615 61.7629L24.9207 62.875H23.7088C23.0387 62.875 22.2402 62.9463 21.9408 63.0461C21.1566 63.2742 20.2584 64.0869 19.8734 64.9281C19.574 65.5555 19.5312 65.8691 19.5312 67.3377C19.5312 68.9346 19.5455 69.0344 19.8877 69.3623L20.2299 69.7188H35.5H50.7701L51.1123 69.3623C51.4545 69.0344 51.4688 68.9203 51.4688 67.4232C51.4688 65.3701 51.3119 64.8426 50.3994 63.9443C49.5439 63.0746 48.9594 62.875 47.3482 62.875H46.1791L45.452 62.1906C44.5965 61.4064 43.6412 60.1803 43.2277 59.3818C42.8428 58.6119 42.4293 58.2697 41.8875 58.2697C41.3885 58.2697 40.7754 58.84 40.7754 59.3248C40.7754 59.7383 41.3885 60.8789 42.1869 61.934L42.8998 62.875H35.5H28.1002L28.8131 61.934C29.6115 60.8789 30.2246 59.7383 30.2246 59.3248C30.2246 58.9398 29.6686 58.341 29.2266 58.2412C28.9699 58.1842 28.7418 58.2412 28.4994 58.4408ZM48.8311 65.5127C49.1305 65.7979 49.1875 65.9975 49.1875 66.6533V67.4375H35.5H21.8125V66.6533C21.8125 65.9975 21.8695 65.7979 22.1689 65.5127L22.5111 65.1562H35.5H48.4889L48.8311 65.5127Z" fill="black"></path>
</svg>
