<?xml version="1.0" encoding="UTF-8"?>
<svg xmlns="http://www.w3.org/2000/svg" width="73" height="73" viewBox="0 0 73 73" fill="none">
  <path d="M13.6875 2.46626C12.9889 2.69438 11.7912 3.92055 11.5773 4.6477C11.449 5.10395 11.4062 9.66645 11.4062 23.9385V42.6448L11.7627 42.987C12.2189 43.4575 12.8748 43.4575 13.3311 42.987L13.6875 42.6448V28.1588V13.6872H36.5H59.3125V28.1588V42.6448L59.6689 42.987C60.1252 43.4575 60.7811 43.4575 61.2373 42.987L61.5938 42.6448V23.9385C61.5938 9.66645 61.551 5.10395 61.4227 4.6477C61.1945 3.86352 60.0111 2.68012 59.227 2.452C58.4285 2.22387 14.4432 2.22387 13.6875 2.46626ZM58.9561 4.9186C59.3125 5.26079 59.3125 5.26079 59.3125 8.34048V11.4059H36.5H13.6875V8.34048C13.6875 5.26079 13.6875 5.26079 14.0439 4.9186L14.3861 4.56215H36.5H58.6139L58.9561 4.9186Z" fill="black" stroke="black" stroke-width="0.6"></path>
  <path d="M16.3257 7.2002C15.6129 7.89883 16.1119 9.125 17.1099 9.125C17.6945 9.125 18.2506 8.56895 18.2506 7.98438C18.2506 7.3998 17.6945 6.84375 17.1099 6.84375C16.839 6.84375 16.5396 6.97207 16.3257 7.2002Z" fill="#23BAB1"></path>
  <path d="M20.8882 7.2002C20.1754 7.89883 20.6744 9.125 21.6724 9.125C22.257 9.125 22.8131 8.56895 22.8131 7.98438C22.8131 7.3998 22.257 6.84375 21.6724 6.84375C21.4015 6.84375 21.1021 6.97207 20.8882 7.2002Z" fill="#23BAB1"></path>
  <path d="M25.4507 7.2002C24.7379 7.89883 25.2369 9.125 26.2349 9.125C26.8195 9.125 27.3756 8.56895 27.3756 7.98438C27.3756 7.3998 26.8195 6.84375 26.2349 6.84375C25.964 6.84375 25.6646 6.97207 25.4507 7.2002Z" fill="#23BAB1"></path>
  <path d="M41.4189 7.2002C41.1908 7.41406 41.0625 7.71348 41.0625 7.98438C41.0625 8.25527 41.1908 8.55469 41.4189 8.76855L41.7611 9.125H49.0184C55.9334 9.125 56.3041 9.11074 56.6178 8.8541C57.0883 8.46914 57.0883 7.49961 56.6178 7.11465C56.3041 6.85801 55.9334 6.84375 49.0184 6.84375H41.7611L41.4189 7.2002Z" fill="#23BAB1"></path>
  <path d="M4.56295 9.31035C3.86432 9.53848 2.66666 10.7646 2.4528 11.4918C2.21041 12.3187 2.19616 53.809 2.4528 54.6217C2.68092 55.4059 3.49362 56.3041 4.33483 56.6891L5.06198 57.0312H36.5005H67.9389L68.6661 56.6891C69.5073 56.3041 70.32 55.4059 70.5481 54.6217C70.8047 53.809 70.7905 12.3187 70.5481 11.4918C70.32 10.7076 69.1366 9.52422 68.3524 9.29609C68.0245 9.19629 67.0407 9.125 66.171 9.125C64.6739 9.125 64.5598 9.13926 64.2319 9.48145C63.7614 9.93769 63.7614 10.5936 64.2319 11.0498C64.5598 11.392 64.6739 11.4062 66.1567 11.4062C67.6395 11.4062 67.7536 11.4205 68.0815 11.7627L68.438 12.1049V28.8721V45.625H36.5005H4.56295V28.8721V12.1049L4.9194 11.7627C5.24733 11.4205 5.36139 11.4062 6.8442 11.4062C8.32702 11.4062 8.44108 11.392 8.76901 11.0498C9.23952 10.5936 9.23952 9.93769 8.76901 9.48145C8.44108 9.13926 8.35553 9.125 6.7444 9.13926C5.81764 9.15351 4.83385 9.2248 4.56295 9.31035ZM68.438 50.9717C68.438 54.0514 68.438 54.0514 68.0815 54.3936L67.7393 54.75H36.5005H5.26159L4.9194 54.3936C4.56295 54.0514 4.56295 54.0514 4.56295 50.9717V47.9062H36.5005H68.438V50.9717Z" fill="black" stroke="black" stroke-width="0.6"></path>
  <path d="M33.6916 50.3584C33.5205 50.4439 33.3066 50.6863 33.2068 50.9144C32.9929 51.442 33.2638 52.1549 33.7486 52.3402C34.2191 52.5113 39.1523 52.5113 39.4945 52.3259C39.8509 52.1406 40.0791 51.3992 39.9222 50.9857C39.6513 50.2586 39.3519 50.1873 36.5716 50.2015C35.0888 50.2015 33.8769 50.2728 33.6916 50.3584Z" fill="#23BAB1"></path>
  <path d="M39.2232 18.4932C38.9951 18.6786 37.9971 21.5444 35.4307 29.2294C33.5059 34.9895 31.9375 39.8514 31.9375 40.0368C31.9375 40.8495 33.1209 41.3485 33.7768 40.8067C34.0049 40.6356 35.0029 37.7698 37.5693 30.0848C39.4941 24.3247 41.0625 19.4628 41.0625 19.2774C41.0625 18.4647 39.8791 17.9657 39.2232 18.4932Z" fill="#23BAB1"></path>
  <path d="M23.2831 25.8779C21.23 27.6031 19.5476 29.1002 19.4763 29.2998C19.3907 29.5279 19.3907 29.7846 19.4763 30.0127C19.5476 30.2123 21.2015 31.6951 23.2831 33.4346C26.4198 36.0295 27.0472 36.5 27.4321 36.5C28.0595 36.5 28.5157 36.001 28.5157 35.3309C28.5157 34.8318 28.4017 34.7178 25.4931 32.2939C23.8249 30.8967 22.4562 29.7133 22.4562 29.6562C22.4562 29.5992 23.7108 28.5156 25.2364 27.2467C26.762 25.9777 28.1308 24.8086 28.2733 24.6375C28.6298 24.224 28.587 23.5824 28.1593 23.1689C27.4464 22.4418 27.2753 22.5416 23.2831 25.8779Z" fill="#23BAB1"></path>
  <path d="M44.8414 23.1698C44.4564 23.5405 44.3709 24.1821 44.6703 24.5528C44.7558 24.6811 46.1246 25.8503 47.6929 27.162C49.2613 28.4595 50.5445 29.5858 50.5445 29.6571C50.5445 29.7284 49.2613 30.8548 47.6929 32.1522C46.1246 33.4639 44.7558 34.6331 44.6703 34.7614C44.3709 35.1321 44.4564 35.7737 44.8414 36.1444C45.54 36.8573 45.7111 36.7718 49.7603 33.4212C52.1271 31.4536 53.5101 30.1989 53.5529 29.9993C53.6099 29.8139 53.6099 29.5003 53.5529 29.3292C53.5101 29.1153 52.1129 27.8606 49.7603 25.9073C45.7111 22.5425 45.5543 22.4427 44.8414 23.1698Z" fill="#23BAB1"></path>
  <path d="M29.4994 59.4408C29.2998 59.5977 28.8863 60.1537 28.5727 60.6813C28.2732 61.2088 27.5461 62.1498 26.9615 62.7629L25.9207 63.875H24.7088C24.0387 63.875 23.2402 63.9463 22.9408 64.0461C22.1566 64.2742 21.2584 65.0869 20.8734 65.9281C20.574 66.5555 20.5312 66.8691 20.5312 68.3377C20.5312 69.9346 20.5455 70.0344 20.8877 70.3623L21.2299 70.7188H36.5H51.7701L52.1123 70.3623C52.4545 70.0344 52.4688 69.9203 52.4688 68.4232C52.4688 66.3701 52.3119 65.8426 51.3994 64.9443C50.5439 64.0746 49.9594 63.875 48.3482 63.875H47.1791L46.452 63.1906C45.5965 62.4064 44.6412 61.1803 44.2277 60.3818C43.8428 59.6119 43.4293 59.2697 42.8875 59.2697C42.3885 59.2697 41.7754 59.84 41.7754 60.3248C41.7754 60.7383 42.3885 61.8789 43.1869 62.934L43.8998 63.875H36.5H29.1002L29.8131 62.934C30.6115 61.8789 31.2246 60.7383 31.2246 60.3248C31.2246 59.9398 30.6686 59.341 30.2266 59.2412C29.9699 59.1842 29.7418 59.2412 29.4994 59.4408ZM49.8311 66.5127C50.1305 66.7979 50.1875 66.9975 50.1875 67.6533V68.4375H36.5H22.8125V67.6533C22.8125 66.9975 22.8695 66.7979 23.1689 66.5127L23.5111 66.1562H36.5H49.4889L49.8311 66.5127Z" fill="black"></path>
</svg>
