<?xml version="1.0" encoding="UTF-8"?>
<svg xmlns="http://www.w3.org/2000/svg" width="78" height="78" viewBox="0 0 78 78" fill="none">
  <path d="M2.89453 0.137794C1.84336 0.457718 0.914062 1.24991 0.365625 2.28584C0.0914063 2.80381 0.0761719 3.83975 0.0761719 32.5261V62.2331L0.411328 62.8577C0.594141 63.1929 1.00547 63.7108 1.31016 63.9851C2.51367 65.0362 1.55391 64.9753 16.3465 65.021C28.4121 65.0515 29.707 65.0819 29.707 65.2952C29.707 65.8284 28.732 67.5347 28.0312 68.2354C27.1172 69.1495 25.4566 69.9874 23.9789 70.2921C23.3695 70.414 22.6078 70.6577 22.2574 70.8405C20.475 71.7394 19.2258 74.1159 19.5609 75.9288C19.6828 76.5991 20.4598 77.5132 21.1301 77.7874C21.8613 78.1073 56.1387 78.1073 56.8699 77.7874C57.5402 77.5132 58.3172 76.5991 58.4391 75.9288C58.6828 74.6187 58.0582 72.8667 56.9461 71.7546C56.1234 70.9472 55.377 70.5663 54.0211 70.2921C51.5836 69.7894 49.6184 68.403 48.75 66.5444C48.491 66.0112 48.293 65.4628 48.293 65.3257C48.293 65.0819 49.1309 65.0515 61.6688 65.021C76.4461 64.9753 75.4863 65.0362 76.6898 63.9851C76.9945 63.7108 77.4059 63.1929 77.5887 62.8577L77.9238 62.2331V32.5261V2.81905L77.5887 2.19444C77.1164 1.31084 76.0043 0.381546 75.1816 0.168266C74.4047 -0.0297852 3.53438 -0.0602493 2.89453 0.137794ZM74.9684 3.03233L75.4102 3.47412V29.0069V54.5397H39H2.58984V29.0069V3.47412L3.03164 3.03233L3.47344 2.59053H39H74.5266L74.9684 3.03233ZM75.3797 59.3233C75.4254 61.7304 75.3187 62.0351 74.3895 62.3093C73.9781 62.4312 63.5883 62.4616 38.5734 62.4312L3.32109 62.3854L2.95547 61.9589C2.60508 61.5476 2.58984 61.4257 2.58984 59.43C2.58984 58.2722 2.63555 57.2819 2.69648 57.2362C2.74219 57.1753 19.1191 57.1448 39.0609 57.1601L75.334 57.2058L75.3797 59.3233ZM45.7945 65.996C46.0535 67.0929 46.7086 68.4183 47.516 69.439L48.1406 70.2312H39H29.8594L30.484 69.439C31.2609 68.464 31.9313 67.1538 32.1445 66.1788C32.2512 65.7675 32.3578 65.3409 32.3883 65.2343C32.434 65.0819 33.8355 65.0515 39.0152 65.0819L45.5965 65.1276L45.7945 65.996ZM54.4477 73.1257C55.1484 73.4608 55.6969 74.1769 55.8492 74.9233L55.9406 75.4108H39H22.0594L22.1508 74.9386C22.3031 74.1616 22.8211 73.4761 23.5066 73.1409C24.1465 72.821 24.2379 72.821 38.9848 72.821C53.4879 72.821 53.8535 72.821 54.4477 73.1257Z" fill="black"></path>
  <path d="M6.7793 5.46914C6.04805 5.80429 5.72813 6.13945 5.4082 6.90117C5.21016 7.38867 5.17969 9.91758 5.17969 28.6863V49.923L5.53008 50.5934C5.75859 51.0047 6.10898 51.3855 6.48984 51.5988L7.08398 51.9492H39H70.916L71.5102 51.5988C71.891 51.3855 72.2414 51.0047 72.4699 50.5934L72.8203 49.923V28.6559C72.8203 8.34844 72.8051 7.3582 72.5309 6.7793C72.1957 6.04805 71.8605 5.72812 71.0988 5.4082C70.6113 5.21016 67.0465 5.17969 38.9695 5.17969C8.65313 5.17969 7.3582 5.19492 6.7793 5.46914ZM70.2305 28.5645V49.3594H66.9855H63.7406L63.5578 48.4453C63.2836 47.1352 62.7504 46.6629 60.6785 45.8555C59.7797 45.5051 58.957 45.1395 58.8656 45.048C58.759 44.9414 58.5609 44.4844 58.4238 44.0273C58.2715 43.5703 57.8906 42.6105 57.5555 41.8945L56.9613 40.6148L57.7383 38.8324C58.9113 36.075 58.8199 35.6637 56.4281 33.2566C54.1125 30.9105 53.6098 30.7887 50.8219 31.977L49.0699 32.7387L47.8055 32.1445C47.1047 31.8246 46.1602 31.4438 45.7031 31.2914C45.2461 31.1543 44.7891 30.9715 44.6977 30.9105C44.6063 30.8344 44.2254 30.0117 43.8598 29.0672C43.1285 27.1781 42.5801 26.4773 41.6355 26.2184C40.8891 26.0051 37.1109 26.0051 36.3645 26.2184C35.4199 26.4773 34.8715 27.1781 34.1402 29.0672C33.7594 30.0117 33.3938 30.8344 33.3023 30.8953C33.2109 30.9562 32.7539 31.1238 32.2969 31.2762C31.8398 31.4285 30.8953 31.8246 30.1945 32.1445L28.9301 32.7387L27.1781 31.977C24.3902 30.7887 23.918 30.8953 21.5871 33.2414C19.1801 35.6637 19.0887 36.0293 20.3227 38.9543L21.0387 40.6605L20.5207 41.7727C20.2313 42.382 19.8352 43.3266 19.6371 43.875C19.4543 44.4234 19.241 44.9414 19.1648 45.0328C19.1039 45.1242 18.2812 45.5051 17.3367 45.8707C15.2191 46.6934 14.7164 47.1504 14.4422 48.4453L14.2594 49.3594H11.0145H7.76953V28.5645V7.76953H39H70.2305V28.5645ZM41.7117 30.6973C42.1535 31.7789 42.6258 32.7844 42.7781 32.9215C42.9152 33.0586 43.6465 33.3633 44.393 33.607C45.1547 33.8355 46.4039 34.3535 47.1961 34.7648C48.0035 35.1609 48.7805 35.4961 48.9328 35.4961C49.0852 35.4961 50.1211 35.1152 51.218 34.6582L53.2137 33.8203L53.8688 34.3535C54.2191 34.643 54.8285 35.2523 55.2094 35.7094L55.9102 36.5168L55.0723 38.4516C54.6152 39.518 54.2344 40.5539 54.2344 40.752C54.2344 40.95 54.5391 41.727 54.9199 42.4582C55.3008 43.1895 55.8188 44.4539 56.0777 45.2461C56.3367 46.0383 56.6414 46.8 56.7633 46.9219C56.8852 47.0437 57.8906 47.5312 58.9875 47.9883C60.3434 48.552 61.0289 48.9176 61.0594 49.1004C61.1051 49.3441 60.8613 49.3594 57.8449 49.3594H54.5695L54.3867 48.2473C53.3813 42.2449 49.1156 37.4004 43.3418 35.7246C35.9836 33.5918 28.1836 37.1109 24.9234 44.0426C24.3598 45.2309 23.7047 47.4246 23.5371 48.6281L23.4457 49.3594H20.1855C16.9559 49.3594 16.9254 49.3594 17.032 49.0395C17.1234 48.8109 17.6719 48.5215 19.0277 47.9883C20.0637 47.577 21.0234 47.1352 21.1758 46.998C21.3281 46.8609 21.6633 46.084 21.907 45.2766C22.166 44.4691 22.6992 43.1895 23.0801 42.4582C23.4609 41.727 23.7656 40.9652 23.7656 40.7672C23.7656 40.5691 23.4 39.5332 22.943 38.4516L22.1203 36.4863L22.623 35.877C22.8973 35.5418 23.4914 34.9324 23.9637 34.5363L24.8016 33.8051L26.782 34.643C27.8789 35.1152 28.8996 35.4961 29.0672 35.4961C29.2195 35.4961 29.9965 35.1609 30.8039 34.7648C31.5961 34.3535 32.8453 33.8355 33.607 33.5918C34.3535 33.3633 35.0695 33.0738 35.2066 32.952C35.3438 32.8453 35.7246 32.1141 36.0293 31.3371C36.3492 30.5602 36.7301 29.6461 36.8824 29.2805L37.1719 28.6254L39.0305 28.6711L40.9043 28.7168L41.7117 30.6973ZM40.9043 37.8727C44.9109 38.2992 49.009 41.3613 50.7914 45.2766C51.2789 46.3582 51.675 47.6227 51.873 48.7805L51.9645 49.3594H39H26.0355L26.1422 48.7805C26.6449 45.7945 27.9246 43.357 30.027 41.3461C32.2055 39.2742 34.7039 38.1012 37.5527 37.7965C38.7563 37.6746 39.0914 37.6746 40.9043 37.8727Z" fill="black"></path>
  <path d="M26.4012 10.5129C25.2129 10.7871 24.0703 11.823 23.6285 12.9961C23.5219 13.2551 23.4609 14.8395 23.4609 16.957C23.4609 20.9484 23.5219 21.2227 24.6188 22.2738C25.4262 23.0355 26.2336 23.3555 27.3609 23.3555C29.1434 23.3402 30.6973 22.091 31.0934 20.3543C31.2457 19.684 31.2305 19.425 31.0781 19.0289C30.8496 18.4957 30.1945 18.1453 29.6156 18.252C29.1738 18.3281 28.6406 18.9527 28.6406 19.3793C28.6406 20.5676 27.2543 21.177 26.4012 20.3695C26.066 20.0648 26.0508 19.9734 26.0508 16.9113C26.0508 13.8492 26.066 13.7578 26.4012 13.4531C26.8734 13.0113 27.3152 12.9047 27.8027 13.1332C28.2445 13.3313 28.6406 13.9711 28.6406 14.4738C28.6406 14.9461 29.3109 15.5402 29.8441 15.5402C30.4992 15.5402 30.7582 15.4031 31.002 14.9156C31.2914 14.3672 31.2914 14.1082 30.9867 13.118C30.4383 11.2289 28.3359 10.0406 26.4012 10.5129Z" fill="#23BAB1"></path>
  <path d="M34.9324 10.5877C34.6582 10.7096 34.2926 11.0295 34.125 11.3037C33.8355 11.776 33.8203 12.0654 33.8203 17.1385C33.8203 22.9428 33.8203 22.9885 34.6734 23.3236C35.0848 23.476 35.9684 23.1865 36.1969 22.8361C36.273 22.7143 36.3645 20.7795 36.4102 18.5096L36.4863 14.3963L37.0652 15.1885C37.6289 15.9654 38.3754 16.4529 39 16.4529C39.6246 16.4529 40.3711 15.9654 40.9348 15.1885L41.5137 14.3963L41.5898 18.54C41.666 22.5162 41.6813 22.699 41.9859 23.0189C42.4887 23.5064 43.357 23.476 43.8141 22.9428L44.1797 22.5314V17.1537C44.1797 11.8064 44.1797 11.776 43.8293 11.258C43.616 10.9228 43.2504 10.6639 42.8543 10.5268C41.8336 10.1611 41.2547 10.481 40.0664 12.0654C39.518 12.7967 39.0457 13.3908 39 13.3908C38.9543 13.3908 38.4973 12.8119 37.9641 12.0959C36.7301 10.4201 36.0598 10.1002 34.9324 10.5877Z" fill="#23BAB1"></path>
  <path d="M49.4505 10.6046C48.4146 10.9397 47.3177 12.0519 47.013 13.1183C46.6169 14.4437 46.7388 15.2511 47.5157 16.4851C48.0794 17.3687 49.0392 17.9476 50.3036 18.1456C51.0196 18.2522 51.3548 18.3894 51.6138 18.6788C52.3603 19.5319 51.8118 20.7202 50.6693 20.7202C50.2122 20.7202 49.9989 20.6136 49.6333 20.187C49.3743 19.9128 48.9782 19.6233 48.7345 19.5776C48.2622 19.471 47.47 19.8062 47.3177 20.187C46.6931 21.8323 49.1611 23.7214 51.37 23.3101C52.3146 23.1272 52.8173 22.853 53.5028 22.137C54.2493 21.3601 54.5388 20.6288 54.5388 19.471C54.5388 18.3132 54.1884 17.5058 53.381 16.7288C52.6802 16.0737 52.0251 15.769 50.9435 15.6167C49.679 15.4491 49.1001 14.6569 49.5724 13.7429C49.8161 13.2554 50.5626 12.905 51.0044 13.0573C51.1415 13.103 51.5224 13.3925 51.8271 13.6819C52.5736 14.3979 53.3353 14.4437 53.8685 13.8038C54.356 13.2554 54.3255 12.6765 53.7923 11.9452C52.863 10.696 50.9892 10.1171 49.4505 10.6046Z" fill="#23BAB1"></path>
  <path d="M12.0505 21.2672C11.6239 21.8004 11.6544 22.4402 12.0962 22.9582L12.4618 23.3848H15.6153H18.7688L19.1345 22.9582C19.6067 22.3945 19.6067 21.7242 19.1192 21.252C18.7536 20.8711 18.7536 20.8711 15.5544 20.8711H12.3552L12.0505 21.2672Z" fill="#23BAB1"></path>
  <path d="M58.8812 21.252C58.3937 21.7242 58.3937 22.3945 58.866 22.9582L59.2316 23.3848H62.3851H65.5386L65.9043 22.9582C66.3461 22.4402 66.3765 21.8004 65.95 21.2672L65.6453 20.8711H62.4461C59.2468 20.8711 59.2468 20.8711 58.8812 21.252Z" fill="#23BAB1"></path>
</svg>
