<?xml version="1.0" encoding="UTF-8"?>
<svg xmlns="http://www.w3.org/2000/svg" width="76" height="76" viewBox="0 0 76 76" fill="none">
  <path d="M12.4905 1.17195C7.33596 2.35922 3.20944 6.12377 1.66018 11.0756C0.0240538 16.288 1.48643 22.0362 5.41025 25.7718C6.71336 27.0025 7.65449 27.6685 9.27614 28.4649C10.1159 28.8848 10.3765 29.073 10.3042 29.2468C10.2607 29.3626 10.0725 30.0576 9.88426 30.796C9.26166 33.185 9.04448 35.0673 9.04448 37.9342C9.04448 40.9024 9.26166 42.6398 9.94218 45.2461C10.1738 46.1148 10.3476 46.8532 10.3476 46.8532C10.3331 46.8677 9.76843 47.1428 9.08792 47.4903C5.17858 49.4305 2.38413 52.9634 1.31269 57.3071C1.13894 57.9876 1.06654 58.9287 1.06654 60.449C1.05206 62.2734 1.10998 62.8236 1.39956 63.924C1.86289 65.7194 2.45653 66.9935 2.93434 67.2107C3.42662 67.4279 4.02026 67.2252 4.30984 66.7184C4.49807 66.3565 4.49807 66.2551 4.25193 65.6325C2.80402 61.8969 2.80402 58.5523 4.29536 55.3814C5.96045 51.8195 8.7549 49.4884 12.5774 48.4894C14.9519 47.8668 18.1373 48.1274 20.4395 49.1554C23.2194 50.3861 25.6229 52.7896 26.8392 55.5551C27.7803 57.6835 28.0989 60.9848 27.5631 63.1711C26.651 66.9935 24.1895 70.0197 20.6422 71.6558C18.7744 72.5245 17.7319 72.7417 15.4587 72.7417C13.866 72.7417 13.2868 72.6838 12.3457 72.4232C10.782 71.9743 9.07344 71.1201 7.87168 70.15C6.72784 69.2523 6.1342 69.122 5.61295 69.6722C4.97588 70.3672 5.29441 70.9608 6.98846 72.2205C9.56572 74.1317 13.0117 75.1452 16.3129 74.957C21.5543 74.6529 26.1297 71.6123 28.4898 66.8922C28.8373 66.2117 29.1124 65.647 29.1269 65.6325C29.1269 65.618 29.8653 65.8063 30.7485 66.0234C35.2515 67.1818 40.6811 67.2107 45.0972 66.0958C45.8646 65.8931 46.603 65.7049 46.7333 65.6615C46.9361 65.6036 47.0664 65.7628 47.327 66.4144C48.3984 69.0785 51.2798 72.0467 54.19 73.5091C62.2838 77.5922 72.3612 72.9155 74.6199 64.0253C75.0977 62.1431 75.1267 58.8563 74.6634 57.0465C73.5919 52.8475 70.9712 49.5319 67.1343 47.5627C66.3814 47.1863 65.7588 46.8532 65.7443 46.8532C65.7298 46.8388 65.8601 46.2596 66.0628 45.5791C67.3804 40.7431 67.3659 34.8067 65.9904 30.0576C65.8312 29.5074 65.7153 29.044 65.7443 29.0296C65.7588 29.0151 66.3235 28.7255 66.9895 28.3925C70.7975 26.5102 73.563 23.0932 74.6199 18.9811C75.1267 17.0265 75.1267 13.8121 74.6199 11.843C73.3892 6.99251 69.726 3.12661 64.8321 1.50496C63.6448 1.09955 63.5145 1.08507 60.5608 1.08507C57.6071 1.08507 57.4913 1.09955 56.2895 1.50496C53.2344 2.53297 50.8743 4.19806 48.9342 6.71741C48.384 7.42688 47.2401 9.43946 47.0085 10.091C46.965 10.2069 46.4727 10.12 45.3578 9.8304C42.7516 9.14988 41.0141 8.9327 38.0459 8.9327C35.1791 8.9327 33.2968 9.14988 30.9078 9.77248C30.1694 9.96071 29.4744 10.1489 29.3585 10.1924C29.1993 10.2648 28.9966 9.97519 28.5622 9.09197C26.7089 5.25503 23.2194 2.41714 19.0205 1.31674C18.0649 1.07059 17.4568 1.01268 15.4732 1.02716C14.1556 1.04163 12.809 1.09955 12.4905 1.17195ZM18.4993 3.40171C22.2349 4.38629 25.4202 7.12282 26.8826 10.6412C27.5776 12.2918 27.8093 13.4791 27.8093 15.3469C27.8093 18.0545 27.1143 20.2987 25.594 22.4995C24.7976 23.6579 24.6818 24.2515 25.1596 24.6859C25.5361 25.0334 26.2311 25.0189 26.622 24.6714C27.1288 24.2225 28.0554 22.7746 28.6491 21.515C29.7495 19.1549 30.2273 16.4473 29.9522 14.0148C29.8653 13.233 29.7929 12.538 29.7929 12.4656C29.7929 12.1326 33.3258 11.3797 36.0044 11.1335C38.9147 10.8874 42.6068 11.2493 45.5316 12.1036L46.3279 12.3353L46.2411 12.8999C45.4592 17.7504 47.0953 22.6443 50.5703 25.9021C53.8425 28.9572 58.1283 30.3327 62.6747 29.7825L63.6304 29.6666L63.9489 30.825C65.1941 35.4293 65.1941 40.3666 63.9344 45.0723L63.6448 46.2017L62.6023 46.0858C57.1148 45.4777 52.0761 47.5917 48.9197 51.834C47.4139 53.8466 46.5886 55.9171 46.1976 58.5668C45.9949 59.9133 45.9804 60.4201 46.1252 61.8101C46.2121 62.7222 46.27 63.4896 46.2411 63.5186C46.1108 63.6489 43.2294 64.3004 41.8684 64.5032C39.8558 64.8072 36.2505 64.8072 34.1945 64.5032C32.819 64.3004 29.9811 63.6489 29.8363 63.5041C29.8074 63.4751 29.8508 62.7657 29.9377 61.9404C30.401 57.6546 28.8662 53.3398 25.7533 50.2268C22.5244 47.0125 18.2242 45.5501 13.4751 46.0858L12.447 46.2017L12.2154 45.4053C11.3611 42.495 10.9991 38.8029 11.2453 35.8781C11.4914 33.0837 12.2443 29.6811 12.6063 29.6811C12.7077 29.6811 13.3737 29.7535 14.0832 29.8404C16.5012 30.1155 19.6286 29.5508 21.8294 28.4504C23.176 27.7699 23.4945 27.1183 22.814 26.3944C22.3941 25.9455 22.119 25.9745 20.5987 26.6261C18.3834 27.5817 16.2261 27.9147 14.0832 27.6541C11.5493 27.35 9.07344 26.2062 7.20564 24.4976C3.58589 21.1964 2.2683 16.1143 3.81756 11.452C4.44015 9.58425 5.2365 8.33906 6.84367 6.73189C8.82729 4.74826 10.8688 3.64786 13.4606 3.19901C14.5465 2.9963 17.3844 3.11213 18.4993 3.40171ZM63.7172 3.45963C66.4827 4.18358 69.1324 6.06585 70.754 8.44041C71.4345 9.42498 72.2888 11.3362 72.5929 12.5235C72.9693 14.0148 72.9404 16.9106 72.535 18.4599C70.5513 25.8731 62.4141 29.7825 55.4787 26.6405C52.134 25.1347 49.5568 22.0652 48.5867 18.4599C48.1813 16.8962 48.1523 14.0004 48.5432 12.5235C49.5423 8.6576 52.3367 5.39982 55.8841 3.95192C58.2007 3.01078 61.2848 2.80807 63.7172 3.45963ZM63.2829 48.4314C67.6121 49.3147 71.3187 52.9344 72.535 57.4084C73.0128 59.1894 72.9693 62.0272 72.4481 63.7502C70.5513 70.0341 64.5715 73.7842 58.3021 72.5969C53.6978 71.7282 50.078 68.398 48.6735 63.7502C48.3405 62.6354 48.2826 62.2155 48.2826 60.5214C48.2826 58.2193 48.5722 56.9306 49.4699 55.0918C52.0327 49.8938 57.5057 47.2586 63.2829 48.4314Z" fill="black" stroke="black" stroke-width="0.6"></path>
  <path d="M16.5014 9.06326C15.5747 9.41075 14.5178 10.5401 14.1992 11.5247C13.9531 12.321 13.9386 12.3355 13.4753 12.2631C12.621 12.1183 11.4916 11.4233 10.4202 10.3953C9.50802 9.49763 9.33427 9.39628 8.97229 9.46867C8.11803 9.67138 7.6547 10.8587 7.53887 13.1174C7.42304 15.3616 7.91533 16.7661 9.33427 18.2574L10.1161 19.0683L9.65281 19.1696C9.39219 19.213 8.74063 19.2999 8.19043 19.3578C7.07554 19.4592 6.77148 19.7053 6.77148 20.5017C6.77148 21.0519 7.04659 21.3125 8.14699 21.8048C9.56593 22.4274 11.0138 22.7314 12.5486 22.7314C15.3286 22.7314 17.3122 21.9206 19.151 20.0673C20.9175 18.2864 21.6993 16.6068 21.9744 13.9427C22.0903 12.9292 22.1916 12.4948 22.4667 12.0894C22.988 11.322 23.4368 10.0334 23.3355 9.61346C23.2196 9.19357 22.7563 8.83159 22.3075 8.83159C22.1192 8.83159 21.6559 9.00534 21.2795 9.22253L20.5845 9.61346L19.8605 9.26596C18.9628 8.81711 17.4136 8.73024 16.5014 9.06326ZM19.1945 11.4378C19.846 11.9011 19.875 12.0315 19.8171 13.5373C19.6868 16.7951 17.6597 19.4302 14.6046 20.3279C13.6345 20.6175 12.0418 20.6465 12.4762 20.3714C13.1278 19.9804 13.4318 19.5605 13.4318 19.0683C13.4318 18.5036 13.2436 18.3153 12.1577 17.7362C10.6229 16.9109 9.7976 15.6078 9.69625 13.8413L9.62385 12.6975L10.1161 13.0595C10.8835 13.6386 11.7667 14.044 12.954 14.3481C15.3286 14.9417 16.1828 14.5798 16.1828 12.9436C16.1828 11.2351 17.8045 10.4243 19.1945 11.4378Z" fill="#23BAB1"></path>
  <path d="M45.2413 26.9299C44.9807 27.1326 44.8503 27.3932 44.8214 27.7552C44.7779 28.2764 44.749 28.3054 43.1708 29.1162C40.3763 30.5351 36.1774 31.983 35.7141 31.6935C35.5983 31.6211 34.2083 31.5632 32.6156 31.5632C29.3578 31.5632 28.9958 31.65 28.3877 32.5622C28.0692 33.04 28.0547 33.1558 28.0547 36.5439C28.0547 39.7728 28.0836 40.0623 28.3443 40.5112C28.7642 41.1917 29.4302 41.5537 30.3279 41.5537C30.7333 41.5537 31.1098 41.5971 31.1387 41.655C31.1822 41.7274 31.2835 43.3925 31.3849 45.3906C31.5297 48.4312 31.5876 49.0683 31.8048 49.3723C32.1667 49.8791 32.992 49.937 33.4264 49.5027C33.7739 49.1552 33.7739 49.2855 33.4554 43.3491L33.3685 41.5971L34.8743 41.5247C36.1629 41.4523 36.5394 41.4958 37.5384 41.7853C38.9863 42.2052 39.218 42.2197 39.6089 41.7998C39.9999 41.3799 40.0288 40.6705 39.6669 40.3374C39.4062 40.1058 38.2913 39.7004 37.0751 39.3818L36.4525 39.2226V36.5729V33.9377L37.857 33.5323C39.7537 32.9966 41.7663 32.2292 43.2866 31.4763C43.9816 31.1288 44.6187 30.8392 44.7056 30.8392C44.8069 30.8392 44.8503 32.7939 44.8503 36.6163V42.4079L43.9237 41.9736C42.8957 41.4958 42.3889 41.5102 42.0269 42.0315C41.4767 42.8133 41.8532 43.3635 43.5472 44.2468C44.7779 44.8983 44.8503 44.9562 44.8503 45.4051C44.8503 46.3317 45.8784 46.7951 46.6023 46.2014L46.9498 45.9263L46.9932 36.8914C47.0077 31.9396 46.9932 27.7262 46.9498 27.538C46.834 27.0747 46.3562 26.6403 45.9507 26.6403C45.7625 26.6403 45.444 26.7706 45.2413 26.9299ZM34.2807 36.5584V39.3818H32.2536H30.2265V36.5584V33.735H32.2536H34.2807V36.5584Z" fill="#23BAB1"></path>
  <path d="M61.4885 7.15147C60.3591 7.45553 59.4035 8.30979 58.8823 9.46811C58.6361 10.0473 58.5492 10.554 58.4913 12.1178L58.4189 14.0435H57.5647C56.7973 14.0435 56.6525 14.0869 56.2616 14.4779C55.9141 14.8398 55.8417 14.9991 55.9141 15.3176C56.0733 15.9837 56.5077 16.2153 57.5212 16.2153H58.4479L58.4913 19.6758C58.5348 22.8322 58.5637 23.1653 58.8099 23.4404C59.1574 23.8313 60.0551 23.8603 60.3881 23.4838C60.5908 23.2521 60.6342 22.7309 60.6632 19.7482L60.7066 16.2877L61.8215 16.2153C63.0957 16.1285 63.3997 15.9402 63.4142 15.2018C63.4287 14.8398 63.3273 14.6226 63.0377 14.3765C62.7047 14.1014 62.4875 14.0435 61.6188 14.0435H60.6053L60.6632 12.2336C60.7066 10.7133 60.7645 10.3658 61.0107 10.0328C61.474 9.39572 62.169 9.12062 63.2839 9.12062C63.8341 9.12062 64.3988 9.04822 64.558 8.96135C65.253 8.59937 65.1951 7.44105 64.4567 7.10803C63.9934 6.90533 62.3427 6.91981 61.4885 7.15147Z" fill="#23BAB1"></path>
  <path d="M54.6262 53.0497C54.076 53.2814 53.1493 54.3094 53.0045 54.8307C52.9321 55.0623 52.8887 57.6396 52.8887 60.5933V65.9505L53.2506 66.6021C53.6561 67.3116 54.3076 67.8183 55.1184 68.05C55.8134 68.2382 65.3117 68.2382 66.0067 68.05C66.8175 67.8183 67.469 67.3116 67.8745 66.6021L68.2364 65.9505V60.4485C68.2364 54.4252 68.2509 54.57 67.3387 53.6579C66.5569 52.8615 66.47 52.847 60.5336 52.847C56.3492 52.8615 54.9592 52.9049 54.6262 53.0497ZM65.9198 55.3664C66.1225 55.656 66.137 56.3654 66.108 60.6657C66.0646 65.3714 66.0501 65.6175 65.7895 65.8202C65.3696 66.1243 55.7555 66.1243 55.3356 65.8202C55.075 65.6175 55.0605 65.3714 55.0171 60.6657C54.9881 56.3654 55.0026 55.656 55.2053 55.3664L55.4225 55.0189H60.5625H65.7026L65.9198 55.3664Z" fill="#23BAB1"></path>
  <path d="M59.4174 57.4083C57.6076 58.0454 56.7967 60.2317 57.7089 61.9837C58.9107 64.3004 62.2119 64.3004 63.4136 61.9837C64.8036 59.3196 62.2553 56.3948 59.4174 57.4083ZM61.2852 59.725C62.2988 60.724 60.8509 62.1864 59.8084 61.2163C59.6057 61.0281 59.4754 60.7385 59.4754 60.4924C59.4754 59.9711 60.0545 59.363 60.5613 59.363C60.764 59.363 61.097 59.5223 61.2852 59.725Z" fill="#23BAB1"></path>
  <path d="M12.2873 54.7875C11.5778 55.1784 11.5633 55.3522 11.5488 60.275C11.5488 65.1689 11.5923 65.5164 12.2583 65.8784C12.9967 66.2693 13.4456 66.0811 17.4852 63.7645C19.8308 62.4179 21.5104 61.361 21.6552 61.1438C21.9448 60.6804 21.9592 59.942 21.6552 59.4932C21.3222 58.9864 13.5904 54.5848 13.0546 54.5848C12.823 54.5993 12.4755 54.6861 12.2873 54.7875ZM16.573 58.8706C17.9196 59.6379 19.02 60.2895 19.049 60.304C19.0634 60.3185 18.0209 60.9411 16.7323 61.6795C15.4292 62.4324 14.2274 63.1274 14.0537 63.2432L13.7207 63.4459V60.3764C13.7207 57.7267 13.7496 57.3213 13.9379 57.3937C14.0537 57.4371 15.241 58.1032 16.573 58.8706Z" fill="#23BAB1"></path>
</svg>
