<?xml version="1.0" encoding="UTF-8"?>
<svg xmlns="http://www.w3.org/2000/svg" width="90" height="90" viewBox="0 0 90 90" fill="none">
  <path d="M45.791 0.245982C44.5781 0.773326 43.752 2.35536 44.0156 3.63856C44.1035 4.06044 43.6113 4.95692 40.9043 9.31629L37.6699 14.5018L23.3438 14.5897L9.01758 14.6776L8.15625 15.205C7.62891 15.539 7.10156 16.0663 6.76758 16.5936L6.24023 17.455L6.1875 42.4862L6.15234 67.5175L6.52148 68.3964C6.75 68.8886 7.20703 69.539 7.61133 69.8905C8.98242 71.0507 8.50781 71.0155 24.8203 71.0155H39.5508L39.4277 72.1229C39.0938 75.621 37.6172 78.6268 35.0859 80.9999C34.4707 81.5624 33.873 82.2128 33.7676 82.4061C33.5215 82.8632 33.7676 83.5839 34.2598 83.83C34.4883 83.9706 38.0215 84.0233 45.0352 84.0233C56.6719 84.0233 56.25 84.0585 56.25 82.8807C56.25 82.3534 56.0742 82.1073 54.9141 80.9999C52.2949 78.5038 50.9766 75.7792 50.5371 72.0175L50.4316 71.0155H65.1621C81.4922 71.0155 81.0176 71.0507 82.3887 69.8905C82.793 69.539 83.25 68.8886 83.4785 68.3964L83.8477 67.5175L83.8125 42.4862L83.7598 17.455L83.2324 16.5936C82.8984 16.0663 82.3711 15.539 81.8438 15.205L80.9824 14.6776L71.3496 14.6249L61.7168 14.5897L60.9961 13.5526C59.8535 11.9179 58.2188 10.7929 56.3379 10.371C55.8457 10.2479 55.2305 10.1073 54.9316 10.037C54.4746 9.93153 54.1406 9.45692 52.1191 5.97645C50.8711 3.79676 49.6582 1.72254 49.4297 1.37098C48.709 0.228404 47.0391 -0.29894 45.791 0.245982ZM55.7754 17.1386C60.416 25.1542 64.248 31.9393 64.2832 32.1854C64.3887 32.7128 63.8789 33.0292 63.5273 32.66C63.1758 32.2909 46.4062 3.16395 46.4062 2.91786C46.4062 2.58387 46.6172 2.44325 46.9863 2.49598C47.2324 2.53114 49.6406 6.55653 55.7754 17.1386ZM52.8574 19.1952L60.0996 31.7284L58.9219 31.7811C51.627 32.1151 43.998 32.2733 43.8223 32.0975C43.3477 31.6581 36.9316 20.3202 37.0547 20.1268C38.6895 17.4022 45.4395 6.67958 45.5273 6.67958C45.5801 6.67958 48.8848 12.3222 52.8574 19.1952ZM57.2344 13.3593C58.2891 13.9569 58.9746 14.7128 59.5195 15.8905C59.9766 16.8925 60.2051 18.369 59.9941 18.9491C59.8711 19.2831 59.6074 18.914 57.9727 16.0839C56.9355 14.2909 56.1445 12.8319 56.2148 12.8319C56.2852 12.8319 56.7422 13.0604 57.2344 13.3593ZM35.8418 17.4374C35.4375 18.2284 35.3496 18.2811 34.6816 17.9823C33.5039 17.4901 32.959 17.7186 26.7891 21.287C23.6074 23.1327 20.7949 24.8378 20.5488 25.0663C20.2852 25.3124 19.8633 25.91 19.5996 26.4198C19.002 27.5097 18.8086 29.3905 19.1953 30.4979C19.5469 31.4823 25.4531 41.7128 26.1562 42.539C26.4727 42.9081 27.1758 43.4354 27.7383 43.7167C28.5645 44.121 28.9688 44.2089 30.0762 44.2089C31.2891 44.2089 31.5527 44.1386 32.6953 43.5585C33.416 43.1893 34.0137 42.9257 34.0488 42.9608C34.084 42.996 35.0684 45.2636 36.2109 48.0057C38.5664 53.6132 38.7949 53.9647 40.1484 53.9647C41.0801 53.9647 43.2949 52.91 44.4375 51.9432C46.2832 50.3436 46.1953 48.8319 44.0508 45.914C43.5938 45.2987 43.2773 44.7362 43.3301 44.6307C43.4004 44.5429 43.752 44.3143 44.1387 44.1034C45.0527 43.6464 45.5273 43.1542 45.5273 42.6972C45.5273 42.4862 45.0527 41.2382 44.4551 39.9022L43.3828 37.494L43.8574 37.0194C44.3672 36.5097 44.8242 35.5429 44.8242 34.9804C44.8242 34.6464 44.9297 34.6288 46.5469 34.6112C47.4785 34.6112 51.2227 34.5057 54.8438 34.3827L61.4355 34.1542L61.998 34.5761C63.2285 35.5077 64.6523 35.455 65.8125 34.453C66.5859 33.7675 66.8672 33.0643 66.7617 32.0272C66.6914 31.3241 66.2168 30.3749 64.1426 26.789C62.7539 24.3983 61.6289 22.3065 61.6465 22.1483C61.6465 22.0077 61.8398 21.41 62.0508 20.83C62.3145 20.1093 62.4551 19.3358 62.4727 18.4042L62.4902 17.0507H71.4199H80.3672L80.877 17.5604L81.3867 18.0702V37.7753V57.4804H45H8.61328V37.7753V18.0702L9.12305 17.5604L9.63281 17.0507H22.8516H36.0527L35.8418 17.4374ZM34.1367 20.5136C34.7344 21.1991 42.3809 34.6815 42.3281 34.9452C42.2578 35.3143 31.4473 41.6073 30.6387 41.7655C29.7246 41.9413 28.8457 41.6952 28.2129 41.08C27.8789 40.7636 26.2266 38.1093 24.5391 35.1561C21.709 30.2518 21.4453 29.7245 21.4453 28.9511C21.4453 28.037 21.7266 27.3515 22.3066 26.8241C22.7637 26.4198 33.3984 20.2323 33.6797 20.2147C33.7852 20.2147 33.9961 20.3554 34.1367 20.5136ZM41.9941 40.412C42.6797 41.9589 42.7148 42.0643 42.416 42.2929C41.9414 42.6444 41.7832 42.5038 41.4492 41.4667C41.2031 40.6405 41.0098 38.4784 41.2031 38.6893C41.2383 38.7245 41.6074 39.4979 41.9941 40.412ZM38.8477 41.2557C39.1641 42.7675 40.043 44.5077 41.5371 46.5995C43.1191 48.7968 43.2949 49.1835 42.9961 49.7636C42.6973 50.3612 40.5879 51.5741 40.3242 51.2753C40.2188 51.1698 39.252 48.9374 38.1621 46.3358C36.3164 41.9413 36.2109 41.5897 36.4922 41.414C37.7402 40.6757 38.4258 40.289 38.5312 40.2714C38.6016 40.2538 38.7422 40.7108 38.8477 41.2557ZM81.3867 63.6327V67.3241L80.877 67.8866L80.3672 68.4667H45H9.63281L9.12305 67.8866L8.61328 67.3241V63.6327V59.9413H45H81.3867V63.6327ZM48.0762 71.8417C48.5508 75.7792 49.4297 78.2225 51.2402 80.5956C51.5742 81.035 51.8555 81.4218 51.8555 81.4745C51.8555 81.5272 48.7793 81.5624 45 81.5624C41.1855 81.5624 38.1445 81.4921 38.1445 81.4042C38.1445 81.3163 38.2676 81.1581 38.4082 81.035C38.9004 80.6307 40.2891 78.2401 40.7988 76.9042C41.3965 75.3925 41.8359 73.4237 41.8359 72.3339C41.8359 70.9628 41.6953 71.0155 45 71.0155H47.9707L48.0762 71.8417Z" fill="black"></path>
  <path d="M65.584 21.2518C65.1094 21.7264 65.1094 22.5174 65.584 22.9568C65.8652 23.2205 66.4453 23.326 68.2559 23.5018C70.418 23.6951 70.6113 23.6951 71.0156 23.3963C71.5254 23.0272 71.666 22.2186 71.332 21.744C71.0332 21.3397 70.1543 21.1463 67.834 21.0057C66.0762 20.8826 65.9355 20.9002 65.584 21.2518Z" fill="#23BAB1"></path>
  <path d="M25.0137 29.2324C23.3789 30.1992 23.0273 30.5332 23.0273 31.1484C23.0273 31.7285 23.5723 32.3438 24.1172 32.3438C24.5215 32.3438 26.4375 31.3418 27.3867 30.6387C28.4062 29.8828 28.0195 28.459 26.7891 28.4766C26.5078 28.4941 25.7168 28.8281 25.0137 29.2324Z" fill="#23BAB1"></path>
  <path d="M26.9825 32.625C26.2091 33.082 25.4356 33.5566 25.2774 33.7148C24.5567 34.3301 25.1544 35.6836 26.1388 35.6836C26.6134 35.6836 29.2852 34.2422 29.672 33.7852C30.2169 33.0996 29.6368 31.8164 28.7755 31.8164C28.5645 31.8164 27.756 32.1855 26.9825 32.625Z" fill="#23BAB1"></path>
  <path d="M30.0586 35.3846C28.0371 36.4569 27.0703 37.1424 26.9648 37.5467C26.8066 38.162 27.1406 38.8124 27.7031 39.0233C28.2129 39.2167 29.0039 38.9003 30.9023 37.6874C31.7109 37.16 31.8164 37.0194 31.8164 36.5096C31.8164 35.4549 30.9551 34.91 30.0586 35.3846Z" fill="#23BAB1"></path>
  <path d="M43.6816 61.2773C42.4688 61.9102 41.8359 62.877 41.8359 64.1426C41.8359 65.9883 43.1895 67.3242 45.0879 67.3242C46.0723 67.3242 46.7051 67.0078 47.4258 66.1992C48.7441 64.7051 48.2344 62.2969 46.4062 61.3301C45.668 60.9258 44.4023 60.9082 43.6816 61.2773ZM45.5273 63.7207C45.6504 63.8789 45.7031 64.1602 45.6328 64.4238C45.5273 64.8105 45.4395 64.8809 44.9473 64.8281C44.5078 64.793 44.3672 64.6875 44.332 64.3711C44.209 63.5977 45.0527 63.1406 45.5273 63.7207Z" fill="#23BAB1"></path>
  <path d="M58.2363 0.738324C57.7441 1.28325 55.8633 5.37895 55.8633 5.90629C55.8633 6.87309 57.041 7.38286 57.7969 6.71489C58.1484 6.39848 60.293 1.95121 60.293 1.52934C60.293 1.38871 60.1348 1.07231 59.9238 0.808637C59.4668 0.228559 58.7285 0.193402 58.2363 0.738324Z" fill="#23BAB1"></path>
  <path d="M65.1446 10.5996C63.9141 11.3203 63.1758 11.8652 63.0704 12.1289C62.7891 12.9199 63.334 13.7109 64.1602 13.7109C64.7051 13.7109 67.9043 11.9707 68.4317 11.373C68.836 10.916 68.8184 10.3535 68.379 9.87891C67.7989 9.26367 67.2012 9.4043 65.1446 10.5996Z" fill="#23BAB1"></path>
  <path d="M57.8144 77.3085C56.9707 77.5722 56.6542 78.7675 57.2695 79.33C57.4628 79.5058 58.4648 79.7343 60.1171 79.9804C65.4433 80.7363 70.4882 82.3359 70.4882 83.2323C70.4882 83.9355 69.082 84.5859 65.83 85.4296C54.2285 88.4531 32.4843 88.1718 22.1484 84.8671C20.0742 84.1991 19.248 83.5839 19.7226 83.0214C19.9863 82.705 21.6386 81.8613 22.5878 81.5624C23.8359 81.1581 24.2753 80.5077 23.8183 79.6464C23.4843 78.9784 22.9042 78.873 21.7617 79.2597C17.3496 80.7714 15.873 83.0741 18.0175 85.1484C20.2851 87.3632 26.0859 88.8398 35.8593 89.6835C39.7968 90.0175 50.9765 89.9648 55.1777 89.5781C68.1152 88.4003 74.4433 85.7109 72.6328 82.1425C71.6308 80.1738 67.5703 78.6093 60.9082 77.6249C58.4648 77.2558 58.0957 77.2206 57.8144 77.3085Z" fill="#23BAB1"></path>
  <path d="M28.4765 77.7305C26.8769 77.9766 26.3847 78.1348 26.1562 78.416C25.4706 79.2246 26.0331 80.332 27.123 80.332C28.248 80.332 31.0077 79.7871 31.3241 79.5059C31.957 78.9434 31.623 77.7656 30.7616 77.4844C30.621 77.4316 29.5839 77.5371 28.4765 77.7305Z" fill="#23BAB1"></path>
</svg>
