<?xml version="1.0" encoding="UTF-8"?>
<svg xmlns="http://www.w3.org/2000/svg" width="67" height="67" viewBox="0 0 67 67" fill="none">
  <path d="M2.91862 0.247656C1.97643 0.561718 1.25671 1.09824 0.785614 1.81797C-0.0126277 3.00879 -0.0126278 3.06113 0.0266301 10.7426L0.0658879 17.7305L0.406122 18.4633C0.837958 19.3924 1.5446 20.099 2.4737 20.5309L3.20651 20.8711H33.5005H63.7944L64.5272 20.5309C65.4563 20.099 66.163 19.3924 66.5948 18.4633L66.935 17.7305V10.4678V3.20508L66.5948 2.47227C66.163 1.54316 65.4563 0.836523 64.5272 0.404686L63.7944 0.0644531L33.6967 0.0382805C4.99929 0.0121078 3.57292 0.0121078 2.91862 0.247656ZM63.6897 2.30215C63.9383 2.41992 64.2917 2.73398 64.488 2.98262L64.8413 3.44062V10.4678V17.4949L64.488 17.9529C63.7421 18.9213 66.6079 18.8428 33.5005 18.8428C0.393036 18.8428 3.25886 18.9213 2.51296 17.9529L2.15964 17.4949V10.4678V3.44062L2.51296 2.98262C3.24577 2.01426 0.353778 2.09277 33.4743 2.09277C60.7977 2.09277 63.271 2.10586 63.6897 2.30215Z" fill="black" stroke="black" stroke-width="0.6"></path>
  <path d="M54.2415 7.64219C53.4564 8.00859 52.9722 8.50586 52.6189 9.29102C52.1347 10.3641 52.3833 11.6988 53.2339 12.6148C53.7312 13.1383 54.7781 13.6094 55.4847 13.6094C56.1914 13.6094 57.2382 13.1383 57.7355 12.6148C58.6253 11.6596 58.8478 10.351 58.3113 9.22559C57.5392 7.58984 55.7857 6.90938 54.2415 7.64219Z" fill="#23BAB1"></path>
  <path d="M7.89149 9.57695C7.73446 9.65547 7.53817 9.87793 7.44657 10.0873C7.25028 10.5715 7.47274 11.1604 7.93075 11.3697C8.1663 11.4744 11.2546 11.5137 18.8444 11.5137C26.4343 11.5137 29.5225 11.4744 29.7581 11.3697C30.2161 11.1604 30.4386 10.5715 30.2423 10.0873C30.1507 9.89102 29.9282 9.65547 29.7581 9.56387C29.3132 9.36758 8.31024 9.38066 7.89149 9.57695Z" fill="#23BAB1"></path>
  <path d="M2.91862 23.2789C1.97643 23.593 1.25671 24.1295 0.785614 24.8492C-0.0126277 26.04 -0.0126278 26.0924 0.0266301 33.7738L0.0658879 40.7617L0.406122 41.4945C0.837958 42.4236 1.5446 43.1303 2.4737 43.5621L3.20651 43.9023H33.5005H63.7944L64.5272 43.5621C65.4563 43.1303 66.163 42.4236 66.5948 41.4945L66.935 40.7617V33.499V26.2363L66.5948 25.5035C66.163 24.5744 65.4563 23.8678 64.5272 23.4359L63.7944 23.0957L33.6967 23.0695C4.99929 23.0434 3.57292 23.0434 2.91862 23.2789ZM63.6897 25.3334C63.9383 25.4512 64.2917 25.7652 64.488 26.0139L64.8413 26.4719V33.499V40.5262L64.488 40.9842C63.7421 41.9525 66.6079 41.874 33.5005 41.874C0.393036 41.874 3.25886 41.9525 2.51296 40.9842L2.15964 40.5262V33.499V26.4719L2.51296 26.0139C3.24577 25.0455 0.353778 25.124 33.4743 25.124C60.7977 25.124 63.271 25.1371 63.6897 25.3334Z" fill="black" stroke="black" stroke-width="0.6"></path>
  <path d="M54.2415 30.6734C53.4564 31.0398 52.9722 31.5371 52.6189 32.3223C52.1347 33.3953 52.3833 34.7301 53.2339 35.6461C53.7312 36.1695 54.7781 36.6406 55.4847 36.6406C56.1914 36.6406 57.2382 36.1695 57.7355 35.6461C58.6253 34.6908 58.8478 33.3822 58.3113 32.2568C57.5392 30.6211 55.7857 29.9406 54.2415 30.6734Z" fill="#23BAB1"></path>
  <path d="M7.89149 32.6088C7.73446 32.6873 7.53817 32.9098 7.44657 33.1191C7.25028 33.6033 7.47274 34.1922 7.93075 34.4016C8.38876 34.6109 29.3001 34.6109 29.7581 34.4016C29.9282 34.31 30.1507 34.0744 30.2423 33.8781C30.4386 33.3939 30.2161 32.8051 29.7581 32.5957C29.3132 32.3994 8.31024 32.4125 7.89149 32.6088Z" fill="#23BAB1"></path>
  <path d="M2.91862 46.3102C1.97643 46.6242 1.25671 47.1607 0.785614 47.8805C-0.0126277 49.0713 -0.0126278 49.1236 0.0266301 56.8051L0.0658879 63.793L0.406122 64.5258C0.602411 64.9314 0.968817 65.4811 1.24362 65.7559C1.51843 66.0307 2.06804 66.3971 2.4737 66.5934L3.20651 66.9336H33.5005H63.7944L64.5272 66.5934C65.4563 66.1615 66.163 65.4549 66.5948 64.5258L66.935 63.793V56.5303V49.2676L66.5948 48.5348C66.163 47.6057 65.4563 46.899 64.5272 46.4672L63.7944 46.127L33.6967 46.1008C4.99929 46.0746 3.57292 46.0746 2.91862 46.3102ZM63.6897 48.3646C63.9383 48.4824 64.2917 48.7965 64.488 49.0451L64.8413 49.5031V56.5303V63.5574L64.488 64.0154C63.7421 64.9838 66.6079 64.9053 33.5005 64.9053C0.393036 64.9053 3.25886 64.9838 2.51296 64.0154L2.15964 63.5574V56.5303V49.5031L2.51296 49.0451C3.24577 48.0768 0.353778 48.1553 33.4743 48.1553C60.7977 48.1553 63.271 48.1684 63.6897 48.3646Z" fill="black" stroke="black" stroke-width="0.6"></path>
  <path d="M54.2412 53.7028C53.4561 54.0692 52.9719 54.5665 52.6186 55.3516C51.9381 56.8565 52.6448 58.61 54.2412 59.3559C55.0918 59.7616 55.877 59.7616 56.7276 59.3559C58.3633 58.5838 59.0438 56.8303 58.311 55.2862C57.5389 53.6504 55.7854 52.97 54.2412 53.7028Z" fill="#23BAB1"></path>
  <path d="M7.89149 55.64C7.73446 55.7186 7.53817 55.941 7.44657 56.1504C7.25028 56.6346 7.47274 57.2234 7.93075 57.4328C8.38876 57.6422 29.3001 57.6422 29.7581 57.4328C30.2161 57.2234 30.4386 56.6346 30.2423 56.1504C30.1507 55.9541 29.9282 55.7186 29.7581 55.627C29.3132 55.4307 8.31024 55.4437 7.89149 55.64Z" fill="#23BAB1"></path>
</svg>
