<?xml version="1.0" encoding="UTF-8"?>
<svg xmlns="http://www.w3.org/2000/svg" width="82" height="82" viewBox="0 0 82 82" fill="none">
  <g clip-path="url(#clip0_1658_958)">
    <path d="M38.2772 0.17617C34.0812 0.640625 30.0292 2.29024 26.5058 4.96484C20.6921 9.38516 17.1366 16.4961 17.1366 23.7031V25.577L16.0956 25.7531C13.1968 26.2336 10.9386 28.4117 10.4101 31.2145C10.2019 32.3355 10.2019 36.0672 10.4101 37.1723C11.0667 40.6797 14.5101 43.066 18.4339 42.7137C19.5069 42.6176 20.0995 42.2812 20.3237 41.6086C20.4358 41.2723 20.4999 38.0691 20.4999 31.9352C20.4999 22.8063 20.564 21.3809 21.0925 19.1387C22.2136 14.2859 25.3847 9.7375 29.5487 6.9668C33.1683 4.56445 36.6757 3.50742 40.9999 3.50742C45.3241 3.50742 48.8315 4.56445 52.4511 6.9668C55.3499 8.90469 58.2808 12.3 59.498 15.1348C61.0835 18.8184 61.3237 20.0195 61.4679 24.7121L61.58 28.0594L62.1085 28.5238C62.573 28.9402 62.7331 28.9883 63.7421 28.9883C65.6159 28.9883 66.4167 29.2445 67.2815 30.1094C68.2425 31.0703 68.4507 31.9352 68.3546 34.7379C68.3065 36.5156 68.2425 36.8359 67.9062 37.4766C67.4097 38.3414 66.4167 39.0781 65.5358 39.1902L64.8632 39.2863V36.3875V33.5047L64.3667 33.0082C63.694 32.3355 62.8452 32.3195 62.1085 32.9762L61.58 33.4406L61.4839 39.2703C61.3878 45.3563 61.3237 45.8848 60.539 48.0148C59.0175 52.0828 55.7023 55.4621 51.6983 57.0156C50.4491 57.5121 48.6073 57.8965 46.9097 58.0406L45.8687 58.1367L45.5964 57.5762C44.6515 55.6062 42.2812 54.373 40.1671 54.7734C36.4835 55.4781 34.7538 59.466 36.7718 62.573C37.6847 63.9984 39.2382 64.8633 40.8558 64.8633C41.5444 64.8633 41.7366 64.7832 42.137 64.3988C42.3933 64.1426 42.6175 63.7582 42.6175 63.55C42.6815 62.3168 42.3612 61.9004 40.9999 61.5C39.6386 61.0996 39.3183 60.6832 39.3823 59.45C39.3823 59.2418 39.6065 58.8574 39.8628 58.6012C40.2312 58.2488 40.4874 58.1367 40.9839 58.1367C41.8647 58.1367 42.3933 58.6332 42.6815 59.7223C42.8097 60.2188 43.098 60.7793 43.3222 61.0035C43.7065 61.3879 43.8507 61.4199 45.4522 61.468C55.446 61.7723 64.1585 54.0207 64.8151 44.2352C64.9272 42.6016 64.8151 42.7297 66.2085 42.5375C67.2495 42.3934 68.819 41.5605 69.7159 40.6477C70.6769 39.6867 71.3495 38.4375 71.5898 37.1723C71.798 36.0672 71.798 32.3355 71.5898 31.2145C71.0612 28.4117 68.803 26.2336 65.9042 25.7531L64.8632 25.577V23.7031C64.8632 16.4961 61.3077 9.38516 55.494 4.96484C50.4812 1.15313 44.4753 -0.512497 38.2772 0.17617ZM17.1366 34.2254V39.2863L16.464 39.1902C15.5831 39.0781 14.5901 38.3414 14.0937 37.4766C13.7573 36.8359 13.6933 36.5156 13.6452 34.7379C13.5491 31.9352 13.7573 31.0703 14.7343 30.0934C15.2948 29.5328 15.6792 29.2926 16.1917 29.1965C16.5761 29.1004 16.9444 29.0684 17.0245 29.1004C17.0886 29.1324 17.1366 31.4387 17.1366 34.2254Z" fill="#23BAB1"></path>
    <path d="M5.44551 10.4271C2.88301 10.9236 0.656836 13.1978 0.160352 15.8564C-0.0638672 17.0096 -0.0638672 64.9764 0.160352 66.1615C0.672851 68.9002 2.89902 71.0943 5.68574 71.6068C6.91894 71.831 7.57558 71.6869 8.07207 71.0943C8.68066 70.3896 8.64863 69.5248 7.99199 68.8842C7.71973 68.6119 7.36738 68.3877 7.20723 68.3877C7.03105 68.3877 6.53457 68.3076 6.07012 68.2115C4.88496 67.9553 3.7959 66.8662 3.53965 65.681C3.2834 64.4959 3.2834 17.506 3.53965 16.3209C3.68379 15.6642 3.87598 15.3279 4.48457 14.7353C5.52559 13.6783 5.95801 13.6142 11.4674 13.6142H16.0478L16.5123 13.1498C17.3771 12.2849 17.0889 10.8115 15.9838 10.4271C15.3912 10.2189 6.51855 10.2189 5.44551 10.4271Z" fill="black"></path>
    <path d="M65.9043 10.4749C64.8793 10.9233 64.6711 12.3167 65.4879 13.1495L65.9523 13.6139H70.5328C76.0422 13.6139 76.4746 13.678 77.5156 14.735C78.1242 15.3276 78.3164 15.6639 78.4605 16.3206C78.7168 17.5057 78.7168 64.4956 78.4605 65.6807C78.2043 66.8659 77.1152 67.955 75.9301 68.2112C75.3375 68.3393 67.666 68.3874 49.1359 68.3874H23.1746L19.2828 72.2471L15.391 76.1229L15.343 72.7276L15.2949 69.3163L14.7664 68.8518C14.0297 68.1952 13.1809 68.2112 12.5082 68.8839L12.0117 69.3803V75.1139V80.8475L12.4281 81.344C12.9246 81.9526 13.7094 82.1288 14.35 81.7925C14.6062 81.6483 17.0086 79.3421 19.6992 76.6514L24.584 71.7507H50.0648C66.5129 71.7507 75.85 71.6866 76.3945 71.5905C79.1172 71.078 81.3273 68.8678 81.8398 66.1612C82.0641 64.976 82.0641 17.0093 81.8398 15.8561C81.3273 13.1335 79.1172 10.9233 76.4105 10.4108C75.0812 10.1706 66.4969 10.2186 65.9043 10.4749Z" fill="black"></path>
  </g>
  <defs>
    <clipPath id="clip0_1658_958">
      <rect width="82" height="82" fill="white"></rect>
    </clipPath>
  </defs>
</svg>
