<?xml version="1.0" encoding="UTF-8"?>
<svg xmlns="http://www.w3.org/2000/svg" width="82" height="82" viewBox="0 0 82 82" fill="none">
  <path d="M39.5106 0.176163C38.5977 0.384369 37.3645 1.07304 36.5797 1.79374C35.9231 2.40234 34.7539 4.38828 34.7539 4.90077C34.7539 5.09296 33.3125 5.12499 26.1856 5.12499C18.5141 5.12499 17.6172 5.09296 17.6172 4.86874C17.6172 4.43632 15.9996 2.96288 15.2789 2.75468C13.8535 2.33827 12.6684 2.61053 11.5313 3.63554C9.8336 5.15702 9.80157 7.41522 11.4512 9.04882C12.5723 10.1859 13.7734 10.5062 15.2789 10.0578C15.9996 9.8496 17.6172 8.37616 17.6172 7.94374C17.6172 7.71952 18.1777 7.68749 22.55 7.68749H27.4668L25.7852 8.45624C22.6621 9.88163 19.7793 11.7394 17.0566 14.0937C11.0508 19.2988 6.72657 26.698 5.26914 34.2894C5.07696 35.2984 4.90078 36.2113 4.86875 36.3074C4.83672 36.4676 4.34024 36.5156 3.12305 36.5156C1.5375 36.5156 1.40938 36.5476 1.04102 36.916L0.640627 37.3004V41.6086C0.640627 47.0059 0.480471 46.6535 3.05899 46.7656L4.86875 46.8457L5.07696 48.1269C5.97383 53.5562 8.55235 59.3859 12.0438 63.9344C17.5371 71.0453 25.9293 76.1383 34.5137 77.5637L35.7949 77.7719L35.875 79.5816C35.9871 82.1602 35.6348 82 41 82C46.3652 82 46.0129 82.1602 46.125 79.5816L46.2051 77.7719L47.4863 77.5637C48.191 77.4516 49.6645 77.1152 50.7695 76.8109C63.0535 73.4797 72.8391 63.6941 76.1703 51.4102C76.4746 50.3051 76.8109 48.8316 76.9231 48.1269L77.1313 46.8457L78.941 46.7656C81.5195 46.6535 81.3594 47.0059 81.3594 41.6086V37.3004L80.959 36.916C80.5906 36.5476 80.4625 36.5156 78.877 36.5156C77.6598 36.5156 77.1633 36.4676 77.1313 36.3074C77.0992 36.2113 76.9231 35.2824 76.7309 34.2734C76.1063 31.1023 74.7449 27.3227 73.1754 24.4078C69.4277 17.441 63.3418 11.7074 56.2469 8.47226L54.5332 7.68749H59.434H64.3508L64.543 8.16796C64.9914 9.25702 66.609 10.25 67.9383 10.25C69.4758 10.25 71.2055 8.95273 71.5899 7.51132C71.8301 6.66249 71.718 5.34921 71.3656 4.67655C70.5168 3.04296 68.5469 2.21014 66.7531 2.75468C65.9844 2.9789 64.8152 3.97186 64.543 4.64452L64.3508 5.12499H55.7984C48.6715 5.12499 47.2461 5.09296 47.2461 4.90077C47.2461 4.78867 46.9898 4.18007 46.6856 3.55546C45.3402 0.896866 42.3934 -0.49649 39.5106 0.176163ZM42.1852 2.75468C43.5625 3.17108 44.8438 4.9328 44.8438 6.40624C44.8438 8.39218 42.9859 10.25 41 10.25C39.0141 10.25 37.1563 8.39218 37.1563 6.40624C37.1563 5.39725 37.5246 4.58046 38.3574 3.76366C39.4785 2.62656 40.6797 2.32226 42.1852 2.75468ZM14.9746 5.52538C15.7754 6.31015 15.2148 7.68749 14.0938 7.68749C13.4371 7.68749 12.8125 7.06288 12.8125 6.40624C12.8125 5.7496 13.4371 5.12499 14.0938 5.12499C14.3981 5.12499 14.7344 5.26913 14.9746 5.52538ZM68.7871 5.52538C69.0434 5.76562 69.1875 6.10194 69.1875 6.40624C69.1875 6.71054 69.0434 7.04687 68.7871 7.2871C68.5469 7.54335 68.2106 7.68749 67.9063 7.68749C67.602 7.68749 67.2656 7.54335 67.0254 7.2871C66.7691 7.04687 66.625 6.71054 66.625 6.40624C66.625 6.10194 66.7691 5.76562 67.0254 5.52538C67.2656 5.26913 67.602 5.12499 67.9063 5.12499C68.2106 5.12499 68.5469 5.26913 68.7871 5.52538ZM35.3625 9.36913C36.0191 10.6344 37.0121 11.5633 38.4055 12.2199C39.3824 12.6844 39.6227 12.7324 41 12.7324C42.3773 12.7324 42.6176 12.6844 43.5945 12.2199C44.9879 11.5633 45.9809 10.6344 46.6375 9.36913C46.9738 8.71249 47.2621 8.32812 47.4383 8.32812C47.5824 8.32812 48.5274 8.53632 49.5203 8.79257C60.0426 11.5152 68.5309 19.0586 72.5988 29.3086C73.3516 31.1984 74.2164 34.2254 74.4086 35.6988L74.5207 36.5156H73.2074C72.0223 36.5156 71.8621 36.5476 71.5098 36.916L71.1094 37.3004V41.6406V45.9809L71.5098 46.3652C71.8621 46.7176 72.0223 46.7656 73.1914 46.7656C74.7129 46.7656 74.6649 46.6055 74.0563 49.2961C72.3746 56.7914 67.9703 63.7102 61.8203 68.4988C58.1207 71.3816 53.268 73.6719 48.6555 74.6969C45.9649 75.3055 46.125 75.3535 46.125 73.832C46.125 72.6629 46.077 72.5027 45.7246 72.1504L45.3402 71.75H41H36.6598L36.2754 72.1504C35.9231 72.5027 35.875 72.6629 35.875 73.832C35.875 75.3535 36.0352 75.3055 33.3445 74.6969C29.5809 73.848 25.3367 72.0223 22.0856 69.8602C14.9266 65.0715 9.81758 57.6242 7.94375 49.2961C7.33516 46.6055 7.28711 46.7656 8.8086 46.7656C9.97774 46.7656 10.1379 46.7176 10.4902 46.3652L10.8906 45.9809V41.6406V37.3004L10.4902 36.916C10.1379 36.5637 9.97774 36.5156 8.8086 36.5156C7.28711 36.5156 7.33516 36.6598 7.92774 34.0652C10.6984 21.8133 20.2277 12.0117 32.4316 8.80859C33.4086 8.55234 34.3375 8.34413 34.5137 8.32812C34.7539 8.32812 34.9781 8.60038 35.3625 9.36913ZM8.32813 41.6406V44.2031H5.76563H3.20313V41.6406V39.0781H5.76563H8.32813V41.6406ZM78.7969 41.6406V44.2031H76.2344H73.6719V41.6406V39.0781H76.2344H78.7969V41.6406ZM43.5625 76.875V79.4375H41H38.4375V76.875V74.3125H41H43.5625V76.875Z" fill="black" stroke="black" stroke-width="0.6"></path>
  <path d="M37.6527 15.6473C37.3164 15.9516 25.625 43.066 25.625 43.5785C25.625 43.7227 26.7621 46.3813 28.1395 49.4883L30.6539 55.1418L29.4207 58.8414C28.748 60.8754 28.1875 62.7172 28.1875 62.9094C28.1875 63.1176 28.3637 63.4539 28.5879 63.6621L28.9723 64.0625H41H53.0277L53.4121 63.6621C53.6363 63.4539 53.8125 63.1176 53.8125 62.9094C53.8125 62.7172 53.2519 60.8754 52.5793 58.8414L51.3461 55.1418L53.8766 49.4402C55.6223 45.5484 56.391 43.6266 56.343 43.3703C56.1508 42.5055 44.6355 15.9195 44.3312 15.6473C44.043 15.407 43.6266 15.375 41 15.375C38.3734 15.375 37.957 15.407 37.6527 15.6473ZM39.7187 27.3066C39.7187 35.1223 39.6867 36.6758 39.4945 36.6758C39.3824 36.6758 38.7738 36.932 38.1652 37.2363C36.7879 37.925 35.859 38.8859 35.1863 40.3273C34.7219 41.3043 34.6738 41.5445 34.6738 42.9219C34.6738 44.2992 34.7219 44.5395 35.1863 45.5164C35.891 47.0059 36.7879 47.9348 38.2453 48.6555C39.3984 49.216 39.5426 49.248 41 49.248C42.4574 49.248 42.6016 49.216 43.7547 48.6555C45.2121 47.9348 46.109 47.0059 46.8137 45.5164C47.2781 44.5395 47.3262 44.2992 47.3262 42.9219C47.3262 41.5445 47.2781 41.3043 46.8137 40.3273C46.141 38.8859 45.2121 37.925 43.8348 37.2363C43.2262 36.932 42.6176 36.6758 42.5055 36.6758C42.3133 36.6758 42.2812 35.1223 42.2812 27.3066C42.2812 19.3949 42.3133 17.9375 42.5055 17.9375C42.6496 17.9375 44.6836 22.518 48.207 30.75L53.6844 43.5785L51.4102 48.6875L49.1359 53.8125H41H32.8641L30.5898 48.6875L28.3156 43.5625L33.793 30.75C37.3484 22.4059 39.3504 17.9375 39.4945 17.9375C39.6867 17.9375 39.7187 19.3469 39.7187 27.3066ZM42.1852 39.2703C43.066 39.5266 44.3953 40.8559 44.6516 41.7367C45.1 43.2422 44.7797 44.4434 43.6426 45.5645C42.025 47.198 39.975 47.198 38.3574 45.5645C36.7238 43.9469 36.7238 41.8969 38.3574 40.2793C39.4785 39.1422 40.6797 38.8379 42.1852 39.2703ZM49.9047 58.9695L50.7375 61.5H41H31.2465L32.0473 59.1297C32.4797 57.8324 32.8641 56.6793 32.9121 56.5672C32.9602 56.407 34.6738 56.375 41.016 56.407L49.0559 56.4551L49.9047 58.9695Z" fill="#23BAB1" stroke="#23BAB1" stroke-width="0.6"></path>
</svg>
