<svg xmlns="http://www.w3.org/2000/svg" xmlns:xlink="http://www.w3.org/1999/xlink" width="512" zoomAndPan="magnify" viewBox="0 0 384 383.999986" height="512" preserveAspectRatio="xMidYMid meet" version="1.0"><defs><clipPath id="2ccd5c9a31"><path d="M 12 25.414062 L 372.507812 25.414062 L 372.507812 372.664062 L 12 372.664062 Z M 12 25.414062 " clip-rule="nonzero"/></clipPath></defs><g clip-path="url(#2ccd5c9a31)"><path fill="#93c53e" d="M 228.273438 181.523438 C 228.46875 196.386719 228.898438 211.246094 228.910156 226.109375 C 228.910156 226.425781 228.878906 226.734375 228.820312 227.046875 C 228.757812 227.355469 228.667969 227.65625 228.546875 227.945312 C 228.425781 228.238281 228.277344 228.515625 228.101562 228.777344 C 227.925781 229.039062 227.726562 229.28125 227.503906 229.503906 C 227.28125 229.726562 227.039062 229.925781 226.777344 230.101562 C 226.515625 230.277344 226.238281 230.425781 225.945312 230.546875 C 225.65625 230.664062 225.355469 230.757812 225.046875 230.816406 C 224.738281 230.878906 224.425781 230.910156 224.109375 230.910156 C 223.792969 230.910156 223.480469 230.878906 223.171875 230.816406 C 222.863281 230.757812 222.5625 230.664062 222.273438 230.546875 C 221.980469 230.425781 221.703125 230.277344 221.441406 230.101562 C 221.179688 229.925781 220.9375 229.726562 220.714844 229.503906 C 220.492188 229.28125 220.292969 229.039062 220.117188 228.777344 C 219.941406 228.515625 219.792969 228.238281 219.671875 227.945312 C 219.550781 227.65625 219.460938 227.355469 219.398438 227.046875 C 219.339844 226.734375 219.308594 226.425781 219.308594 226.109375 C 219.308594 222.589844 219.308594 219.085938 219.210938 215.570312 C 219.007812 200.429688 218.574219 185.292969 218.574219 170.144531 C 218.574219 169.828125 218.605469 169.515625 218.667969 169.207031 C 218.730469 168.898438 218.820312 168.597656 218.941406 168.304688 C 219.0625 168.015625 219.210938 167.738281 219.382812 167.476562 C 219.558594 167.214844 219.757812 166.96875 219.980469 166.746094 C 220.203125 166.523438 220.449219 166.324219 220.710938 166.152344 C 220.972656 165.976562 221.25 165.828125 221.539062 165.707031 C 221.832031 165.585938 222.132812 165.496094 222.441406 165.433594 C 222.75 165.371094 223.0625 165.339844 223.378906 165.339844 C 223.691406 165.339844 224.003906 165.371094 224.3125 165.433594 C 224.625 165.496094 224.921875 165.585938 225.214844 165.707031 C 225.507812 165.828125 225.78125 165.976562 226.046875 166.152344 C 226.308594 166.324219 226.550781 166.523438 226.773438 166.746094 C 226.996094 166.96875 227.195312 167.214844 227.371094 167.476562 C 227.546875 167.738281 227.691406 168.015625 227.8125 168.304688 C 227.933594 168.597656 228.023438 168.898438 228.085938 169.207031 C 228.148438 169.515625 228.179688 169.828125 228.179688 170.144531 C 228.179688 173.9375 228.210938 177.730469 228.273438 181.523438 Z M 203.605469 224.621094 C 203.691406 224.925781 203.742188 225.234375 203.765625 225.550781 C 203.789062 225.867188 203.78125 226.179688 203.742188 226.492188 C 203.707031 226.808594 203.636719 227.113281 203.539062 227.414062 C 203.4375 227.714844 203.3125 228.003906 203.15625 228.277344 C 203 228.550781 202.816406 228.808594 202.613281 229.046875 C 202.40625 229.289062 202.175781 229.503906 201.929688 229.699219 C 201.679688 229.894531 201.414062 230.0625 201.128906 230.203125 C 200.847656 230.347656 200.554688 230.460938 200.25 230.542969 C 199.945312 230.628906 199.636719 230.683594 199.320312 230.707031 C 199.003906 230.730469 198.691406 230.722656 198.378906 230.683594 C 198.0625 230.644531 197.757812 230.574219 197.457031 230.476562 C 197.15625 230.378906 196.867188 230.25 196.59375 230.09375 C 196.316406 229.9375 196.0625 229.757812 195.820312 229.550781 C 195.582031 229.34375 195.367188 229.117188 195.171875 228.867188 C 194.976562 228.617188 194.808594 228.351562 194.664062 228.070312 C 194.523438 227.789062 194.410156 227.492188 194.324219 227.1875 C 192.632812 221.1875 190.953125 215.269531 189.175781 209.328125 C 188.105469 209.527344 187.023438 209.664062 185.933594 209.734375 C 183.460938 209.949219 180.976562 209.988281 178.503906 210.011719 C 174.074219 210.070312 169.644531 210.011719 165.214844 209.902344 C 163.511719 215.570312 161.914062 221.269531 160.316406 226.984375 C 158.648438 232.988281 149.355469 230.40625 151.023438 224.429688 C 153.425781 215.894531 155.742188 207.34375 158.527344 198.929688 C 161.34375 190.402344 164.621094 182.054688 168.359375 173.886719 C 170.160156 169.9375 173.390625 165.6875 178.15625 165.546875 C 183.703125 165.367188 185.550781 170.671875 187.328125 174.871094 C 194.121094 190.984375 198.851562 207.835938 203.605469 224.621094 Z M 186.308594 200.082031 L 185.886719 200.082031 C 185.886719 200.082031 185.886719 200.082031 186.296875 200.023438 C 184.039062 192.964844 181.589844 185.953125 178.742188 179.097656 C 178.433594 178.367188 178.035156 177.5625 177.652344 176.699219 C 177.570312 176.824219 177.492188 176.957031 177.421875 177.09375 C 176.945312 177.992188 176.546875 178.953125 176.128906 179.890625 C 175.429688 181.425781 174.746094 183 174.097656 184.546875 C 171.925781 189.722656 169.992188 194.980469 168.226562 200.285156 C 171.324219 200.285156 174.421875 200.371094 177.507812 200.347656 C 180.015625 200.347656 182.527344 200.347656 185.023438 200.117188 L 185.886719 200.046875 C 186.023438 200.074219 186.164062 200.085938 186.308594 200.082031 Z M 372.125 200.480469 C 372.125 201.015625 372.078125 201.546875 371.980469 202.074219 C 371.882812 202.597656 371.742188 203.113281 371.554688 203.613281 C 371.367188 204.117188 371.132812 204.597656 370.859375 205.058594 C 370.585938 205.515625 370.273438 205.949219 369.921875 206.351562 C 369.570312 206.757812 369.183594 207.125 368.765625 207.460938 C 368.351562 207.796875 367.90625 208.09375 367.433594 208.347656 C 366.964844 208.605469 366.476562 208.816406 365.964844 208.984375 C 365.457031 209.152344 364.9375 209.273438 364.410156 209.347656 C 363.878906 209.425781 363.34375 209.453125 362.808594 209.429688 C 362.273438 209.410156 361.746094 209.34375 361.222656 209.230469 C 360.699219 209.113281 360.191406 208.953125 359.695312 208.75 C 359.203125 208.542969 358.730469 208.292969 358.28125 208.003906 C 357.832031 207.714844 357.410156 207.386719 357.019531 207.019531 C 356.625 206.65625 356.269531 206.257812 355.949219 205.828125 C 355.628906 205.398438 355.351562 204.945312 355.113281 204.464844 C 354.871094 203.988281 354.679688 203.488281 354.527344 202.976562 C 350.328125 203.058594 346.125 202.976562 341.921875 202.976562 L 296.148438 202.976562 C 295.992188 210.886719 295.730469 218.785156 295.261719 226.671875 C 294.734375 235.519531 294.0625 244.488281 292.691406 253.289062 L 330.375 253.289062 C 330.378906 252.925781 330.402344 252.566406 330.445312 252.207031 C 330.492188 251.851562 330.558594 251.496094 330.648438 251.148438 C 330.738281 250.796875 330.847656 250.453125 330.976562 250.117188 C 331.105469 249.78125 331.257812 249.453125 331.425781 249.132812 C 331.59375 248.816406 331.78125 248.507812 331.988281 248.210938 C 332.195312 247.917969 332.417969 247.632812 332.660156 247.363281 C 332.902344 247.097656 333.15625 246.84375 333.425781 246.605469 C 333.699219 246.367188 333.984375 246.144531 334.28125 245.941406 C 334.578125 245.738281 334.886719 245.550781 335.207031 245.386719 C 335.527344 245.21875 335.855469 245.070312 336.195312 244.945312 C 336.53125 244.816406 336.875 244.710938 337.226562 244.625 C 337.578125 244.539062 337.933594 244.476562 338.289062 244.433594 C 338.648438 244.390625 339.007812 244.371094 339.371094 244.371094 C 339.730469 244.371094 340.089844 244.394531 340.449219 244.4375 C 340.804688 244.480469 341.160156 244.546875 341.511719 244.632812 C 341.863281 244.71875 342.207031 244.828125 342.542969 244.957031 C 342.878906 245.085938 343.207031 245.230469 343.527344 245.398438 C 343.847656 245.566406 344.15625 245.753906 344.453125 245.957031 C 344.75 246.164062 345.035156 246.386719 345.304688 246.625 C 345.574219 246.863281 345.828125 247.117188 346.070312 247.386719 C 346.308594 247.660156 346.53125 247.941406 346.738281 248.238281 C 346.941406 248.535156 347.128906 248.84375 347.296875 249.164062 C 347.464844 249.480469 347.613281 249.808594 347.742188 250.148438 C 347.871094 250.484375 347.980469 250.828125 348.066406 251.179688 C 348.152344 251.527344 348.21875 251.882812 348.265625 252.242188 C 348.308594 252.597656 348.332031 252.957031 348.332031 253.320312 C 348.335938 253.679688 348.3125 254.039062 348.273438 254.398438 C 348.230469 254.757812 348.167969 255.109375 348.082031 255.460938 C 347.996094 255.8125 347.890625 256.15625 347.765625 256.496094 C 347.636719 256.832031 347.492188 257.164062 347.324219 257.484375 C 347.160156 257.804688 346.976562 258.113281 346.773438 258.410156 C 346.566406 258.707031 346.347656 258.992188 346.109375 259.265625 C 345.871094 259.535156 345.617188 259.792969 345.351562 260.035156 C 345.082031 260.273438 344.800781 260.5 344.503906 260.707031 C 344.207031 260.914062 343.902344 261.101562 343.582031 261.269531 C 343.265625 261.441406 342.9375 261.589844 342.601562 261.722656 C 342.265625 261.851562 341.921875 261.960938 341.570312 262.050781 C 341.222656 262.140625 340.867188 262.207031 340.511719 262.253906 C 340.152344 262.300781 339.792969 262.324219 339.433594 262.328125 C 339.070312 262.332031 338.710938 262.3125 338.351562 262.273438 C 337.992188 262.234375 337.640625 262.171875 337.289062 262.089844 C 336.9375 262.003906 336.589844 261.902344 336.253906 261.777344 C 335.914062 261.652344 335.585938 261.507812 335.261719 261.34375 C 334.941406 261.179688 334.632812 260.996094 334.332031 260.792969 C 334.035156 260.59375 333.746094 260.375 333.472656 260.136719 C 333.203125 259.902344 332.945312 259.648438 332.703125 259.382812 C 332.460938 259.113281 332.234375 258.832031 332.023438 258.539062 C 331.816406 258.246094 331.625 257.9375 331.453125 257.621094 L 291.9375 257.621094 C 291.683594 258.941406 291.417969 260.25 291.121094 261.570312 C 289.984375 267.316406 287.75 272.597656 284.421875 277.417969 C 282.859375 279.523438 281.066406 281.40625 279.03125 283.0625 C 277 284.71875 274.792969 286.097656 272.417969 287.199219 C 264.792969 290.800781 256.355469 292.53125 248.082031 293.863281 L 248.082031 331.292969 C 248.421875 331.421875 248.753906 331.566406 249.074219 331.734375 C 249.394531 331.902344 249.707031 332.085938 250.003906 332.289062 C 250.304688 332.496094 250.589844 332.714844 250.863281 332.957031 C 251.132812 333.195312 251.390625 333.449219 251.632812 333.71875 C 251.875 333.988281 252.097656 334.273438 252.304688 334.570312 C 252.511719 334.867188 252.699219 335.175781 252.871094 335.496094 C 253.042969 335.8125 253.191406 336.144531 253.320312 336.480469 C 253.453125 336.820312 253.5625 337.164062 253.648438 337.515625 C 253.738281 337.867188 253.804688 338.222656 253.851562 338.582031 C 253.898438 338.9375 253.921875 339.300781 253.921875 339.664062 C 253.925781 340.023438 253.90625 340.386719 253.863281 340.746094 C 253.820312 341.105469 253.757812 341.460938 253.675781 341.8125 C 253.589844 342.164062 253.484375 342.511719 253.359375 342.851562 C 253.230469 343.191406 253.085938 343.519531 252.917969 343.84375 C 252.753906 344.164062 252.566406 344.476562 252.363281 344.773438 C 252.160156 345.074219 251.941406 345.359375 251.703125 345.632812 C 251.460938 345.90625 251.207031 346.160156 250.9375 346.402344 C 250.671875 346.644531 250.386719 346.871094 250.089844 347.078125 C 249.792969 347.285156 249.484375 347.476562 249.167969 347.644531 C 248.847656 347.816406 248.519531 347.96875 248.179688 348.097656 C 247.84375 348.230469 247.5 348.339844 247.148438 348.429688 C 246.796875 348.519531 246.441406 348.585938 246.082031 348.632812 C 245.722656 348.679688 245.363281 348.703125 245 348.707031 C 244.636719 348.707031 244.277344 348.6875 243.917969 348.648438 C 243.558594 348.609375 243.199219 348.546875 242.847656 348.460938 C 242.496094 348.378906 242.148438 348.273438 241.8125 348.148438 C 241.472656 348.019531 241.140625 347.875 240.816406 347.710938 C 240.496094 347.542969 240.183594 347.359375 239.886719 347.15625 C 239.585938 346.953125 239.300781 346.734375 239.027344 346.496094 C 238.753906 346.257812 238.496094 346.003906 238.253906 345.734375 C 238.011719 345.464844 237.785156 345.183594 237.578125 344.886719 C 237.367188 344.589844 237.179688 344.28125 237.007812 343.964844 C 236.835938 343.644531 236.683594 343.316406 236.554688 342.976562 C 236.421875 342.640625 236.3125 342.296875 236.222656 341.945312 C 236.132812 341.59375 236.0625 341.238281 236.015625 340.882812 C 235.96875 340.523438 235.945312 340.160156 235.941406 339.800781 C 235.9375 339.4375 235.957031 339.074219 235.996094 338.714844 C 236.035156 338.355469 236.097656 338 236.179688 337.648438 C 236.265625 337.292969 236.367188 336.949219 236.492188 336.609375 C 236.617188 336.269531 236.765625 335.9375 236.929688 335.617188 C 237.09375 335.292969 237.277344 334.980469 237.480469 334.679688 C 237.683594 334.382812 237.902344 334.09375 238.140625 333.820312 C 238.378906 333.546875 238.632812 333.289062 238.898438 333.046875 C 239.167969 332.804688 239.449219 332.578125 239.746094 332.367188 C 240.042969 332.160156 240.351562 331.96875 240.667969 331.796875 C 240.988281 331.625 241.316406 331.472656 241.652344 331.34375 C 241.988281 331.210938 242.332031 331.097656 242.683594 331.007812 C 243.035156 330.917969 243.390625 330.847656 243.75 330.800781 C 243.75 330.632812 243.75 330.453125 243.75 330.285156 L 243.75 294.488281 C 227.054688 296.753906 210.285156 297.78125 193.4375 297.574219 L 193.4375 354.617188 C 193.796875 354.675781 194.148438 354.753906 194.496094 354.851562 C 194.84375 354.949219 195.183594 355.070312 195.519531 355.210938 C 195.851562 355.351562 196.175781 355.507812 196.488281 355.6875 C 196.804688 355.867188 197.105469 356.066406 197.394531 356.28125 C 197.6875 356.496094 197.960938 356.730469 198.226562 356.976562 C 198.488281 357.226562 198.734375 357.492188 198.964844 357.769531 C 199.195312 358.050781 199.40625 358.339844 199.601562 358.644531 C 199.796875 358.949219 199.972656 359.265625 200.128906 359.589844 C 200.285156 359.917969 200.421875 360.25 200.539062 360.59375 C 200.65625 360.9375 200.753906 361.285156 200.828125 361.636719 C 200.902344 361.992188 200.953125 362.351562 200.984375 362.710938 C 201.015625 363.070312 201.027344 363.429688 201.015625 363.792969 C 201.003906 364.15625 200.96875 364.515625 200.914062 364.871094 C 200.855469 365.230469 200.78125 365.582031 200.679688 365.929688 C 200.582031 366.277344 200.464844 366.617188 200.324219 366.953125 C 200.183594 367.285156 200.027344 367.609375 199.847656 367.925781 C 199.667969 368.238281 199.472656 368.542969 199.257812 368.832031 C 199.039062 369.125 198.808594 369.398438 198.558594 369.664062 C 198.3125 369.925781 198.046875 370.171875 197.769531 370.402344 C 197.492188 370.632812 197.199219 370.847656 196.894531 371.042969 C 196.589844 371.238281 196.277344 371.414062 195.949219 371.570312 C 195.625 371.730469 195.289062 371.867188 194.949219 371.984375 C 194.605469 372.101562 194.257812 372.195312 193.90625 372.273438 C 193.550781 372.347656 193.195312 372.402344 192.832031 372.433594 C 192.472656 372.464844 192.113281 372.476562 191.75 372.464844 C 191.390625 372.453125 191.027344 372.417969 190.671875 372.363281 C 190.3125 372.308594 189.960938 372.230469 189.613281 372.132812 C 189.265625 372.035156 188.921875 371.917969 188.589844 371.777344 C 188.253906 371.640625 187.929688 371.480469 187.617188 371.300781 C 187.300781 371.125 187 370.929688 186.707031 370.714844 C 186.417969 370.5 186.140625 370.265625 185.875 370.019531 C 185.613281 369.769531 185.367188 369.507812 185.136719 369.230469 C 184.902344 368.949219 184.691406 368.660156 184.496094 368.355469 C 184.296875 368.050781 184.121094 367.738281 183.964844 367.410156 C 183.804688 367.085938 183.667969 366.753906 183.550781 366.410156 C 183.433594 366.070312 183.335938 365.71875 183.257812 365.367188 C 183.183594 365.011719 183.128906 364.65625 183.097656 364.296875 C 183.066406 363.9375 183.054688 363.574219 183.066406 363.214844 C 183.074219 362.851562 183.109375 362.492188 183.164062 362.132812 C 183.21875 361.777344 183.292969 361.421875 183.390625 361.074219 C 183.488281 360.726562 183.605469 360.386719 183.746094 360.050781 C 183.882812 359.71875 184.039062 359.394531 184.21875 359.078125 C 184.394531 358.761719 184.59375 358.460938 184.804688 358.167969 C 185.019531 357.875 185.253906 357.597656 185.5 357.335938 C 185.746094 357.070312 186.011719 356.824219 186.289062 356.59375 C 186.566406 356.359375 186.855469 356.148438 187.160156 355.949219 C 187.464844 355.753906 187.777344 355.578125 188.105469 355.417969 C 188.429688 355.257812 188.761719 355.121094 189.105469 355.003906 C 189.105469 353.800781 189.105469 352.601562 189.105469 351.402344 L 189.105469 297.546875 C 186.589844 297.546875 184.089844 297.5 181.601562 297.402344 C 171.277344 297.152344 160.953125 296.601562 150.664062 295.652344 C 147.398438 295.339844 144.121094 295.015625 140.859375 294.617188 L 140.859375 331.101562 C 141.203125 331.207031 141.539062 331.335938 141.871094 331.480469 C 142.199219 331.628906 142.519531 331.796875 142.828125 331.980469 C 143.140625 332.167969 143.4375 332.371094 143.722656 332.59375 C 144.007812 332.816406 144.277344 333.054688 144.535156 333.308594 C 144.789062 333.5625 145.03125 333.832031 145.253906 334.117188 C 145.480469 334.402344 145.683594 334.695312 145.871094 335.003906 C 146.058594 335.3125 146.230469 335.632812 146.378906 335.960938 C 146.527344 336.289062 146.65625 336.628906 146.765625 336.972656 C 146.875 337.316406 146.960938 337.667969 147.027344 338.023438 C 147.09375 338.378906 147.140625 338.734375 147.164062 339.09375 C 147.1875 339.457031 147.1875 339.816406 147.167969 340.175781 C 147.148438 340.539062 147.105469 340.898438 147.039062 341.253906 C 146.976562 341.609375 146.890625 341.957031 146.785156 342.304688 C 146.679688 342.648438 146.554688 342.988281 146.40625 343.316406 C 146.257812 343.648438 146.09375 343.96875 145.90625 344.277344 C 145.722656 344.585938 145.519531 344.886719 145.296875 345.171875 C 145.074219 345.457031 144.835938 345.726562 144.582031 345.984375 C 144.328125 346.242188 144.058594 346.480469 143.773438 346.703125 C 143.492188 346.929688 143.195312 347.136719 142.886719 347.324219 C 142.578125 347.511719 142.261719 347.679688 141.929688 347.832031 C 141.601562 347.980469 141.265625 348.109375 140.921875 348.21875 C 140.578125 348.328125 140.226562 348.417969 139.871094 348.484375 C 139.515625 348.550781 139.160156 348.59375 138.796875 348.617188 C 138.4375 348.640625 138.078125 348.644531 137.714844 348.625 C 137.355469 348.605469 136.996094 348.5625 136.640625 348.5 C 136.285156 348.433594 135.933594 348.351562 135.589844 348.246094 C 135.242188 348.140625 134.90625 348.011719 134.574219 347.867188 C 134.246094 347.71875 133.925781 347.554688 133.613281 347.367188 C 133.304688 347.183594 133.007812 346.980469 132.722656 346.757812 C 132.4375 346.539062 132.164062 346.300781 131.90625 346.046875 C 131.652344 345.792969 131.410156 345.523438 131.183594 345.238281 C 130.960938 344.957031 130.753906 344.660156 130.566406 344.351562 C 130.378906 344.042969 130.207031 343.726562 130.058594 343.398438 C 129.90625 343.070312 129.777344 342.730469 129.667969 342.386719 C 129.558594 342.042969 129.46875 341.695312 129.402344 341.339844 C 129.335938 340.984375 129.289062 340.625 129.265625 340.265625 C 129.242188 339.90625 129.238281 339.542969 129.257812 339.183594 C 129.277344 338.820312 129.320312 338.464844 129.382812 338.109375 C 129.445312 337.753906 129.53125 337.402344 129.636719 337.054688 C 129.742188 336.710938 129.867188 336.371094 130.011719 336.042969 C 130.160156 335.710938 130.324219 335.390625 130.511719 335.082031 C 130.695312 334.769531 130.898438 334.472656 131.121094 334.1875 C 131.339844 333.898438 131.578125 333.628906 131.832031 333.371094 C 132.085938 333.113281 132.355469 332.871094 132.636719 332.648438 C 132.917969 332.421875 133.214844 332.214844 133.523438 332.027344 C 133.832031 331.839844 134.148438 331.667969 134.476562 331.519531 C 134.804688 331.367188 135.144531 331.238281 135.488281 331.128906 C 135.832031 331.015625 136.179688 330.929688 136.535156 330.859375 L 136.535156 294.054688 C 133.007812 293.5625 129.488281 292.988281 126.007812 292.265625 C 114.890625 289.960938 103.824219 284.113281 97.882812 274.089844 C 95.609375 269.957031 93.972656 265.589844 92.972656 260.980469 C 92.695312 259.855469 92.441406 258.738281 92.203125 257.609375 L 52.585938 257.609375 C 52.414062 257.925781 52.226562 258.230469 52.019531 258.523438 C 51.808594 258.820312 51.585938 259.101562 51.34375 259.367188 C 51.101562 259.632812 50.84375 259.886719 50.570312 260.121094 C 50.296875 260.355469 50.011719 260.574219 49.714844 260.777344 C 49.414062 260.976562 49.105469 261.160156 48.785156 261.324219 C 48.460938 261.488281 48.132812 261.632812 47.796875 261.757812 C 47.457031 261.882812 47.113281 261.984375 46.761719 262.070312 C 46.410156 262.152344 46.054688 262.210938 45.699219 262.253906 C 45.339844 262.292969 44.980469 262.3125 44.621094 262.308594 C 44.261719 262.304688 43.902344 262.28125 43.542969 262.234375 C 43.1875 262.1875 42.832031 262.121094 42.484375 262.03125 C 42.136719 261.941406 41.792969 261.832031 41.457031 261.699219 C 41.121094 261.570312 40.792969 261.421875 40.476562 261.25 C 40.15625 261.082031 39.851562 260.894531 39.554688 260.6875 C 39.261719 260.480469 38.980469 260.253906 38.710938 260.015625 C 38.441406 259.773438 38.191406 259.519531 37.953125 259.246094 C 37.714844 258.976562 37.496094 258.691406 37.292969 258.394531 C 37.089844 258.097656 36.90625 257.789062 36.738281 257.46875 C 36.574219 257.148438 36.425781 256.820312 36.300781 256.480469 C 36.175781 256.144531 36.070312 255.800781 35.984375 255.449219 C 35.898438 255.097656 35.835938 254.746094 35.792969 254.386719 C 35.753906 254.027344 35.730469 253.671875 35.734375 253.308594 C 35.734375 252.949219 35.757812 252.589844 35.800781 252.234375 C 35.847656 251.875 35.914062 251.519531 36 251.171875 C 36.085938 250.820312 36.195312 250.480469 36.324219 250.140625 C 36.453125 249.804688 36.601562 249.476562 36.769531 249.160156 C 36.9375 248.839844 37.121094 248.53125 37.328125 248.238281 C 37.53125 247.941406 37.753906 247.65625 37.996094 247.386719 C 38.234375 247.117188 38.488281 246.863281 38.757812 246.625 C 39.027344 246.386719 39.3125 246.164062 39.609375 245.960938 C 39.90625 245.753906 40.210938 245.570312 40.53125 245.402344 C 40.851562 245.234375 41.179688 245.085938 41.515625 244.957031 C 41.851562 244.832031 42.195312 244.722656 42.546875 244.636719 C 42.894531 244.550781 43.25 244.484375 43.605469 244.441406 C 43.964844 244.398438 44.324219 244.375 44.683594 244.375 C 45.042969 244.371094 45.402344 244.394531 45.761719 244.4375 C 46.117188 244.480469 46.472656 244.542969 46.824219 244.628906 C 47.171875 244.714844 47.515625 244.820312 47.855469 244.945312 C 48.191406 245.074219 48.519531 245.21875 48.839844 245.386719 C 49.160156 245.550781 49.46875 245.738281 49.765625 245.941406 C 50.0625 246.144531 50.347656 246.363281 50.617188 246.601562 C 50.886719 246.839844 51.144531 247.09375 51.382812 247.363281 C 51.625 247.628906 51.847656 247.914062 52.054688 248.207031 C 52.261719 248.503906 52.449219 248.808594 52.617188 249.128906 C 52.785156 249.445312 52.9375 249.773438 53.066406 250.109375 C 53.195312 250.445312 53.304688 250.789062 53.394531 251.136719 C 53.480469 251.488281 53.550781 251.839844 53.59375 252.199219 C 53.640625 252.554688 53.664062 252.914062 53.667969 253.273438 C 57.054688 253.273438 60.449219 253.273438 63.847656 253.273438 L 91.445312 253.273438 C 91.148438 251.472656 90.875 249.671875 90.617188 247.875 C 88.691406 232.96875 87.691406 218.003906 87.617188 202.976562 L 29.585938 202.976562 C 29.484375 203.324219 29.363281 203.664062 29.222656 203.996094 C 29.082031 204.328125 28.917969 204.648438 28.738281 204.964844 C 28.558594 205.277344 28.359375 205.578125 28.140625 205.867188 C 27.925781 206.15625 27.691406 206.429688 27.441406 206.691406 C 27.191406 206.949219 26.925781 207.195312 26.644531 207.421875 C 26.363281 207.652344 26.074219 207.863281 25.765625 208.054688 C 25.460938 208.25 25.144531 208.421875 24.820312 208.578125 C 24.492188 208.734375 24.15625 208.867188 23.816406 208.980469 C 23.472656 209.097656 23.125 209.191406 22.769531 209.261719 C 22.414062 209.335938 22.058594 209.386719 21.699219 209.414062 C 21.339844 209.445312 20.976562 209.453125 20.617188 209.4375 C 20.253906 209.421875 19.898438 209.386719 19.539062 209.328125 C 19.183594 209.269531 18.832031 209.191406 18.484375 209.089844 C 18.136719 208.992188 17.796875 208.871094 17.464844 208.730469 C 17.132812 208.585938 16.808594 208.425781 16.496094 208.246094 C 16.183594 208.066406 15.882812 207.867188 15.59375 207.648438 C 15.304688 207.433594 15.027344 207.199219 14.769531 206.949219 C 14.507812 206.699219 14.261719 206.433594 14.035156 206.15625 C 13.804688 205.875 13.59375 205.582031 13.398438 205.277344 C 13.207031 204.972656 13.03125 204.65625 12.875 204.328125 C 12.722656 204.003906 12.585938 203.667969 12.472656 203.328125 C 12.355469 202.984375 12.261719 202.636719 12.191406 202.28125 C 12.117188 201.925781 12.066406 201.570312 12.035156 201.210938 C 12.007812 200.851562 12 200.488281 12.011719 200.128906 C 12.027344 199.765625 12.0625 199.410156 12.121094 199.050781 C 12.179688 198.695312 12.257812 198.34375 12.355469 197.996094 C 12.457031 197.648438 12.578125 197.308594 12.71875 196.976562 C 12.859375 196.644531 13.019531 196.320312 13.199219 196.007812 C 13.378906 195.691406 13.578125 195.390625 13.796875 195.101562 C 14.011719 194.8125 14.246094 194.539062 14.496094 194.277344 C 14.746094 194.015625 15.011719 193.769531 15.289062 193.542969 C 15.570312 193.3125 15.859375 193.101562 16.167969 192.90625 C 16.472656 192.714844 16.785156 192.539062 17.113281 192.382812 C 17.4375 192.226562 17.773438 192.09375 18.117188 191.976562 C 18.457031 191.863281 18.808594 191.769531 19.160156 191.695312 C 19.515625 191.621094 19.871094 191.570312 20.230469 191.539062 C 20.59375 191.511719 20.953125 191.503906 21.3125 191.515625 C 21.675781 191.53125 22.035156 191.566406 22.390625 191.621094 C 22.746094 191.679688 23.097656 191.757812 23.445312 191.855469 C 23.792969 191.957031 24.132812 192.078125 24.46875 192.21875 C 24.800781 192.359375 25.125 192.519531 25.4375 192.699219 C 25.75 192.878906 26.050781 193.078125 26.339844 193.292969 C 26.628906 193.507812 26.90625 193.742188 27.167969 193.992188 C 27.429688 194.242188 27.675781 194.503906 27.902344 194.785156 C 28.132812 195.0625 28.34375 195.355469 28.539062 195.660156 C 28.734375 195.964844 28.90625 196.28125 29.0625 196.605469 C 29.21875 196.933594 29.355469 197.265625 29.472656 197.609375 C 29.585938 197.953125 29.679688 198.300781 29.753906 198.652344 L 30.101562 198.652344 C 34.316406 198.582031 38.507812 198.652344 42.769531 198.652344 L 87.496094 198.652344 C 87.496094 193.242188 87.554688 187.84375 87.664062 182.449219 C 87.847656 171.722656 88.648438 161.042969 90.066406 150.40625 L 52.910156 150.40625 C 52.761719 150.734375 52.59375 151.054688 52.402344 151.363281 C 52.214844 151.671875 52.007812 151.96875 51.785156 152.25 C 51.558594 152.535156 51.320312 152.800781 51.0625 153.058594 C 50.804688 153.3125 50.535156 153.550781 50.25 153.769531 C 49.964844 153.992188 49.664062 154.195312 49.355469 154.382812 C 49.046875 154.566406 48.726562 154.734375 48.394531 154.878906 C 48.066406 155.027344 47.726562 155.152344 47.382812 155.261719 C 47.035156 155.367188 46.683594 155.449219 46.328125 155.515625 C 45.972656 155.578125 45.617188 155.621094 45.253906 155.640625 C 44.894531 155.660156 44.53125 155.660156 44.171875 155.636719 C 43.8125 155.613281 43.453125 155.570312 43.097656 155.503906 C 42.742188 155.4375 42.394531 155.351562 42.046875 155.242188 C 41.703125 155.132812 41.367188 155.003906 41.039062 154.855469 C 40.707031 154.707031 40.390625 154.539062 40.082031 154.351562 C 39.769531 154.164062 39.476562 153.957031 39.191406 153.734375 C 38.90625 153.507812 38.636719 153.269531 38.382812 153.015625 C 38.128906 152.757812 37.886719 152.488281 37.667969 152.203125 C 37.445312 151.917969 37.238281 151.621094 37.050781 151.3125 C 36.867188 151 36.699219 150.683594 36.550781 150.351562 C 36.402344 150.023438 36.277344 149.683594 36.167969 149.339844 C 36.0625 148.996094 35.976562 148.644531 35.910156 148.289062 C 35.84375 147.933594 35.800781 147.574219 35.78125 147.214844 C 35.757812 146.851562 35.757812 146.492188 35.78125 146.132812 C 35.804688 145.769531 35.847656 145.414062 35.910156 145.058594 C 35.976562 144.703125 36.0625 144.351562 36.171875 144.007812 C 36.277344 143.660156 36.40625 143.324219 36.554688 142.996094 C 36.703125 142.664062 36.871094 142.34375 37.054688 142.035156 C 37.242188 141.726562 37.449219 141.429688 37.671875 141.144531 C 37.894531 140.859375 38.132812 140.589844 38.386719 140.332031 C 38.644531 140.078125 38.914062 139.839844 39.195312 139.617188 C 39.480469 139.390625 39.777344 139.1875 40.085938 139 C 40.394531 138.8125 40.714844 138.644531 41.042969 138.496094 C 41.375 138.347656 41.710938 138.21875 42.054688 138.109375 C 42.398438 138 42.75 137.914062 43.105469 137.847656 C 43.460938 137.78125 43.820312 137.738281 44.179688 137.714844 C 44.539062 137.691406 44.902344 137.691406 45.261719 137.710938 C 45.621094 137.734375 45.980469 137.777344 46.335938 137.839844 C 46.691406 137.902344 47.042969 137.988281 47.386719 138.09375 C 47.734375 138.203125 48.070312 138.328125 48.402344 138.476562 C 48.730469 138.625 49.050781 138.789062 49.363281 138.976562 C 49.671875 139.160156 49.96875 139.363281 50.253906 139.585938 C 50.539062 139.808594 50.8125 140.046875 51.066406 140.300781 C 51.324219 140.554688 51.5625 140.824219 51.789062 141.109375 C 52.011719 141.390625 52.21875 141.6875 52.40625 141.996094 C 52.59375 142.304688 52.765625 142.625 52.914062 142.953125 C 53.066406 143.28125 53.195312 143.617188 53.304688 143.960938 C 53.414062 144.308594 53.5 144.65625 53.566406 145.011719 C 53.632812 145.367188 53.679688 145.726562 53.703125 146.085938 C 57.113281 146.085938 60.511719 146.085938 63.917969 146.085938 L 90.691406 146.085938 C 92.167969 137.683594 94.699219 129.28125 100.054688 122.484375 C 106.210938 114.609375 115.574219 111.082031 124.832031 108.4375 C 128.683594 107.347656 132.597656 106.386719 136.535156 105.558594 L 136.535156 67.359375 C 136.183594 67.289062 135.832031 67.199219 135.488281 67.089844 C 135.148438 66.976562 134.8125 66.847656 134.484375 66.695312 C 134.15625 66.542969 133.839844 66.371094 133.535156 66.179688 C 133.226562 65.992188 132.933594 65.785156 132.652344 65.558594 C 132.371094 65.332031 132.105469 65.089844 131.851562 64.832031 C 131.601562 64.574219 131.363281 64.304688 131.144531 64.015625 C 130.925781 63.730469 130.722656 63.433594 130.539062 63.121094 C 130.355469 62.8125 130.191406 62.492188 130.046875 62.160156 C 129.902344 61.828125 129.78125 61.492188 129.675781 61.144531 C 129.574219 60.800781 129.488281 60.449219 129.429688 60.09375 C 129.367188 59.738281 129.328125 59.382812 129.308594 59.019531 C 129.292969 58.660156 129.292969 58.300781 129.320312 57.941406 C 129.34375 57.582031 129.390625 57.226562 129.460938 56.871094 C 129.527344 56.515625 129.617188 56.167969 129.730469 55.824219 C 129.839844 55.480469 129.96875 55.144531 130.121094 54.816406 C 130.273438 54.492188 130.441406 54.171875 130.632812 53.867188 C 130.820312 53.558594 131.027344 53.265625 131.253906 52.984375 C 131.480469 52.703125 131.71875 52.433594 131.976562 52.179688 C 132.234375 51.929688 132.507812 51.691406 132.792969 51.472656 C 133.078125 51.253906 133.375 51.050781 133.6875 50.867188 C 133.996094 50.683594 134.316406 50.519531 134.648438 50.371094 C 134.976562 50.226562 135.316406 50.101562 135.660156 50 C 136.003906 49.894531 136.355469 49.8125 136.710938 49.75 C 137.066406 49.6875 137.421875 49.644531 137.785156 49.628906 C 138.144531 49.609375 138.503906 49.609375 138.863281 49.636719 C 139.222656 49.660156 139.582031 49.707031 139.933594 49.773438 C 140.289062 49.84375 140.636719 49.929688 140.980469 50.039062 C 141.324219 50.152344 141.660156 50.28125 141.988281 50.429688 C 142.316406 50.582031 142.632812 50.75 142.941406 50.941406 C 143.25 51.128906 143.542969 51.335938 143.824219 51.558594 C 144.109375 51.785156 144.375 52.023438 144.628906 52.28125 C 144.882812 52.539062 145.121094 52.808594 145.339844 53.09375 C 145.558594 53.378906 145.761719 53.679688 145.949219 53.988281 C 146.132812 54.296875 146.296875 54.617188 146.441406 54.945312 C 146.589844 55.277344 146.714844 55.613281 146.820312 55.960938 C 146.925781 56.304688 147.007812 56.65625 147.070312 57.007812 C 147.132812 57.363281 147.175781 57.722656 147.195312 58.082031 C 147.214844 58.441406 147.214844 58.804688 147.1875 59.164062 C 147.164062 59.523438 147.121094 59.878906 147.054688 60.234375 C 146.984375 60.589844 146.898438 60.9375 146.789062 61.28125 C 146.679688 61.625 146.550781 61.960938 146.398438 62.289062 C 146.25 62.617188 146.082031 62.933594 145.894531 63.242188 C 145.703125 63.550781 145.5 63.84375 145.273438 64.128906 C 145.050781 64.410156 144.8125 64.679688 144.554688 64.933594 C 144.296875 65.1875 144.027344 65.425781 143.742188 65.644531 C 143.457031 65.867188 143.160156 66.070312 142.851562 66.253906 C 142.542969 66.441406 142.222656 66.605469 141.894531 66.753906 C 141.5625 66.898438 141.226562 67.027344 140.882812 67.132812 C 140.882812 68.246094 140.882812 69.363281 140.882812 70.480469 L 140.882812 104.695312 C 146.84375 103.589844 152.84375 102.789062 158.886719 102.292969 C 168.996094 101.421875 179.085938 100.925781 189.152344 100.804688 L 189.152344 43.183594 C 188.8125 43.0625 188.476562 42.925781 188.152344 42.765625 C 187.828125 42.609375 187.515625 42.429688 187.210938 42.234375 C 186.910156 42.039062 186.621094 41.824219 186.34375 41.59375 C 186.066406 41.359375 185.804688 41.113281 185.554688 40.851562 C 185.308594 40.585938 185.078125 40.308594 184.863281 40.019531 C 184.648438 39.726562 184.453125 39.425781 184.277344 39.109375 C 184.101562 38.796875 183.941406 38.472656 183.804688 38.136719 C 183.667969 37.804688 183.550781 37.464844 183.453125 37.117188 C 183.355469 36.769531 183.28125 36.414062 183.226562 36.058594 C 183.171875 35.703125 183.136719 35.34375 183.128906 34.980469 C 183.117188 34.621094 183.128906 34.261719 183.160156 33.902344 C 183.191406 33.539062 183.246094 33.183594 183.324219 32.832031 C 183.398438 32.476562 183.496094 32.132812 183.613281 31.789062 C 183.730469 31.449219 183.867188 31.113281 184.023438 30.789062 C 184.183594 30.464844 184.359375 30.152344 184.554688 29.847656 C 184.75 29.542969 184.964844 29.253906 185.195312 28.976562 C 185.425781 28.699219 185.671875 28.4375 185.9375 28.1875 C 186.199219 27.941406 186.476562 27.710938 186.765625 27.496094 C 187.054688 27.28125 187.359375 27.085938 187.671875 26.90625 C 187.988281 26.726562 188.3125 26.570312 188.644531 26.429688 C 188.976562 26.292969 189.316406 26.175781 189.664062 26.078125 C 190.011719 25.980469 190.367188 25.902344 190.722656 25.847656 C 191.078125 25.792969 191.4375 25.757812 191.800781 25.746094 C 192.160156 25.734375 192.519531 25.746094 192.878906 25.777344 C 193.238281 25.808594 193.597656 25.863281 193.949219 25.9375 C 194.304688 26.011719 194.652344 26.109375 194.992188 26.226562 C 195.335938 26.339844 195.667969 26.480469 195.992188 26.636719 C 196.316406 26.792969 196.632812 26.96875 196.9375 27.164062 C 197.238281 27.359375 197.53125 27.570312 197.808594 27.800781 C 198.085938 28.03125 198.351562 28.277344 198.597656 28.539062 C 198.847656 28.804688 199.078125 29.078125 199.292969 29.367188 C 199.507812 29.660156 199.707031 29.960938 199.886719 30.273438 C 200.0625 30.589844 200.222656 30.914062 200.363281 31.246094 C 200.5 31.578125 200.621094 31.917969 200.71875 32.265625 C 200.816406 32.613281 200.894531 32.964844 200.949219 33.324219 C 201.007812 33.679688 201.039062 34.039062 201.054688 34.398438 C 201.066406 34.761719 201.054688 35.121094 201.023438 35.480469 C 200.992188 35.839844 200.941406 36.195312 200.867188 36.550781 C 200.792969 36.902344 200.699219 37.25 200.582031 37.59375 C 200.464844 37.933594 200.328125 38.269531 200.171875 38.59375 C 200.015625 38.917969 199.839844 39.234375 199.648438 39.539062 C 199.453125 39.84375 199.242188 40.132812 199.011719 40.414062 C 198.78125 40.691406 198.535156 40.957031 198.273438 41.203125 C 198.011719 41.453125 197.738281 41.6875 197.449219 41.902344 C 197.15625 42.117188 196.855469 42.316406 196.542969 42.492188 C 196.230469 42.671875 195.90625 42.832031 195.574219 42.972656 C 195.242188 43.113281 194.902344 43.234375 194.554688 43.332031 C 194.207031 43.433594 193.855469 43.507812 193.496094 43.566406 C 193.496094 46.449219 193.496094 49.339844 193.496094 52.222656 L 193.496094 100.78125 C 198.300781 100.78125 203.101562 100.839844 207.832031 100.996094 C 219.835938 101.367188 231.839844 102.101562 243.84375 103.578125 L 243.84375 67.445312 C 243.488281 67.398438 243.132812 67.328125 242.785156 67.238281 C 242.433594 67.148438 242.089844 67.039062 241.753906 66.910156 C 241.417969 66.777344 241.089844 66.625 240.773438 66.457031 C 240.453125 66.285156 240.144531 66.097656 239.851562 65.886719 C 239.554688 65.679688 239.273438 65.457031 239.003906 65.214844 C 238.738281 64.972656 238.484375 64.714844 238.246094 64.445312 C 238.007812 64.171875 237.789062 63.886719 237.585938 63.585938 C 237.382812 63.289062 237.199219 62.980469 237.035156 62.65625 C 236.871094 62.335938 236.722656 62.007812 236.597656 61.667969 C 236.472656 61.328125 236.367188 60.984375 236.285156 60.632812 C 236.199219 60.28125 236.136719 59.925781 236.097656 59.566406 C 236.054688 59.210938 236.035156 58.847656 236.039062 58.488281 C 236.042969 58.128906 236.066406 57.769531 236.113281 57.410156 C 236.160156 57.050781 236.226562 56.695312 236.316406 56.347656 C 236.402344 55.996094 236.511719 55.652344 236.644531 55.316406 C 236.773438 54.980469 236.921875 54.652344 237.09375 54.332031 C 237.261719 54.015625 237.453125 53.707031 237.660156 53.410156 C 237.867188 53.117188 238.089844 52.832031 238.332031 52.566406 C 238.570312 52.296875 238.828125 52.042969 239.101562 51.804688 C 239.371094 51.566406 239.65625 51.347656 239.953125 51.144531 C 240.253906 50.9375 240.5625 50.753906 240.882812 50.589844 C 241.203125 50.421875 241.535156 50.277344 241.871094 50.148438 C 242.210938 50.023438 242.554688 49.917969 242.90625 49.832031 C 243.257812 49.75 243.613281 49.6875 243.96875 49.644531 C 244.328125 49.601562 244.6875 49.582031 245.050781 49.585938 C 245.410156 49.585938 245.769531 49.609375 246.128906 49.65625 C 246.488281 49.699219 246.84375 49.765625 247.191406 49.855469 C 247.542969 49.941406 247.886719 50.050781 248.222656 50.179688 C 248.558594 50.308594 248.886719 50.460938 249.207031 50.628906 C 249.527344 50.796875 249.835938 50.984375 250.128906 51.191406 C 250.425781 51.398438 250.710938 51.621094 250.980469 51.863281 C 251.25 52.101562 251.503906 52.359375 251.742188 52.628906 C 251.980469 52.902344 252.199219 53.183594 252.40625 53.484375 C 252.609375 53.78125 252.792969 54.089844 252.960938 54.410156 C 253.128906 54.730469 253.273438 55.058594 253.402344 55.398438 C 253.527344 55.734375 253.632812 56.082031 253.71875 56.429688 C 253.804688 56.78125 253.871094 57.136719 253.910156 57.496094 C 253.953125 57.855469 253.976562 58.214844 253.972656 58.574219 C 253.972656 58.9375 253.949219 59.296875 253.90625 59.65625 C 253.863281 60.011719 253.796875 60.367188 253.707031 60.71875 C 253.621094 61.066406 253.511719 61.410156 253.386719 61.75 C 253.257812 62.085938 253.105469 62.414062 252.9375 62.734375 C 252.769531 63.054688 252.582031 63.363281 252.378906 63.660156 C 252.171875 63.957031 251.949219 64.238281 251.710938 64.507812 C 251.46875 64.777344 251.214844 65.035156 250.945312 65.273438 C 250.671875 65.511719 250.390625 65.734375 250.089844 65.9375 C 249.792969 66.144531 249.484375 66.328125 249.164062 66.496094 C 248.84375 66.664062 248.515625 66.8125 248.179688 66.9375 C 248.179688 68.140625 248.179688 69.339844 248.179688 70.539062 L 248.179688 104.152344 C 250.363281 104.464844 252.546875 104.789062 254.722656 105.148438 C 267.445312 107.285156 279.8125 112.195312 287.132812 123.375 C 291.585938 130.132812 293.710938 138.019531 294.792969 146.085938 L 330.445312 146.085938 C 330.472656 145.726562 330.519531 145.371094 330.585938 145.015625 C 330.652344 144.664062 330.742188 144.3125 330.851562 143.972656 C 330.960938 143.628906 331.09375 143.292969 331.242188 142.964844 C 331.390625 142.636719 331.5625 142.320312 331.75 142.015625 C 331.9375 141.707031 332.144531 141.414062 332.371094 141.128906 C 332.59375 140.847656 332.832031 140.582031 333.089844 140.328125 C 333.347656 140.074219 333.617188 139.839844 333.902344 139.617188 C 334.1875 139.398438 334.484375 139.195312 334.792969 139.011719 C 335.101562 138.828125 335.421875 138.660156 335.75 138.515625 C 336.082031 138.367188 336.417969 138.242188 336.761719 138.136719 C 337.105469 138.03125 337.457031 137.949219 337.808594 137.886719 C 338.164062 137.820312 338.523438 137.78125 338.882812 137.761719 C 339.242188 137.742188 339.601562 137.742188 339.960938 137.765625 C 340.320312 137.789062 340.675781 137.832031 341.03125 137.898438 C 341.382812 137.964844 341.734375 138.054688 342.078125 138.160156 C 342.421875 138.269531 342.757812 138.398438 343.085938 138.546875 C 343.414062 138.695312 343.730469 138.867188 344.039062 139.050781 C 344.34375 139.238281 344.640625 139.445312 344.921875 139.667969 C 345.207031 139.890625 345.476562 140.128906 345.730469 140.386719 C 345.984375 140.640625 346.222656 140.910156 346.441406 141.195312 C 346.664062 141.476562 346.867188 141.773438 347.054688 142.082031 C 347.238281 142.390625 347.40625 142.710938 347.554688 143.039062 C 347.699219 143.367188 347.828125 143.703125 347.933594 144.046875 C 348.039062 144.390625 348.125 144.742188 348.191406 145.097656 C 348.253906 145.449219 348.296875 145.808594 348.320312 146.167969 C 348.34375 146.527344 348.339844 146.886719 348.320312 147.246094 C 348.296875 147.605469 348.253906 147.960938 348.191406 148.316406 C 348.125 148.671875 348.039062 149.019531 347.933594 149.363281 C 347.824219 149.707031 347.699219 150.042969 347.550781 150.371094 C 347.402344 150.699219 347.234375 151.019531 347.050781 151.328125 C 346.863281 151.636719 346.660156 151.933594 346.4375 152.214844 C 346.214844 152.5 345.976562 152.769531 345.722656 153.023438 C 345.46875 153.28125 345.199219 153.519531 344.917969 153.742188 C 344.632812 153.964844 344.339844 154.167969 344.03125 154.355469 C 343.722656 154.542969 343.40625 154.710938 343.078125 154.859375 C 342.75 155.007812 342.414062 155.136719 342.070312 155.246094 C 341.726562 155.351562 341.378906 155.441406 341.023438 155.503906 C 340.667969 155.570312 340.3125 155.617188 339.953125 155.640625 C 339.59375 155.664062 339.234375 155.664062 338.875 155.644531 C 338.515625 155.621094 338.15625 155.582031 337.804688 155.515625 C 337.449219 155.453125 337.097656 155.371094 336.753906 155.265625 C 336.410156 155.15625 336.074219 155.03125 335.746094 154.886719 C 335.414062 154.738281 335.097656 154.574219 334.785156 154.390625 C 334.476562 154.203125 334.179688 154 333.894531 153.78125 C 333.609375 153.5625 333.339844 153.324219 333.085938 153.070312 C 332.828125 152.816406 332.589844 152.550781 332.363281 152.265625 C 332.140625 151.984375 331.933594 151.691406 331.746094 151.382812 C 331.558594 151.078125 331.390625 150.757812 331.238281 150.429688 L 295.296875 150.429688 C 295.679688 154.585938 295.847656 158.738281 295.96875 162.773438 C 296.160156 169.75 296.277344 176.734375 296.316406 183.71875 C 296.316406 188.714844 296.296875 193.699219 296.257812 198.679688 L 354.359375 198.679688 C 354.472656 198.140625 354.632812 197.617188 354.84375 197.109375 C 355.054688 196.597656 355.308594 196.113281 355.605469 195.652344 C 355.902344 195.191406 356.242188 194.757812 356.621094 194.359375 C 356.996094 193.960938 357.410156 193.597656 357.851562 193.273438 C 358.296875 192.949219 358.765625 192.667969 359.261719 192.429688 C 359.757812 192.191406 360.273438 192 360.804688 191.855469 C 361.332031 191.714844 361.875 191.621094 362.421875 191.574219 C 362.96875 191.53125 363.515625 191.535156 364.066406 191.59375 C 364.613281 191.648438 365.148438 191.753906 365.675781 191.910156 C 366.203125 192.066406 366.714844 192.265625 367.203125 192.515625 C 367.695312 192.761719 368.160156 193.054688 368.597656 193.386719 C 369.035156 193.722656 369.4375 194.09375 369.804688 194.5 C 370.175781 194.910156 370.503906 195.347656 370.792969 195.816406 C 371.082031 196.28125 371.324219 196.773438 371.523438 197.285156 C 371.71875 197.800781 371.871094 198.328125 371.972656 198.867188 C 372.074219 199.40625 372.125 199.953125 372.125 200.503906 Z M 286.628906 243.996094 C 289.59375 217.09375 289.476562 189.757812 288.71875 162.75 C 288.65625 156.492188 288.125 150.28125 287.121094 144.105469 C 286.214844 137.976562 284.136719 132.273438 280.890625 127 C 279.277344 124.632812 277.359375 122.539062 275.148438 120.71875 C 272.933594 118.894531 270.511719 117.421875 267.878906 116.289062 C 262.523438 114.0625 256.96875 112.582031 251.214844 111.847656 C 244.230469 110.769531 236.628906 110.035156 229.320312 109.449219 C 213.527344 108.136719 197.714844 107.71875 181.878906 108.1875 C 174.019531 108.410156 166.164062 108.859375 158.3125 109.53125 C 156.933594 109.652344 155.539062 109.761719 154.160156 109.914062 L 152.527344 110.121094 L 151.972656 110.179688 L 151.375 110.265625 C 148.746094 110.636719 146.117188 111.082031 143.511719 111.558594 C 137.75 112.628906 132.023438 113.960938 126.390625 115.535156 C 123.800781 116.277344 121.230469 117.09375 118.707031 118.042969 C 117.730469 118.386719 116.773438 118.789062 115.839844 119.242188 C 114.925781 119.664062 114.027344 120.132812 113.152344 120.636719 C 112.273438 121.140625 111.242188 121.835938 110.328125 122.460938 L 110.042969 122.675781 L 109.753906 122.894531 L 108.746094 123.757812 C 107.941406 124.46875 107.179688 125.226562 106.464844 126.027344 C 106.175781 126.351562 105.898438 126.6875 105.613281 127.023438 L 105.382812 127.3125 L 105.191406 127.5625 C 104.011719 129.195312 102.984375 130.914062 102.105469 132.726562 C 101.851562 133.230469 101.609375 133.746094 101.386719 134.273438 C 101.386719 134.34375 101.015625 135.199219 100.953125 135.367188 C 100.570312 136.351562 100.234375 137.347656 99.921875 138.355469 C 96.535156 149.160156 95.949219 160.15625 95.300781 171.453125 C 94.785156 180.574219 94.699219 189.710938 94.773438 198.847656 C 94.878906 209.792969 95.265625 220.753906 96.117188 231.667969 C 96.320312 234.296875 96.546875 236.914062 96.824219 239.53125 C 96.96875 240.910156 97.125 242.289062 97.28125 243.671875 L 97.496094 245.316406 C 97.496094 245.566406 97.496094 245.820312 97.59375 246.058594 C 97.6875 246.300781 97.59375 246.289062 97.59375 246.335938 C 98.175781 250.621094 98.976562 254.867188 99.992188 259.074219 C 100.84375 263.148438 102.265625 267.015625 104.253906 270.667969 C 105.6875 272.910156 107.390625 274.917969 109.363281 276.699219 C 111.339844 278.480469 113.511719 279.96875 115.886719 281.160156 C 120.070312 283.292969 124.472656 284.757812 129.09375 285.566406 C 130.761719 285.890625 132.441406 286.191406 134.121094 286.457031 L 136.871094 286.875 L 138.300781 287.082031 L 139.117188 287.082031 C 158.90625 289.515625 178.769531 290.578125 198.707031 290.261719 C 209.453125 290.152344 220.195312 289.722656 230.878906 288.726562 C 233.378906 288.492188 235.867188 288.230469 238.347656 287.933594 C 240.746094 287.632812 242.285156 287.441406 245.023438 287.007812 C 249.332031 286.335938 253.617188 285.519531 257.84375 284.453125 C 259.726562 283.984375 261.601562 283.453125 263.4375 282.867188 C 264.300781 282.601562 265.152344 282.300781 266.003906 282.003906 L 267.207031 281.546875 L 267.820312 281.292969 L 268.417969 281.042969 C 269.515625 280.539062 270.585938 279.984375 271.625 279.375 C 272.117188 279.085938 272.621094 278.773438 273.101562 278.4375 L 273.808594 277.945312 L 274.132812 277.703125 C 274.980469 277.011719 275.78125 276.269531 276.535156 275.472656 C 277.222656 274.777344 277.851562 274.039062 278.429688 273.25 C 281.636719 268.773438 283.148438 264.054688 284.300781 258.617188 C 285.324219 253.78125 286.097656 248.910156 286.628906 243.996094 Z M 286.628906 243.996094 " fill-opacity="1" fill-rule="nonzero"/></g></svg>