<?xml version="1.0" encoding="utf-8"?>
<!-- Generator: Adobe Illustrator 24.0.2, SVG Export Plug-In . SVG Version: 6.00 Build 0)  -->
<svg version="1.1" id="Layer_1" xmlns="http://www.w3.org/2000/svg" xmlns:xlink="http://www.w3.org/1999/xlink" x="0px" y="0px"
	 viewBox="0 0 700 700" style="enable-background:new 0 0 700 700;" xml:space="preserve">
<style type="text/css">
	.st0{fill:none;}
	.st1{fill:#E6E6E6;}
	.st2{fill-rule:evenodd;clip-rule:evenodd;fill:#E6E6E6;}
</style>
<rect x="14" y="59" class="st0" width="627" height="576"/>
<g>
	<path class="st1" d="M514.36,591.65l-1.54-220.31l-0.1,0c0.01-0.73,0.03-1.45,0.03-2.18c0-38.88-10.08-75.41-27.76-107.15
		l-30.99,30.93c10.91,23.13,17.02,48.96,17.02,76.22c0,99-80.43,179.26-179.64,179.26c-99.21,0-179.64-80.26-179.64-179.26
		c0-27.29,6.12-53.15,17.05-76.3L97.8,261.94C80.1,293.7,70,330.25,70,369.17c0,122,99.11,220.91,221.37,220.91
		c74.68,0,140.72-36.9,180.81-93.43l0.8,95.36L514.36,591.65z"/>
	<path class="st1" d="M291.37,148.26c-69.91,0-132.24,32.35-172.81,82.85l29.73,29.67c28.8-37.8,72.29-63.84,121.98-69.64v186.84
		h42.26V191.14c49.7,5.82,93.19,31.88,121.98,69.71l29.73-29.67C423.67,180.64,361.31,148.26,291.37,148.26z"/>
	<path class="st2" d="M528.27,175.18c-6.11-2.6-8.74-8.89-6.25-14.97c2.56-6.25,9.4-8.95,15.64-6.17c5.79,2.59,8.42,9.37,5.89,15.19
		C541.06,174.94,534.08,177.66,528.27,175.18z"/>
	<path class="st2" d="M488.28,142.19c5.57,4.74,13.9,9.76,8.25,19.26c-4.48,7.54-1.65,12.01,2.77,17.45
		c7.73,9.52,15.09,19.35,22.59,29.07c7.96,10.32,14.13,20.26,31.59,17.71c16.27-2.38,28,14.91,25.23,31.06
		c-2.81,16.39-18.07,26.18-34.29,21.97c-16.17-4.2-25.3-19.88-18.56-35.74c4.25-9.99,1.47-16.21-4.45-23.38
		c-9.12-11.02-18.4-22-26.4-33.83c-5.06-7.48-12.13-5.93-18.79-7.4c-8.03-1.78-14.31-5.96-15.71-14.72
		c-1.19-7.44,0.31-14.1,6.66-19.21C473.51,139.35,480.22,139.35,488.28,142.19z"/>
	<path class="st2" d="M564.45,153.95c-12.63-5.38-18.06-18.36-12.92-30.94c5.28-12.92,19.43-18.51,32.31-12.75
		c11.96,5.34,17.39,19.36,12.18,31.39C590.89,153.45,576.47,159.07,564.45,153.95z"/>
	<path class="st2" d="M541.14,277.37c-14.68-6.25-20.99-21.34-15.02-35.96c6.14-15.01,22.58-21.51,37.56-14.82
		c13.9,6.21,20.22,22.5,14.15,36.48C571.88,276.79,555.11,283.32,541.14,277.37z"/>
	<path class="st2" d="M469.55,180.38c-11.33-4.82-16.23-16.37-11.68-27.51c4.67-11.45,17.31-16.35,28.86-11.19
		c10.73,4.79,15.64,17.26,11.02,27.91C493.21,180.04,480.32,184.97,469.55,180.38z"/>
</g>
</svg>
