<svg xmlns="http://www.w3.org/2000/svg" xmlns:xlink="http://www.w3.org/1999/xlink" width="512" zoomAndPan="magnify" viewBox="0 0 384 383.999986" height="512" preserveAspectRatio="xMidYMid meet" version="1.0"><defs><clipPath id="aef92d4535"><path d="M 69.589844 17 L 314.089844 17 L 314.089844 367 L 69.589844 367 Z M 69.589844 17 " clip-rule="nonzero"/></clipPath></defs><g clip-path="url(#aef92d4535)"><path fill="#93c53e" d="M 290.121094 49.355469 L 260.757812 49.355469 C 260.625 48.632812 260.429688 47.925781 260.171875 47.238281 C 259.914062 46.550781 259.597656 45.890625 259.226562 45.257812 C 258.851562 44.625 258.429688 44.027344 257.953125 43.46875 C 257.476562 42.90625 256.957031 42.394531 256.390625 41.925781 C 255.824219 41.457031 255.222656 41.039062 254.585938 40.675781 C 253.945312 40.3125 253.28125 40.007812 252.589844 39.757812 C 251.898438 39.507812 251.191406 39.324219 250.464844 39.199219 C 249.742188 39.074219 249.011719 39.011719 248.277344 39.011719 L 229.117188 39.011719 C 220.25 24.324219 207.476562 17.175781 190.085938 17.175781 C 172.695312 17.175781 159.917969 24.324219 151.054688 39.011719 L 131.851562 39.011719 C 131.117188 39.011719 130.390625 39.078125 129.667969 39.203125 C 128.945312 39.332031 128.242188 39.519531 127.550781 39.769531 C 126.863281 40.019531 126.199219 40.324219 125.5625 40.6875 C 124.929688 41.054688 124.328125 41.46875 123.765625 41.9375 C 123.203125 42.40625 122.683594 42.921875 122.207031 43.480469 C 121.734375 44.039062 121.3125 44.632812 120.941406 45.265625 C 120.570312 45.898438 120.253906 46.558594 120 47.242188 C 119.742188 47.929688 119.546875 48.632812 119.414062 49.355469 L 93.933594 49.355469 C 93.136719 49.355469 92.339844 49.394531 91.546875 49.472656 C 90.753906 49.554688 89.964844 49.671875 89.183594 49.828125 C 88.402344 49.984375 87.632812 50.175781 86.871094 50.410156 C 86.105469 50.640625 85.359375 50.910156 84.621094 51.214844 C 83.886719 51.519531 83.164062 51.859375 82.464844 52.238281 C 81.761719 52.613281 81.078125 53.023438 80.414062 53.464844 C 79.753906 53.90625 79.113281 54.382812 78.496094 54.886719 C 77.882812 55.394531 77.292969 55.929688 76.726562 56.492188 C 76.164062 57.054688 75.628906 57.644531 75.125 58.261719 C 74.617188 58.875 74.144531 59.515625 73.703125 60.179688 C 73.257812 60.839844 72.847656 61.523438 72.472656 62.226562 C 72.097656 62.929688 71.757812 63.648438 71.453125 64.382812 C 71.144531 65.121094 70.878906 65.871094 70.644531 66.632812 C 70.414062 67.394531 70.21875 68.167969 70.0625 68.949219 C 69.90625 69.730469 69.789062 70.515625 69.710938 71.308594 C 69.632812 72.101562 69.59375 72.898438 69.589844 73.695312 L 69.589844 342.429688 C 69.59375 343.226562 69.632812 344.023438 69.710938 344.816406 C 69.789062 345.609375 69.90625 346.394531 70.0625 347.175781 C 70.21875 347.957031 70.414062 348.730469 70.644531 349.492188 C 70.878906 350.253906 71.144531 351.003906 71.453125 351.742188 C 71.757812 352.476562 72.097656 353.195312 72.472656 353.898438 C 72.847656 354.601562 73.257812 355.285156 73.703125 355.945312 C 74.144531 356.609375 74.617188 357.25 75.125 357.863281 C 75.628906 358.480469 76.164062 359.070312 76.726562 359.632812 C 77.292969 360.195312 77.882812 360.730469 78.496094 361.238281 C 79.113281 361.742188 79.753906 362.21875 80.414062 362.660156 C 81.078125 363.101562 81.761719 363.511719 82.464844 363.890625 C 83.164062 364.265625 83.886719 364.605469 84.621094 364.910156 C 85.359375 365.214844 86.105469 365.484375 86.871094 365.71875 C 87.632812 365.949219 88.402344 366.144531 89.183594 366.300781 C 89.964844 366.453125 90.753906 366.574219 91.546875 366.652344 C 92.339844 366.730469 93.136719 366.769531 93.933594 366.769531 L 290.121094 366.769531 C 290.917969 366.769531 291.710938 366.726562 292.503906 366.644531 C 293.296875 366.566406 294.082031 366.445312 294.863281 366.289062 C 295.640625 366.132812 296.410156 365.9375 297.171875 365.703125 C 297.933594 365.46875 298.679688 365.199219 299.414062 364.894531 C 300.152344 364.589844 300.867188 364.246094 301.570312 363.871094 C 302.269531 363.492188 302.953125 363.085938 303.613281 362.640625 C 304.273438 362.199219 304.910156 361.722656 305.523438 361.21875 C 306.140625 360.710938 306.726562 360.175781 307.289062 359.613281 C 307.851562 359.050781 308.386719 358.460938 308.890625 357.84375 C 309.394531 357.230469 309.867188 356.589844 310.308594 355.929688 C 310.75 355.265625 311.160156 354.585938 311.535156 353.882812 C 311.90625 353.179688 312.246094 352.464844 312.550781 351.726562 C 312.855469 350.992188 313.125 350.246094 313.355469 349.484375 C 313.585938 348.722656 313.78125 347.949219 313.9375 347.171875 C 314.09375 346.390625 314.210938 345.605469 314.289062 344.8125 C 314.367188 344.019531 314.40625 343.226562 314.40625 342.429688 L 314.40625 73.695312 C 314.40625 72.898438 314.367188 72.105469 314.289062 71.3125 C 314.210938 70.523438 314.09375 69.734375 313.9375 68.957031 C 313.78125 68.175781 313.585938 67.402344 313.355469 66.640625 C 313.125 65.882812 312.855469 65.132812 312.550781 64.398438 C 312.246094 63.664062 311.90625 62.945312 311.535156 62.242188 C 311.160156 61.539062 310.75 60.859375 310.308594 60.195312 C 309.867188 59.535156 309.394531 58.894531 308.890625 58.28125 C 308.386719 57.664062 307.851562 57.074219 307.289062 56.511719 C 306.726562 55.949219 306.140625 55.414062 305.523438 54.90625 C 304.910156 54.402344 304.273438 53.925781 303.613281 53.484375 C 302.953125 53.042969 302.269531 52.632812 301.570312 52.253906 C 300.867188 51.878906 300.152344 51.535156 299.414062 51.230469 C 298.679688 50.925781 297.933594 50.65625 297.171875 50.421875 C 296.410156 50.1875 295.640625 49.992188 294.863281 49.835938 C 294.082031 49.679688 293.296875 49.558594 292.503906 49.480469 C 291.710938 49.398438 290.917969 49.355469 290.121094 49.355469 Z M 154.671875 63.972656 C 155.078125 63.972656 155.480469 63.933594 155.878906 63.855469 C 156.277344 63.773438 156.664062 63.65625 157.039062 63.5 C 157.417969 63.347656 157.773438 63.15625 158.109375 62.929688 C 158.449219 62.703125 158.761719 62.445312 159.050781 62.160156 C 159.335938 61.871094 159.59375 61.558594 159.820312 61.222656 C 160.046875 60.882812 160.234375 60.527344 160.390625 60.152344 C 160.546875 59.777344 160.664062 59.386719 160.742188 58.988281 C 160.824219 58.589844 160.863281 58.1875 160.863281 57.78125 L 160.863281 46.878906 C 167.546875 34.960938 176.59375 29.570312 190.085938 29.570312 C 203.578125 29.570312 212.597656 34.960938 219.292969 46.878906 L 219.292969 57.78125 C 219.3125 58.175781 219.371094 58.566406 219.460938 58.949219 C 219.554688 59.332031 219.683594 59.703125 219.847656 60.0625 C 220.011719 60.421875 220.210938 60.765625 220.4375 61.085938 C 220.667969 61.40625 220.925781 61.703125 221.210938 61.976562 C 221.496094 62.25 221.804688 62.492188 222.136719 62.707031 C 222.46875 62.921875 222.820312 63.101562 223.1875 63.246094 C 223.554688 63.394531 223.929688 63.503906 224.316406 63.578125 C 224.707031 63.652344 225.097656 63.691406 225.492188 63.691406 C 225.886719 63.691406 226.277344 63.652344 226.667969 63.578125 C 227.054688 63.503906 227.433594 63.394531 227.796875 63.246094 C 228.164062 63.101562 228.515625 62.921875 228.847656 62.707031 C 229.179688 62.492188 229.488281 62.25 229.773438 61.976562 C 230.058594 61.703125 230.316406 61.40625 230.546875 61.085938 C 230.777344 60.765625 230.972656 60.421875 231.136719 60.0625 C 231.300781 59.703125 231.429688 59.332031 231.523438 58.949219 C 231.617188 58.566406 231.671875 58.175781 231.691406 57.78125 L 231.691406 51.394531 L 248.277344 51.394531 L 248.558594 91.648438 L 131.78125 91.929688 L 131.5 82.082031 L 131.5 51.675781 L 131.78125 51.394531 L 148.480469 51.394531 L 148.480469 57.78125 C 148.480469 58.1875 148.519531 58.589844 148.601562 58.988281 C 148.679688 59.386719 148.796875 59.777344 148.953125 60.152344 C 149.109375 60.527344 149.296875 60.882812 149.523438 61.222656 C 149.75 61.558594 150.007812 61.871094 150.292969 62.160156 C 150.582031 62.445312 150.894531 62.703125 151.230469 62.929688 C 151.570312 63.15625 151.925781 63.347656 152.300781 63.5 C 152.679688 63.65625 153.066406 63.773438 153.464844 63.855469 C 153.863281 63.933594 154.265625 63.972656 154.671875 63.972656 Z M 81.988281 342.429688 L 81.988281 73.695312 C 81.988281 72.910156 82.0625 72.132812 82.214844 71.363281 C 82.367188 70.59375 82.59375 69.847656 82.894531 69.121094 C 83.195312 68.398438 83.5625 67.707031 84 67.054688 C 84.433594 66.402344 84.929688 65.796875 85.484375 65.242188 C 86.039062 64.6875 86.640625 64.191406 87.292969 63.757812 C 87.945312 63.320312 88.636719 62.949219 89.359375 62.648438 C 90.085938 62.347656 90.832031 62.121094 91.601562 61.96875 C 92.371094 61.8125 93.148438 61.738281 93.933594 61.734375 L 119.171875 61.734375 L 119.171875 79.589844 L 104.933594 79.589844 C 104.527344 79.589844 104.125 79.628906 103.726562 79.710938 C 103.328125 79.789062 102.941406 79.90625 102.566406 80.0625 C 102.191406 80.21875 101.832031 80.40625 101.496094 80.632812 C 101.15625 80.859375 100.84375 81.117188 100.558594 81.402344 C 100.269531 81.691406 100.011719 82.003906 99.789062 82.339844 C 99.5625 82.679688 99.371094 83.035156 99.214844 83.410156 C 99.058594 83.789062 98.941406 84.175781 98.863281 84.574219 C 98.785156 84.972656 98.742188 85.375 98.742188 85.78125 L 98.742188 329.316406 C 98.742188 329.722656 98.785156 330.125 98.863281 330.523438 C 98.941406 330.921875 99.058594 331.3125 99.214844 331.6875 C 99.371094 332.0625 99.5625 332.417969 99.789062 332.757812 C 100.011719 333.09375 100.269531 333.40625 100.558594 333.695312 C 100.84375 333.980469 101.15625 334.238281 101.496094 334.464844 C 101.832031 334.691406 102.191406 334.882812 102.566406 335.035156 C 102.941406 335.191406 103.328125 335.308594 103.726562 335.390625 C 104.125 335.46875 104.527344 335.507812 104.933594 335.507812 L 279.105469 335.507812 C 279.511719 335.507812 279.914062 335.46875 280.3125 335.390625 C 280.710938 335.308594 281.097656 335.191406 281.476562 335.035156 C 281.851562 334.882812 282.207031 334.691406 282.546875 334.464844 C 282.882812 334.238281 283.195312 333.980469 283.484375 333.695312 C 283.769531 333.40625 284.027344 333.09375 284.253906 332.757812 C 284.480469 332.417969 284.667969 332.0625 284.824219 331.6875 C 284.980469 331.3125 285.097656 330.921875 285.179688 330.523438 C 285.257812 330.125 285.296875 329.722656 285.296875 329.316406 L 285.296875 85.78125 C 285.296875 85.375 285.257812 84.972656 285.179688 84.574219 C 285.097656 84.175781 284.980469 83.789062 284.824219 83.410156 C 284.667969 83.035156 284.480469 82.679688 284.253906 82.339844 C 284.027344 82.003906 283.769531 81.691406 283.484375 81.402344 C 283.195312 81.117188 282.882812 80.859375 282.546875 80.632812 C 282.207031 80.40625 281.851562 80.21875 281.476562 80.0625 C 281.097656 79.90625 280.710938 79.789062 280.3125 79.710938 C 279.914062 79.628906 279.511719 79.589844 279.105469 79.589844 L 260.941406 79.589844 L 260.941406 61.734375 L 290.066406 61.734375 C 290.851562 61.738281 291.628906 61.8125 292.398438 61.96875 C 293.167969 62.121094 293.914062 62.347656 294.640625 62.648438 C 295.363281 62.949219 296.050781 63.320312 296.703125 63.757812 C 297.355469 64.191406 297.960938 64.6875 298.515625 65.242188 C 299.070312 65.796875 299.5625 66.402344 300 67.054688 C 300.433594 67.707031 300.800781 68.398438 301.101562 69.121094 C 301.402344 69.847656 301.628906 70.59375 301.78125 71.363281 C 301.933594 72.132812 302.011719 72.910156 302.011719 73.695312 L 302.011719 342.429688 C 302.011719 343.214844 301.933594 343.992188 301.78125 344.761719 C 301.628906 345.53125 301.402344 346.277344 301.101562 347.003906 C 300.800781 347.730469 300.433594 348.417969 300 349.070312 C 299.5625 349.722656 299.070312 350.328125 298.515625 350.882812 C 297.960938 351.4375 297.355469 351.933594 296.703125 352.371094 C 296.050781 352.804688 295.363281 353.175781 294.640625 353.476562 C 293.914062 353.777344 293.167969 354.003906 292.398438 354.15625 C 291.628906 354.3125 290.851562 354.390625 290.066406 354.390625 L 93.933594 354.390625 C 93.148438 354.390625 92.371094 354.3125 91.601562 354.15625 C 90.832031 354.003906 90.085938 353.777344 89.359375 353.476562 C 88.636719 353.175781 87.945312 352.804688 87.292969 352.371094 C 86.640625 351.933594 86.039062 351.4375 85.484375 350.882812 C 84.929688 350.328125 84.433594 349.722656 84 349.070312 C 83.5625 348.417969 83.195312 347.730469 82.894531 347.003906 C 82.59375 346.277344 82.367188 345.53125 82.214844 344.761719 C 82.0625 343.992188 81.988281 343.214844 81.988281 342.429688 Z M 131.851562 104.324219 L 248.277344 104.324219 C 249.097656 104.324219 249.90625 104.246094 250.710938 104.089844 C 251.511719 103.933594 252.292969 103.703125 253.050781 103.394531 C 253.808594 103.085938 254.53125 102.707031 255.214844 102.257812 C 255.898438 101.8125 256.535156 101.300781 257.121094 100.730469 C 257.707031 100.160156 258.230469 99.539062 258.695312 98.867188 C 259.164062 98.191406 259.558594 97.480469 259.886719 96.734375 C 260.214844 95.984375 260.464844 95.207031 260.644531 94.410156 C 260.820312 93.613281 260.921875 92.804688 260.941406 91.984375 L 272.902344 91.984375 L 272.902344 323.125 L 111.097656 323.125 L 111.097656 91.984375 L 119.160156 91.984375 C 119.179688 92.804688 119.28125 93.613281 119.457031 94.414062 C 119.636719 95.214844 119.890625 95.988281 120.21875 96.738281 C 120.546875 97.488281 120.941406 98.203125 121.410156 98.875 C 121.875 99.546875 122.402344 100.171875 122.992188 100.742188 C 123.578125 101.3125 124.214844 101.820312 124.902344 102.269531 C 125.585938 102.714844 126.308594 103.09375 127.070312 103.402344 C 127.828125 103.707031 128.609375 103.941406 129.414062 104.09375 C 130.21875 104.25 131.03125 104.328125 131.851562 104.324219 Z M 131.851562 104.324219 " fill-opacity="1" fill-rule="nonzero"/></g><path fill="#93c53e" d="M 257.71875 266.707031 L 228.664062 266.707031 C 228.257812 266.707031 227.855469 266.746094 227.457031 266.824219 C 227.058594 266.902344 226.671875 267.023438 226.296875 267.175781 C 225.921875 267.332031 225.5625 267.523438 225.226562 267.75 C 224.886719 267.976562 224.574219 268.230469 224.289062 268.519531 C 224 268.808594 223.742188 269.121094 223.519531 269.457031 C 223.292969 269.796875 223.101562 270.152344 222.945312 270.527344 C 222.789062 270.902344 222.671875 271.289062 222.59375 271.6875 C 222.515625 272.085938 222.472656 272.492188 222.472656 272.898438 C 222.472656 273.304688 222.515625 273.707031 222.59375 274.105469 C 222.671875 274.503906 222.789062 274.890625 222.945312 275.265625 C 223.101562 275.640625 223.292969 276 223.519531 276.335938 C 223.742188 276.675781 224 276.988281 224.289062 277.273438 C 224.574219 277.5625 224.886719 277.820312 225.226562 278.042969 C 225.5625 278.269531 225.921875 278.460938 226.296875 278.617188 C 226.671875 278.773438 227.058594 278.890625 227.457031 278.96875 C 227.855469 279.046875 228.257812 279.085938 228.664062 279.085938 L 257.71875 279.085938 C 258.125 279.085938 258.527344 279.046875 258.925781 278.96875 C 259.324219 278.890625 259.714844 278.773438 260.089844 278.617188 C 260.464844 278.460938 260.820312 278.269531 261.160156 278.042969 C 261.496094 277.820312 261.808594 277.5625 262.097656 277.273438 C 262.382812 276.988281 262.640625 276.675781 262.867188 276.335938 C 263.09375 276 263.285156 275.640625 263.4375 275.265625 C 263.59375 274.890625 263.710938 274.503906 263.792969 274.105469 C 263.871094 273.707031 263.910156 273.304688 263.910156 272.898438 C 263.910156 272.492188 263.871094 272.085938 263.792969 271.6875 C 263.710938 271.289062 263.59375 270.902344 263.4375 270.527344 C 263.285156 270.152344 263.09375 269.796875 262.867188 269.457031 C 262.640625 269.121094 262.382812 268.808594 262.097656 268.519531 C 261.808594 268.230469 261.496094 267.976562 261.160156 267.75 C 260.820312 267.523438 260.464844 267.332031 260.089844 267.175781 C 259.714844 267.023438 259.324219 266.902344 258.925781 266.824219 C 258.527344 266.746094 258.125 266.707031 257.71875 266.707031 Z M 257.71875 266.707031 " fill-opacity="1" fill-rule="nonzero"/><path fill="#93c53e" d="M 257.71875 173.507812 L 218.519531 173.507812 C 218.125 173.527344 217.738281 173.582031 217.351562 173.675781 C 216.96875 173.769531 216.597656 173.898438 216.238281 174.0625 C 215.878906 174.226562 215.539062 174.421875 215.21875 174.652344 C 214.894531 174.878906 214.597656 175.136719 214.324219 175.421875 C 214.054688 175.707031 213.808594 176.019531 213.597656 176.351562 C 213.382812 176.683594 213.203125 177.03125 213.054688 177.398438 C 212.910156 177.765625 212.796875 178.144531 212.722656 178.53125 C 212.648438 178.917969 212.613281 179.308594 212.613281 179.703125 C 212.613281 180.101562 212.648438 180.492188 212.722656 180.878906 C 212.796875 181.265625 212.910156 181.644531 213.054688 182.011719 C 213.203125 182.378906 213.382812 182.726562 213.597656 183.058594 C 213.808594 183.390625 214.054688 183.699219 214.324219 183.988281 C 214.597656 184.273438 214.894531 184.53125 215.21875 184.757812 C 215.539062 184.988281 215.878906 185.183594 216.238281 185.347656 C 216.597656 185.511719 216.96875 185.640625 217.351562 185.734375 C 217.738281 185.828125 218.125 185.882812 218.519531 185.902344 L 257.71875 185.902344 C 258.113281 185.882812 258.503906 185.828125 258.886719 185.734375 C 259.269531 185.640625 259.644531 185.511719 260.003906 185.347656 C 260.359375 185.183594 260.703125 184.988281 261.023438 184.757812 C 261.34375 184.53125 261.640625 184.273438 261.914062 183.988281 C 262.1875 183.699219 262.429688 183.390625 262.644531 183.058594 C 262.859375 182.726562 263.039062 182.378906 263.183594 182.011719 C 263.332031 181.644531 263.441406 181.265625 263.515625 180.878906 C 263.589844 180.492188 263.628906 180.101562 263.628906 179.703125 C 263.628906 179.308594 263.589844 178.917969 263.515625 178.53125 C 263.441406 178.144531 263.332031 177.765625 263.183594 177.398438 C 263.039062 177.03125 262.859375 176.683594 262.644531 176.351562 C 262.429688 176.019531 262.1875 175.707031 261.914062 175.421875 C 261.640625 175.136719 261.34375 174.878906 261.023438 174.652344 C 260.703125 174.421875 260.359375 174.226562 260.003906 174.0625 C 259.644531 173.898438 259.269531 173.769531 258.886719 173.675781 C 258.503906 173.582031 258.113281 173.527344 257.71875 173.507812 Z M 257.71875 173.507812 " fill-opacity="1" fill-rule="nonzero"/><path fill="#93c53e" d="M 171.511719 208.527344 C 171.90625 208.507812 172.296875 208.453125 172.679688 208.359375 C 173.066406 208.265625 173.4375 208.136719 173.796875 207.972656 C 174.15625 207.808594 174.496094 207.613281 174.816406 207.382812 C 175.140625 207.15625 175.4375 206.898438 175.707031 206.609375 C 175.980469 206.324219 176.222656 206.015625 176.4375 205.683594 C 176.652344 205.351562 176.832031 205 176.976562 204.636719 C 177.125 204.269531 177.234375 203.890625 177.3125 203.503906 C 177.386719 203.117188 177.421875 202.722656 177.421875 202.328125 C 177.421875 201.933594 177.386719 201.542969 177.3125 201.15625 C 177.234375 200.765625 177.125 200.390625 176.976562 200.023438 C 176.832031 199.65625 176.652344 199.308594 176.4375 198.976562 C 176.222656 198.640625 175.980469 198.332031 175.707031 198.046875 C 175.4375 197.761719 175.140625 197.503906 174.816406 197.273438 C 174.496094 197.046875 174.15625 196.847656 173.796875 196.683594 C 173.4375 196.519531 173.066406 196.390625 172.679688 196.300781 C 172.296875 196.207031 171.90625 196.148438 171.511719 196.132812 C 170.832031 196.132812 170.152344 196.113281 169.472656 196.070312 C 168.789062 196.03125 168.113281 195.972656 167.433594 195.894531 C 166.757812 195.816406 166.082031 195.71875 165.414062 195.601562 C 164.742188 195.484375 164.074219 195.347656 163.410156 195.191406 C 162.746094 195.039062 162.089844 194.863281 161.433594 194.667969 C 160.78125 194.476562 160.132812 194.261719 159.492188 194.03125 C 158.851562 193.800781 158.21875 193.554688 157.589844 193.285156 C 156.964844 193.019531 156.34375 192.734375 155.734375 192.429688 C 155.125 192.128906 154.523438 191.808594 153.929688 191.46875 C 153.339844 191.132812 152.757812 190.777344 152.183594 190.40625 C 151.613281 190.035156 151.054688 189.648438 150.503906 189.246094 C 149.953125 188.84375 149.417969 188.425781 148.890625 187.992188 C 148.367188 187.558594 147.855469 187.109375 147.355469 186.644531 C 146.855469 186.179688 146.371094 185.703125 145.898438 185.210938 C 145.425781 184.71875 144.96875 184.214844 144.523438 183.699219 C 144.082031 183.179688 143.652344 182.648438 143.242188 182.105469 C 142.828125 181.566406 142.433594 181.011719 142.050781 180.445312 C 141.671875 179.878906 141.308594 179.304688 140.960938 178.71875 C 140.613281 178.132812 140.28125 177.535156 139.96875 176.929688 C 139.65625 176.324219 139.359375 175.710938 139.082031 175.089844 C 138.804688 174.46875 138.546875 173.835938 138.304688 173.199219 C 138.0625 172.5625 137.839844 171.917969 137.632812 171.269531 C 137.429688 170.621094 137.242188 169.964844 137.078125 169.304688 C 136.910156 168.644531 136.761719 167.976562 136.632812 167.308594 C 136.503906 166.640625 136.394531 165.96875 136.304688 165.292969 C 136.214844 164.617188 136.144531 163.9375 136.09375 163.257812 C 136.042969 162.578125 136.011719 161.898438 136 161.21875 C 135.988281 160.535156 135.996094 159.855469 136.023438 159.175781 C 136.050781 158.492188 136.097656 157.8125 136.164062 157.136719 C 136.230469 156.457031 136.316406 155.78125 136.421875 155.109375 C 136.527344 154.433594 136.652344 153.765625 136.796875 153.097656 C 136.941406 152.433594 137.105469 151.773438 137.285156 151.113281 C 137.46875 150.457031 137.667969 149.808594 137.886719 149.164062 C 138.109375 148.515625 138.347656 147.878906 138.601562 147.246094 C 138.859375 146.617188 139.132812 145.992188 139.425781 145.375 C 139.71875 144.761719 140.027344 144.15625 140.351562 143.554688 C 140.679688 142.957031 141.023438 142.371094 141.386719 141.792969 C 141.746094 141.214844 142.125 140.648438 142.515625 140.089844 C 142.910156 139.535156 143.320312 138.988281 143.746094 138.457031 C 144.167969 137.925781 144.609375 137.402344 145.0625 136.898438 C 145.519531 136.390625 145.988281 135.894531 146.46875 135.414062 C 146.953125 134.933594 147.449219 134.46875 147.960938 134.015625 C 148.46875 133.5625 148.992188 133.125 149.527344 132.703125 C 150.0625 132.28125 150.609375 131.875 151.167969 131.488281 C 151.726562 131.097656 152.296875 130.722656 152.875 130.363281 C 153.457031 130.007812 154.046875 129.667969 154.644531 129.34375 C 155.246094 129.019531 155.855469 128.710938 156.472656 128.421875 C 157.089844 128.136719 157.714844 127.863281 158.347656 127.613281 C 158.980469 127.359375 159.621094 127.125 160.265625 126.910156 C 160.914062 126.691406 161.5625 126.496094 162.222656 126.316406 C 162.878906 126.140625 163.542969 125.980469 164.207031 125.839844 C 164.875 125.699219 165.546875 125.578125 166.21875 125.476562 C 166.894531 125.375 167.570312 125.292969 168.25 125.230469 C 168.925781 125.167969 169.605469 125.125 170.289062 125.101562 C 170.96875 125.074219 171.648438 125.070312 172.332031 125.085938 C 173.011719 125.101562 173.691406 125.136719 174.371094 125.191406 C 175.050781 125.246094 175.730469 125.320312 176.402344 125.414062 C 177.078125 125.507812 177.75 125.621094 178.417969 125.753906 C 179.085938 125.886719 179.75 126.039062 180.410156 126.207031 C 181.070312 126.378906 181.726562 126.566406 182.375 126.777344 C 183.023438 126.984375 183.664062 127.210938 184.300781 127.457031 C 184.9375 127.703125 185.566406 127.964844 186.1875 128.246094 C 186.808594 128.527344 187.417969 128.828125 188.023438 129.144531 C 188.625 129.460938 189.21875 129.792969 189.804688 130.144531 L 179.335938 144.464844 L 173.863281 138.753906 C 173.496094 138.371094 173.109375 138.007812 172.703125 137.664062 C 172.300781 137.316406 171.878906 136.992188 171.441406 136.691406 C 171.007812 136.386719 170.554688 136.105469 170.09375 135.84375 C 169.628906 135.585938 169.152344 135.347656 168.664062 135.136719 C 168.179688 134.925781 167.683594 134.734375 167.175781 134.570312 C 166.671875 134.40625 166.160156 134.269531 165.640625 134.15625 C 165.121094 134.042969 164.597656 133.953125 164.070312 133.890625 C 163.539062 133.828125 163.011719 133.792969 162.480469 133.785156 C 161.949219 133.773438 161.417969 133.789062 160.886719 133.832031 C 160.359375 133.875 159.832031 133.941406 159.308594 134.035156 C 158.785156 134.128906 158.265625 134.25 157.753906 134.394531 C 157.246094 134.539062 156.742188 134.707031 156.246094 134.902344 C 155.75 135.09375 155.265625 135.3125 154.792969 135.554688 C 154.320312 135.796875 153.859375 136.058594 153.414062 136.347656 C 152.964844 136.632812 152.53125 136.941406 152.117188 137.269531 C 151.699219 137.601562 151.296875 137.949219 150.914062 138.316406 C 150.53125 138.6875 150.167969 139.074219 149.824219 139.476562 C 149.476562 139.882812 149.152344 140.300781 148.851562 140.738281 C 148.546875 141.175781 148.265625 141.625 148.003906 142.089844 C 147.746094 142.554688 147.511719 143.027344 147.296875 143.515625 C 147.085938 144.003906 146.894531 144.5 146.734375 145.003906 C 146.570312 145.511719 146.429688 146.023438 146.316406 146.542969 C 146.203125 147.0625 146.113281 147.585938 146.050781 148.113281 C 145.992188 148.640625 145.953125 149.171875 145.945312 149.703125 C 145.933594 150.234375 145.949219 150.765625 145.992188 151.292969 C 146.035156 151.824219 146.101562 152.351562 146.195312 152.875 C 146.289062 153.398438 146.410156 153.914062 146.554688 154.425781 C 146.699219 154.9375 146.867188 155.441406 147.0625 155.933594 C 147.253906 156.429688 147.472656 156.914062 147.714844 157.386719 C 147.957031 157.859375 148.222656 158.320312 148.507812 158.769531 C 148.792969 159.214844 149.101562 159.648438 149.433594 160.066406 C 149.761719 160.484375 150.109375 160.882812 150.480469 161.265625 L 169.402344 180.964844 C 170.226562 181.820312 171.136719 182.570312 172.132812 183.214844 L 172.34375 183.328125 C 173.269531 183.929688 174.25 184.425781 175.285156 184.820312 L 175.59375 184.917969 C 176.535156 185.273438 177.5 185.53125 178.492188 185.691406 C 178.84375 185.691406 179.179688 185.691406 179.535156 185.804688 C 179.886719 185.917969 180.574219 185.957031 181.09375 185.957031 C 181.617188 185.957031 181.855469 185.957031 182.21875 185.957031 C 183.40625 185.878906 184.566406 185.671875 185.707031 185.335938 C 186.847656 185 187.9375 184.542969 188.972656 183.96875 C 190.011719 183.390625 190.976562 182.710938 191.863281 181.917969 C 192.75 181.128906 193.542969 180.253906 194.234375 179.289062 L 219.40625 144.367188 C 220.28125 143.160156 220.976562 141.855469 221.492188 140.453125 C 222.007812 139.054688 222.320312 137.609375 222.4375 136.121094 C 222.550781 134.636719 222.460938 133.160156 222.171875 131.695312 C 221.878906 130.234375 221.390625 128.835938 220.714844 127.507812 C 220.035156 126.179688 219.191406 124.96875 218.175781 123.871094 C 217.164062 122.777344 216.019531 121.839844 214.75 121.0625 C 213.476562 120.28125 212.121094 119.691406 210.6875 119.285156 C 209.25 118.878906 207.785156 118.675781 206.292969 118.675781 C 205.421875 118.675781 204.554688 118.746094 203.691406 118.886719 C 201.761719 119.207031 199.949219 119.855469 198.261719 120.84375 C 197.488281 120.328125 196.699219 119.835938 195.898438 119.363281 C 195.097656 118.894531 194.285156 118.445312 193.457031 118.023438 C 192.628906 117.601562 191.792969 117.203125 190.941406 116.828125 C 190.089844 116.453125 189.230469 116.105469 188.359375 115.78125 C 187.488281 115.457031 186.609375 115.160156 185.722656 114.886719 C 184.832031 114.613281 183.9375 114.367188 183.035156 114.148438 C 182.132812 113.925781 181.226562 113.734375 180.3125 113.566406 C 179.398438 113.398438 178.480469 113.257812 177.558594 113.144531 C 176.636719 113.03125 175.710938 112.941406 174.785156 112.882812 C 173.859375 112.820312 172.929688 112.789062 172 112.78125 C 171.070312 112.777344 170.144531 112.796875 169.214844 112.84375 C 168.289062 112.894531 167.363281 112.96875 166.4375 113.070312 C 165.515625 113.171875 164.597656 113.300781 163.679688 113.457031 C 162.765625 113.609375 161.855469 113.792969 160.949219 114 C 160.042969 114.210938 159.144531 114.445312 158.253906 114.707031 C 157.363281 114.964844 156.480469 115.253906 155.605469 115.566406 C 154.730469 115.878906 153.863281 116.214844 153.007812 116.578125 C 152.152344 116.941406 151.308594 117.328125 150.476562 117.738281 C 149.644531 118.152344 148.824219 118.585938 148.015625 119.046875 C 147.210938 119.503906 146.417969 119.988281 145.636719 120.492188 C 144.859375 121 144.09375 121.527344 143.34375 122.078125 C 142.597656 122.628906 141.867188 123.199219 141.148438 123.792969 C 140.433594 124.386719 139.738281 125 139.058594 125.632812 C 138.378906 126.265625 137.71875 126.917969 137.078125 127.589844 C 136.4375 128.261719 135.816406 128.953125 135.214844 129.660156 C 134.613281 130.371094 134.03125 131.09375 133.472656 131.835938 C 132.914062 132.578125 132.378906 133.335938 131.863281 134.109375 C 131.347656 134.882812 130.855469 135.671875 130.386719 136.472656 C 129.917969 137.273438 129.472656 138.089844 129.050781 138.917969 C 128.628906 139.746094 128.234375 140.585938 127.859375 141.433594 C 127.488281 142.285156 127.140625 143.148438 126.820312 144.019531 C 126.496094 144.890625 126.199219 145.769531 125.929688 146.660156 C 125.65625 147.546875 125.414062 148.441406 125.191406 149.34375 C 124.972656 150.246094 124.78125 151.15625 124.617188 152.070312 C 124.449219 152.984375 124.3125 153.902344 124.199219 154.824219 C 124.085938 155.746094 124 156.671875 123.941406 157.597656 C 123.882812 158.527344 123.851562 159.453125 123.847656 160.382812 C 123.84375 161.3125 123.863281 162.238281 123.914062 163.167969 C 123.964844 164.09375 124.039062 165.019531 124.144531 165.945312 C 124.246094 166.867188 124.375 167.785156 124.535156 168.703125 C 124.691406 169.617188 124.875 170.527344 125.085938 171.433594 C 125.292969 172.335938 125.53125 173.234375 125.792969 174.125 C 126.054688 175.019531 126.34375 175.902344 126.65625 176.773438 C 126.96875 177.648438 127.308594 178.515625 127.671875 179.367188 C 128.039062 180.222656 128.425781 181.066406 128.839844 181.898438 C 129.253906 182.730469 129.6875 183.550781 130.148438 184.355469 C 130.609375 185.164062 131.09375 185.953125 131.601562 186.734375 C 132.109375 187.511719 132.640625 188.273438 133.191406 189.023438 C 133.742188 189.769531 134.316406 190.5 134.910156 191.214844 C 135.503906 191.929688 136.117188 192.625 136.753906 193.304688 C 137.386719 193.980469 138.039062 194.640625 138.714844 195.28125 C 139.386719 195.921875 140.078125 196.542969 140.789062 197.140625 C 141.496094 197.742188 142.222656 198.320312 142.964844 198.878906 C 143.707031 199.433594 144.46875 199.972656 145.242188 200.484375 C 146.015625 200.996094 146.804688 201.488281 147.605469 201.957031 C 148.410156 202.421875 149.226562 202.867188 150.054688 203.289062 C 150.882812 203.707031 151.722656 204.101562 152.574219 204.472656 C 153.425781 204.84375 154.285156 205.191406 155.160156 205.511719 C 156.03125 205.832031 156.910156 206.128906 157.800781 206.398438 C 158.6875 206.667969 159.585938 206.910156 160.488281 207.128906 C 161.390625 207.347656 162.300781 207.535156 163.214844 207.699219 C 164.128906 207.867188 165.046875 208.003906 165.96875 208.113281 C 166.890625 208.226562 167.816406 208.308594 168.742188 208.367188 C 169.671875 208.421875 170.597656 208.453125 171.527344 208.457031 Z M 180.460938 160.367188 C 181.378906 160.300781 182.238281 160.042969 183.039062 159.59375 C 183.839844 159.148438 184.511719 158.550781 185.046875 157.804688 L 203 132.886719 C 203.113281 132.761719 203.226562 132.632812 203.296875 132.535156 C 203.898438 131.761719 204.679688 131.292969 205.648438 131.128906 C 205.851562 131.113281 206.058594 131.113281 206.265625 131.128906 C 207.085938 131.128906 207.828125 131.375 208.488281 131.859375 C 208.898438 132.15625 209.238281 132.519531 209.503906 132.949219 C 209.769531 133.382812 209.945312 133.847656 210.023438 134.347656 C 210.105469 134.847656 210.085938 135.34375 209.96875 135.835938 C 209.851562 136.332031 209.644531 136.78125 209.347656 137.191406 L 205.5625 142.398438 L 184.203125 171.945312 C 183.839844 172.433594 183.382812 172.816406 182.839844 173.09375 C 182.296875 173.371094 181.71875 173.511719 181.109375 173.519531 C 180 173.542969 179.0625 173.152344 178.296875 172.351562 L 159.371094 152.65625 C 159.019531 152.289062 158.753906 151.871094 158.570312 151.402344 C 158.386719 150.929688 158.300781 150.441406 158.3125 149.9375 C 158.324219 149.433594 158.429688 148.949219 158.632812 148.484375 C 158.835938 148.023438 159.117188 147.617188 159.484375 147.265625 C 159.851562 146.917969 160.265625 146.652344 160.734375 146.464844 C 160.875 146.464844 161.03125 146.464844 161.171875 146.464844 C 161.488281 146.363281 161.8125 146.300781 162.144531 146.28125 C 162.4375 146.316406 162.730469 146.375 163.015625 146.464844 C 163.207031 146.488281 163.394531 146.527344 163.578125 146.589844 C 164.0625 146.785156 164.484375 147.070312 164.84375 147.449219 L 175.453125 158.507812 C 176.039062 159.121094 176.71875 159.597656 177.5 159.929688 C 178.28125 160.261719 179.09375 160.425781 179.941406 160.421875 Z M 180.460938 160.367188 " fill-opacity="1" fill-rule="nonzero"/><path fill="#93c53e" d="M 257.71875 289.738281 L 218.519531 289.738281 C 218.125 289.757812 217.738281 289.8125 217.351562 289.90625 C 216.96875 290 216.597656 290.128906 216.238281 290.292969 C 215.878906 290.457031 215.539062 290.652344 215.21875 290.882812 C 214.894531 291.109375 214.597656 291.367188 214.324219 291.65625 C 214.054688 291.941406 213.808594 292.25 213.597656 292.582031 C 213.382812 292.914062 213.203125 293.261719 213.054688 293.628906 C 212.910156 293.996094 212.796875 294.375 212.722656 294.761719 C 212.648438 295.148438 212.613281 295.542969 212.613281 295.9375 C 212.613281 296.332031 212.648438 296.722656 212.722656 297.109375 C 212.796875 297.5 212.910156 297.875 213.054688 298.242188 C 213.203125 298.609375 213.382812 298.957031 213.597656 299.289062 C 213.808594 299.621094 214.054688 299.933594 214.324219 300.21875 C 214.597656 300.503906 214.894531 300.761719 215.21875 300.992188 C 215.539062 301.21875 215.878906 301.417969 216.238281 301.582031 C 216.597656 301.746094 216.96875 301.871094 217.351562 301.964844 C 217.738281 302.058594 218.125 302.113281 218.519531 302.132812 L 257.71875 302.132812 C 258.113281 302.113281 258.503906 302.058594 258.886719 301.964844 C 259.269531 301.871094 259.644531 301.746094 260 301.582031 C 260.359375 301.417969 260.703125 301.21875 261.023438 300.992188 C 261.34375 300.761719 261.640625 300.503906 261.914062 300.21875 C 262.1875 299.933594 262.429688 299.621094 262.644531 299.289062 C 262.859375 298.957031 263.039062 298.609375 263.183594 298.242188 C 263.332031 297.875 263.441406 297.5 263.515625 297.109375 C 263.589844 296.722656 263.628906 296.332031 263.628906 295.9375 C 263.628906 295.542969 263.589844 295.148438 263.515625 294.761719 C 263.441406 294.375 263.332031 293.996094 263.183594 293.628906 C 263.039062 293.261719 262.859375 292.914062 262.644531 292.582031 C 262.429688 292.25 262.1875 291.941406 261.914062 291.65625 C 261.640625 291.367188 261.34375 291.109375 261.023438 290.882812 C 260.703125 290.652344 260.359375 290.457031 260 290.292969 C 259.644531 290.128906 259.269531 290 258.886719 289.90625 C 258.503906 289.8125 258.113281 289.757812 257.71875 289.738281 Z M 257.71875 289.738281 " fill-opacity="1" fill-rule="nonzero"/><path fill="#93c53e" d="M 169.992188 314.910156 C 170.398438 314.910156 170.804688 314.871094 171.203125 314.789062 C 171.601562 314.710938 171.988281 314.59375 172.363281 314.4375 C 172.738281 314.28125 173.09375 314.09375 173.433594 313.867188 C 173.769531 313.640625 174.082031 313.382812 174.371094 313.097656 C 174.660156 312.808594 174.914062 312.496094 175.140625 312.15625 C 175.367188 311.820312 175.558594 311.464844 175.714844 311.085938 C 175.867188 310.710938 175.984375 310.324219 176.066406 309.925781 C 176.144531 309.527344 176.183594 309.125 176.183594 308.71875 C 176.183594 308.3125 176.144531 307.910156 176.066406 307.511719 C 175.984375 307.113281 175.867188 306.726562 175.714844 306.351562 C 175.558594 305.972656 175.367188 305.617188 175.140625 305.28125 C 174.914062 304.941406 174.660156 304.628906 174.371094 304.339844 C 174.082031 304.054688 173.769531 303.796875 173.433594 303.570312 C 173.09375 303.34375 172.738281 303.15625 172.363281 303 C 171.988281 302.84375 171.601562 302.726562 171.203125 302.648438 C 170.804688 302.566406 170.398438 302.527344 169.992188 302.527344 C 169.3125 302.527344 168.632812 302.507812 167.949219 302.46875 C 167.269531 302.429688 166.59375 302.371094 165.914062 302.292969 C 165.238281 302.214844 164.5625 302.117188 163.894531 302 C 163.222656 301.882812 162.554688 301.746094 161.890625 301.589844 C 161.226562 301.433594 160.570312 301.257812 159.914062 301.066406 C 159.261719 300.871094 158.613281 300.660156 157.972656 300.429688 C 157.332031 300.199219 156.699219 299.949219 156.070312 299.683594 C 155.445312 299.414062 154.824219 299.128906 154.214844 298.828125 C 153.605469 298.523438 153.003906 298.203125 152.410156 297.867188 C 151.820312 297.53125 151.238281 297.175781 150.664062 296.804688 C 150.09375 296.433594 149.535156 296.046875 148.984375 295.644531 C 148.433594 295.242188 147.898438 294.820312 147.371094 294.386719 C 146.847656 293.953125 146.335938 293.503906 145.835938 293.042969 C 145.335938 292.578125 144.851562 292.101562 144.378906 291.609375 C 143.90625 291.117188 143.449219 290.613281 143.003906 290.09375 C 142.5625 289.578125 142.132812 289.046875 141.722656 288.503906 C 141.308594 287.960938 140.914062 287.40625 140.53125 286.84375 C 140.152344 286.277344 139.789062 285.699219 139.441406 285.113281 C 139.09375 284.527344 138.761719 283.933594 138.449219 283.328125 C 138.136719 282.722656 137.839844 282.109375 137.5625 281.488281 C 137.285156 280.863281 137.027344 280.234375 136.785156 279.597656 C 136.542969 278.960938 136.320312 278.316406 136.113281 277.667969 C 135.910156 277.015625 135.722656 276.359375 135.558594 275.699219 C 135.390625 275.039062 135.242188 274.375 135.113281 273.707031 C 134.984375 273.035156 134.875 272.363281 134.785156 271.6875 C 134.695312 271.011719 134.625 270.335938 134.574219 269.65625 C 134.523438 268.976562 134.492188 268.296875 134.480469 267.613281 C 134.46875 266.933594 134.476562 266.25 134.503906 265.570312 C 134.53125 264.890625 134.578125 264.210938 134.644531 263.53125 C 134.710938 262.855469 134.796875 262.179688 134.902344 261.503906 C 135.007812 260.832031 135.132812 260.164062 135.277344 259.496094 C 135.421875 258.828125 135.585938 258.167969 135.765625 257.511719 C 135.949219 256.855469 136.148438 256.203125 136.367188 255.558594 C 136.589844 254.914062 136.828125 254.277344 137.082031 253.644531 C 137.339844 253.011719 137.613281 252.390625 137.90625 251.773438 C 138.195312 251.15625 138.507812 250.550781 138.832031 249.953125 C 139.160156 249.355469 139.503906 248.765625 139.867188 248.1875 C 140.226562 247.609375 140.605469 247.042969 140.996094 246.488281 C 141.390625 245.929688 141.800781 245.386719 142.226562 244.855469 C 142.648438 244.320312 143.089844 243.800781 143.542969 243.292969 C 144 242.785156 144.46875 242.292969 144.949219 241.8125 C 145.433594 241.332031 145.929688 240.863281 146.441406 240.414062 C 146.949219 239.960938 147.472656 239.523438 148.007812 239.101562 C 148.542969 238.679688 149.089844 238.273438 149.648438 237.882812 C 150.207031 237.492188 150.777344 237.117188 151.355469 236.761719 C 151.9375 236.402344 152.527344 236.0625 153.125 235.738281 C 153.726562 235.414062 154.335938 235.109375 154.953125 234.820312 C 155.570312 234.53125 156.195312 234.261719 156.828125 234.007812 C 157.460938 233.753906 158.101562 233.519531 158.746094 233.304688 C 159.394531 233.089844 160.042969 232.890625 160.703125 232.714844 C 161.359375 232.535156 162.023438 232.375 162.6875 232.234375 C 163.355469 232.09375 164.027344 231.972656 164.699219 231.871094 C 165.375 231.769531 166.050781 231.6875 166.730469 231.625 C 167.40625 231.5625 168.085938 231.519531 168.769531 231.496094 C 169.449219 231.472656 170.128906 231.46875 170.8125 231.484375 C 171.492188 231.5 172.171875 231.535156 172.851562 231.589844 C 173.53125 231.644531 174.210938 231.71875 174.882812 231.8125 C 175.558594 231.90625 176.230469 232.019531 176.898438 232.152344 C 177.566406 232.28125 178.230469 232.433594 178.890625 232.605469 C 179.550781 232.777344 180.207031 232.964844 180.855469 233.171875 C 181.503906 233.382812 182.144531 233.609375 182.78125 233.851562 C 183.417969 234.097656 184.046875 234.363281 184.667969 234.644531 C 185.289062 234.925781 185.898438 235.222656 186.503906 235.539062 C 187.105469 235.855469 187.699219 236.191406 188.285156 236.539062 L 177.886719 250.933594 L 172.429688 245.222656 C 172.0625 244.835938 171.675781 244.472656 171.273438 244.125 C 170.871094 243.78125 170.453125 243.453125 170.019531 243.148438 C 169.582031 242.84375 169.132812 242.558594 168.671875 242.300781 C 168.210938 242.039062 167.734375 241.800781 167.25 241.585938 C 166.761719 241.371094 166.269531 241.179688 165.765625 241.015625 C 165.257812 240.851562 164.746094 240.710938 164.230469 240.59375 C 163.710938 240.476562 163.1875 240.386719 162.660156 240.324219 C 162.132812 240.257812 161.605469 240.222656 161.074219 240.210938 C 160.542969 240.195312 160.011719 240.210938 159.484375 240.25 C 158.953125 240.289062 158.425781 240.355469 157.902344 240.449219 C 157.378906 240.539062 156.863281 240.65625 156.351562 240.800781 C 155.839844 240.941406 155.335938 241.109375 154.839844 241.300781 C 154.347656 241.492188 153.863281 241.707031 153.386719 241.949219 C 152.914062 242.1875 152.453125 242.449219 152.003906 242.734375 C 151.554688 243.019531 151.121094 243.324219 150.703125 243.652344 C 150.285156 243.980469 149.886719 244.328125 149.5 244.695312 C 149.117188 245.058594 148.75 245.445312 148.40625 245.847656 C 148.058594 246.25 147.734375 246.667969 147.429688 247.105469 C 147.125 247.539062 146.839844 247.988281 146.578125 248.449219 C 146.316406 248.914062 146.082031 249.386719 145.867188 249.871094 C 145.652344 250.359375 145.460938 250.851562 145.296875 251.359375 C 145.128906 251.863281 144.988281 252.375 144.875 252.890625 C 144.757812 253.410156 144.667969 253.933594 144.605469 254.460938 C 144.539062 254.988281 144.5 255.515625 144.488281 256.046875 C 144.476562 256.578125 144.492188 257.109375 144.53125 257.636719 C 144.570312 258.167969 144.636719 258.695312 144.726562 259.21875 C 144.820312 259.742188 144.9375 260.257812 145.078125 260.769531 C 145.222656 261.28125 145.386719 261.785156 145.582031 262.28125 C 145.773438 262.773438 145.988281 263.261719 146.226562 263.734375 C 146.464844 264.207031 146.730469 264.667969 147.015625 265.117188 C 147.296875 265.566406 147.605469 266 147.933594 266.417969 C 148.257812 266.835938 148.605469 267.238281 148.972656 267.621094 L 167.898438 287.320312 C 168.734375 288.164062 169.648438 288.914062 170.640625 289.570312 L 170.808594 289.652344 C 171.753906 290.265625 172.753906 290.773438 173.808594 291.171875 L 174.089844 291.257812 C 175.035156 291.601562 176.007812 291.859375 177 292.03125 C 177.367188 292.03125 177.71875 292.03125 178.085938 292.144531 C 178.449219 292.257812 179.082031 292.300781 179.589844 292.300781 C 180.097656 292.300781 180.347656 292.300781 180.699219 292.300781 C 181.886719 292.222656 183.050781 292.015625 184.1875 291.679688 C 185.328125 291.34375 186.417969 290.886719 187.457031 290.3125 C 188.496094 289.734375 189.457031 289.050781 190.34375 288.261719 C 191.234375 287.472656 192.023438 286.59375 192.714844 285.628906 L 217.875 250.808594 C 218.746094 249.597656 219.4375 248.292969 219.949219 246.894531 C 220.460938 245.496094 220.773438 244.054688 220.886719 242.566406 C 221 241.082031 220.910156 239.609375 220.621094 238.148438 C 220.328125 236.6875 219.84375 235.292969 219.167969 233.964844 C 218.492188 232.636719 217.648438 231.425781 216.640625 230.328125 C 215.628906 229.234375 214.492188 228.296875 213.222656 227.511719 C 211.957031 226.730469 210.605469 226.136719 209.171875 225.726562 C 207.738281 225.316406 206.277344 225.109375 204.789062 225.101562 C 201.910156 225.09375 199.226562 225.816406 196.742188 227.269531 C 195.96875 226.753906 195.179688 226.257812 194.378906 225.789062 C 193.578125 225.316406 192.765625 224.871094 191.9375 224.449219 C 191.109375 224.027344 190.273438 223.628906 189.421875 223.253906 C 188.570312 222.878906 187.710938 222.53125 186.839844 222.207031 C 185.96875 221.882812 185.089844 221.585938 184.203125 221.3125 C 183.3125 221.039062 182.417969 220.792969 181.515625 220.574219 C 180.613281 220.351562 179.707031 220.160156 178.792969 219.992188 C 177.878906 219.824219 176.960938 219.683594 176.039062 219.566406 C 175.117188 219.453125 174.191406 219.367188 173.265625 219.308594 C 172.339844 219.246094 171.410156 219.214844 170.480469 219.207031 C 169.550781 219.199219 168.625 219.222656 167.695312 219.269531 C 166.769531 219.316406 165.84375 219.394531 164.917969 219.496094 C 163.996094 219.597656 163.078125 219.726562 162.160156 219.878906 C 161.246094 220.035156 160.335938 220.21875 159.429688 220.425781 C 158.523438 220.632812 157.625 220.871094 156.734375 221.128906 C 155.84375 221.390625 154.960938 221.675781 154.085938 221.988281 C 153.210938 222.300781 152.34375 222.640625 151.488281 223.003906 C 150.632812 223.363281 149.789062 223.75 148.957031 224.164062 C 148.125 224.574219 147.304688 225.011719 146.496094 225.472656 C 145.691406 225.929688 144.898438 226.414062 144.117188 226.917969 C 143.339844 227.425781 142.574219 227.953125 141.824219 228.503906 C 141.078125 229.054688 140.347656 229.625 139.628906 230.21875 C 138.914062 230.8125 138.21875 231.425781 137.539062 232.058594 C 136.859375 232.691406 136.199219 233.34375 135.558594 234.015625 C 134.917969 234.6875 134.296875 235.378906 133.695312 236.085938 C 133.09375 236.792969 132.511719 237.519531 131.953125 238.261719 C 131.394531 239.003906 130.859375 239.761719 130.34375 240.535156 C 129.828125 241.308594 129.335938 242.09375 128.867188 242.898438 C 128.398438 243.699219 127.953125 244.515625 127.53125 245.339844 C 127.109375 246.167969 126.714844 247.007812 126.339844 247.859375 C 125.96875 248.710938 125.621094 249.570312 125.300781 250.445312 C 124.976562 251.316406 124.679688 252.195312 124.410156 253.082031 C 124.136719 253.972656 123.894531 254.867188 123.671875 255.769531 C 123.453125 256.671875 123.261719 257.582031 123.097656 258.496094 C 122.929688 259.410156 122.792969 260.328125 122.679688 261.25 C 122.566406 262.171875 122.480469 263.097656 122.421875 264.023438 C 122.363281 264.949219 122.332031 265.878906 122.328125 266.808594 C 122.320312 267.734375 122.34375 268.664062 122.394531 269.59375 C 122.445312 270.519531 122.519531 271.445312 122.625 272.367188 C 122.726562 273.292969 122.855469 274.210938 123.015625 275.125 C 123.171875 276.042969 123.355469 276.953125 123.5625 277.855469 C 123.773438 278.761719 124.011719 279.660156 124.273438 280.550781 C 124.535156 281.441406 124.824219 282.324219 125.136719 283.199219 C 125.449219 284.074219 125.789062 284.9375 126.152344 285.792969 C 126.519531 286.648438 126.90625 287.492188 127.320312 288.324219 C 127.734375 289.15625 128.167969 289.972656 128.628906 290.78125 C 129.089844 291.585938 129.574219 292.378906 130.082031 293.15625 C 130.589844 293.9375 131.121094 294.699219 131.671875 295.445312 C 132.222656 296.195312 132.796875 296.925781 133.390625 297.640625 C 133.984375 298.351562 134.597656 299.050781 135.234375 299.726562 C 135.867188 300.40625 136.519531 301.066406 137.195312 301.707031 C 137.867188 302.347656 138.558594 302.964844 139.269531 303.566406 C 139.976562 304.167969 140.703125 304.746094 141.445312 305.300781 C 142.1875 305.859375 142.949219 306.394531 143.722656 306.910156 C 144.496094 307.421875 145.285156 307.914062 146.085938 308.378906 C 146.890625 308.847656 147.707031 309.292969 148.535156 309.710938 C 149.363281 310.132812 150.203125 310.527344 151.054688 310.898438 C 151.90625 311.269531 152.765625 311.617188 153.640625 311.9375 C 154.511719 312.257812 155.390625 312.554688 156.28125 312.824219 C 157.167969 313.09375 158.066406 313.335938 158.96875 313.554688 C 159.871094 313.769531 160.78125 313.960938 161.695312 314.125 C 162.609375 314.289062 163.527344 314.429688 164.449219 314.539062 C 165.371094 314.648438 166.296875 314.734375 167.222656 314.792969 C 168.152344 314.847656 169.078125 314.878906 170.007812 314.882812 Z M 183.527344 264.257812 L 201.496094 239.339844 L 201.777344 239.003906 C 202.378906 238.226562 203.160156 237.757812 204.128906 237.59375 C 204.324219 237.582031 204.519531 237.582031 204.71875 237.59375 C 205.546875 237.589844 206.296875 237.832031 206.96875 238.3125 C 207.820312 238.933594 208.332031 239.765625 208.503906 240.804688 C 208.660156 241.832031 208.4375 242.769531 207.828125 243.617188 L 204.027344 248.878906 L 182.671875 278.425781 C 182.304688 278.914062 181.847656 279.292969 181.304688 279.570312 C 180.761719 279.847656 180.183594 279.992188 179.574219 280.003906 C 178.464844 280.027344 177.527344 279.636719 176.761719 278.835938 L 157.835938 259.136719 C 157.484375 258.773438 157.21875 258.355469 157.035156 257.882812 C 156.847656 257.414062 156.761719 256.925781 156.773438 256.417969 C 156.78125 255.914062 156.890625 255.429688 157.09375 254.964844 C 157.296875 254.503906 157.582031 254.097656 157.949219 253.746094 C 158.316406 253.390625 158.738281 253.125 159.214844 252.945312 C 159.328125 252.945312 159.457031 252.945312 159.566406 252.875 C 159.90625 252.773438 160.253906 252.710938 160.609375 252.691406 C 160.90625 252.722656 161.195312 252.777344 161.480469 252.859375 C 161.679688 252.859375 161.875 252.859375 162.058594 252.988281 C 162.539062 253.191406 162.960938 253.484375 163.324219 253.859375 L 174.03125 264.804688 C 174.613281 265.414062 175.289062 265.886719 176.058594 266.21875 C 176.832031 266.550781 177.636719 266.71875 178.476562 266.71875 L 178.929688 266.71875 C 179.847656 266.664062 180.714844 266.417969 181.523438 265.976562 C 182.332031 265.535156 183.011719 264.945312 183.558594 264.203125 Z M 183.527344 264.257812 " fill-opacity="1" fill-rule="nonzero"/><path fill="#93c53e" d="M 228.664062 162.855469 L 257.71875 162.855469 C 258.125 162.855469 258.527344 162.816406 258.925781 162.738281 C 259.324219 162.65625 259.714844 162.539062 260.089844 162.386719 C 260.464844 162.230469 260.820312 162.039062 261.160156 161.8125 C 261.496094 161.585938 261.808594 161.332031 262.097656 161.042969 C 262.382812 160.753906 262.640625 160.441406 262.867188 160.105469 C 263.09375 159.765625 263.285156 159.410156 263.4375 159.035156 C 263.59375 158.660156 263.710938 158.273438 263.792969 157.871094 C 263.871094 157.472656 263.910156 157.070312 263.910156 156.664062 C 263.910156 156.257812 263.871094 155.855469 263.792969 155.457031 C 263.710938 155.058594 263.59375 154.671875 263.4375 154.296875 C 263.285156 153.921875 263.09375 153.5625 262.867188 153.226562 C 262.640625 152.886719 262.382812 152.574219 262.097656 152.289062 C 261.808594 152 261.496094 151.742188 261.160156 151.519531 C 260.820312 151.292969 260.464844 151.101562 260.089844 150.945312 C 259.714844 150.789062 259.324219 150.671875 258.925781 150.59375 C 258.527344 150.515625 258.125 150.472656 257.71875 150.472656 L 228.664062 150.472656 C 228.257812 150.472656 227.855469 150.515625 227.457031 150.59375 C 227.058594 150.671875 226.671875 150.789062 226.296875 150.945312 C 225.921875 151.101562 225.5625 151.292969 225.226562 151.519531 C 224.886719 151.742188 224.574219 152 224.289062 152.289062 C 224 152.574219 223.742188 152.886719 223.519531 153.226562 C 223.292969 153.5625 223.101562 153.921875 222.945312 154.296875 C 222.789062 154.671875 222.671875 155.058594 222.59375 155.457031 C 222.515625 155.855469 222.472656 156.257812 222.472656 156.664062 C 222.472656 157.070312 222.515625 157.472656 222.59375 157.871094 C 222.671875 158.273438 222.789062 158.660156 222.945312 159.035156 C 223.101562 159.410156 223.292969 159.765625 223.519531 160.105469 C 223.742188 160.441406 224 160.753906 224.289062 161.042969 C 224.574219 161.332031 224.886719 161.585938 225.226562 161.8125 C 225.5625 162.039062 225.921875 162.230469 226.296875 162.386719 C 226.671875 162.539062 227.058594 162.65625 227.457031 162.738281 C 227.855469 162.816406 228.257812 162.855469 228.664062 162.855469 Z M 228.664062 162.855469 " fill-opacity="1" fill-rule="nonzero"/></svg>