<svg xmlns="http://www.w3.org/2000/svg" xmlns:xlink="http://www.w3.org/1999/xlink" width="512" zoomAndPan="magnify" viewBox="0 0 384 383.999986" height="512" preserveAspectRatio="xMidYMid meet" version="1.0"><defs><g/></defs><g fill="#93c53e" fill-opacity="1"><g transform="translate(38.400004, 276.002575)"><g><path d="M 82.015625 2.21875 C 60.710938 2.21875 44.910156 -2.84375 34.609375 -12.96875 C 24.304688 -23.09375 19.15625 -38.101562 19.15625 -58 L 19.15625 -154.734375 L 49.109375 -154.734375 L 49.109375 -58.203125 C 49.109375 -46.921875 51.820312 -38.457031 57.25 -32.8125 C 62.6875 -27.164062 70.941406 -24.34375 82.015625 -24.34375 C 103.960938 -24.34375 114.9375 -35.628906 114.9375 -58.203125 L 114.9375 -154.734375 L 144.890625 -154.734375 L 144.890625 -58 C 144.890625 -38.101562 139.738281 -23.09375 129.4375 -12.96875 C 119.132812 -2.84375 103.328125 2.21875 82.015625 2.21875 Z M 82.015625 2.21875 "/></g></g><g transform="translate(202.449863, 276.002575)"><g><path d="M 33.96875 0 L 2.640625 0 L 48.46875 -79.59375 L 4.875 -154.734375 L 37.359375 -154.734375 L 69.421875 -99.265625 L 72.078125 -99.265625 L 104.671875 -154.734375 L 135.578125 -154.734375 L 91.96875 -79.59375 L 137.796875 0 L 105.40625 0 L 71.015625 -59.6875 L 68.375 -59.6875 Z M 33.96875 0 "/></g></g></g></svg>