<svg xmlns="http://www.w3.org/2000/svg" xmlns:xlink="http://www.w3.org/1999/xlink" width="512" zoomAndPan="magnify" viewBox="0 0 384 383.999986" height="512" preserveAspectRatio="xMidYMid meet" version="1.0"><defs><clipPath id="bfee979e02"><path d="M 38.398438 52.800781 L 345.898438 52.800781 L 345.898438 331.050781 L 38.398438 331.050781 Z M 38.398438 52.800781 " clip-rule="nonzero"/></clipPath></defs><g clip-path="url(#bfee979e02)"><path fill="#93c53e" d="M 327.839844 239.785156 L 56.15625 239.785156 L 56.15625 70.21875 L 327.839844 70.21875 Z M 221.859375 267.726562 L 162.132812 267.726562 C 158.941406 267.726562 156.351562 265.140625 156.351562 261.949219 C 156.351562 258.757812 158.941406 256.164062 162.132812 256.164062 L 221.859375 256.164062 C 225.058594 256.164062 227.644531 258.757812 227.644531 261.949219 C 227.644531 265.140625 225.058594 267.726562 221.859375 267.726562 Z M 335.265625 52.882812 L 48.730469 52.882812 C 43.261719 52.882812 38.8125 57.332031 38.8125 62.796875 L 38.8125 274.1875 C 38.8125 279.652344 43.261719 284.105469 48.730469 284.105469 L 182.359375 284.105469 L 182.359375 310.730469 L 166.21875 310.730469 C 165.773438 310.730469 165.332031 310.863281 164.964844 311.128906 L 141.804688 327.332031 C 140.058594 328.5625 140.917969 331.3125 143.066406 331.3125 L 240.929688 331.3125 C 243.074219 331.3125 243.9375 328.5625 242.191406 327.332031 L 219.027344 311.128906 C 218.660156 310.863281 218.222656 310.730469 217.777344 310.730469 L 201.636719 310.730469 L 201.636719 284.105469 L 335.265625 284.105469 C 340.730469 284.105469 345.183594 279.652344 345.183594 274.1875 L 345.183594 62.796875 C 345.183594 57.332031 340.730469 52.882812 335.265625 52.882812 " fill-opacity="1" fill-rule="nonzero"/></g><path fill="#93c53e" d="M 121.347656 114.324219 C 133.59375 114.324219 143.550781 124.289062 143.550781 136.527344 C 143.550781 148.773438 133.59375 158.730469 121.347656 158.730469 C 109.109375 158.730469 99.152344 148.773438 99.152344 136.527344 C 99.152344 124.289062 109.109375 114.324219 121.347656 114.324219 Z M 89.074219 155.445312 L 82.101562 164.5625 L 93.320312 175.78125 L 102.441406 168.808594 C 105.367188 170.539062 108.542969 171.871094 111.910156 172.75 L 113.425781 184.109375 L 129.277344 184.109375 L 130.796875 172.75 C 134.160156 171.871094 137.335938 170.539062 140.265625 168.808594 L 149.382812 175.78125 L 160.601562 164.5625 L 153.628906 155.445312 C 155.359375 152.515625 156.691406 149.339844 157.578125 145.972656 L 168.933594 144.457031 L 168.933594 128.597656 L 157.578125 127.089844 C 156.691406 123.722656 155.359375 120.546875 153.628906 117.609375 L 160.601562 108.5 L 149.382812 97.28125 L 140.265625 104.253906 C 137.335938 102.523438 134.160156 101.191406 130.796875 100.304688 L 129.277344 88.953125 L 113.425781 88.953125 L 111.910156 100.304688 C 108.542969 101.191406 105.367188 102.523438 102.441406 104.253906 L 93.320312 97.28125 L 82.101562 108.5 L 89.074219 117.609375 C 87.34375 120.546875 86.011719 123.722656 85.125 127.089844 L 73.773438 128.597656 L 73.773438 144.457031 L 85.125 145.972656 C 86.011719 149.339844 87.34375 152.515625 89.074219 155.445312 " fill-opacity="1" fill-rule="nonzero"/><path fill="#93c53e" d="M 278.277344 167.820312 L 298.128906 187.667969 L 282.847656 202.949219 L 285.769531 212.125 L 310.222656 187.667969 L 284.324219 161.78125 L 278.277344 167.820312 " fill-opacity="1" fill-rule="nonzero"/><path fill="#93c53e" d="M 251.765625 172.390625 L 248.84375 163.214844 L 224.390625 187.667969 L 250.28125 213.566406 L 256.328125 207.511719 L 236.484375 187.667969 L 251.765625 172.390625 " fill-opacity="1" fill-rule="nonzero"/><path fill="#93c53e" d="M 252.960938 154.457031 L 274.765625 223.078125 L 281.652344 220.882812 L 259.847656 152.269531 L 252.960938 154.457031 " fill-opacity="1" fill-rule="nonzero"/><path fill="#93c53e" d="M 310.222656 84.867188 L 181.546875 84.867188 L 181.546875 95.078125 L 310.222656 95.078125 L 310.222656 84.867188 " fill-opacity="1" fill-rule="nonzero"/><path fill="#93c53e" d="M 202.449219 195.160156 L 73.773438 195.160156 L 73.773438 205.375 L 202.449219 205.375 L 202.449219 195.160156 " fill-opacity="1" fill-rule="nonzero"/><path fill="#93c53e" d="M 126.878906 223.757812 L 202.449219 223.757812 L 202.449219 213.542969 L 126.878906 213.542969 L 126.878906 223.757812 " fill-opacity="1" fill-rule="nonzero"/><path fill="#93c53e" d="M 212.183594 115.503906 L 310.222656 115.503906 L 310.222656 105.292969 L 212.183594 105.292969 L 212.183594 115.503906 " fill-opacity="1" fill-rule="nonzero"/><path fill="#93c53e" d="M 226.480469 135.929688 L 310.222656 135.929688 L 310.222656 125.714844 L 226.480469 125.714844 L 226.480469 135.929688 " fill-opacity="1" fill-rule="nonzero"/></svg>